<?xml version="1.0" encoding="utf-8" standalone="no"?>
<!DOCTYPE svg PUBLIC "-//W3C//DTD SVG 1.1//EN"
  "http://www.w3.org/Graphics/SVG/1.1/DTD/svg11.dtd">
<svg xmlns:xlink="http://www.w3.org/1999/xlink" width="460.8pt" height="345.6pt" viewBox="0 0 460.8 345.6" xmlns="http://www.w3.org/2000/svg" version="1.1">
 <metadata>
  <rdf:RDF xmlns:dc="http://purl.org/dc/elements/1.1/" xmlns:cc="http://creativecommons.org/ns#" xmlns:rdf="http://www.w3.org/1999/02/22-rdf-syntax-ns#">
   <cc:Work>
    <dc:type rdf:resource="http://purl.org/dc/dcmitype/StillImage"/>
    <dc:date>2024-12-18T09:57:22.763980</dc:date>
    <dc:format>image/svg+xml</dc:format>
    <dc:creator>
     <cc:Agent>
      <dc:title>Matplotlib v3.6.3, https://matplotlib.org/</dc:title>
     </cc:Agent>
    </dc:creator>
   </cc:Work>
  </rdf:RDF>
 </metadata>
 <defs>
  <style type="text/css">*{stroke-linejoin: round; stroke-linecap: butt}</style>
 </defs>
 <g id="figure_1">
  <g id="patch_1">
   <path d="M 0 345.6 
L 460.8 345.6 
L 460.8 0 
L 0 0 
z
" style="fill: #ffffff"/>
  </g>
  <g id="patch_2">
   <path d="M 100.8 276.48 
L 360 276.48 
L 360 17.28 
L 100.8 17.28 
z
" style="fill: #ffffff"/>
  </g>
  <g id="axes_1">
   <g id="line2d_1">
    <path d="M 219.595007 20.862531 
L 219.669116 21.2569 
L 219.97148 21.750709 
L 220.502758 22.342783 
L 221.262654 23.031507 
L 222.249887 23.814828 
L 223.462165 24.690248 
L 224.896167 25.654825 
L 226.547529 26.705171 
L 228.41084 27.837463 
L 230.47964 29.047446 
L 232.746431 30.33045 
L 235.202687 31.6814 
L 237.838885 33.094841 
L 240.644532 34.564955 
L 243.608208 36.08559 
L 246.717614 37.650289 
L 249.959627 39.252323 
L 253.32037 40.884724 
L 256.785278 42.540327 
L 260.339183 44.211806 
L 263.966394 45.891722 
L 267.650789 47.572561 
L 271.375913 49.246782 
L 275.12507 50.906865 
L 278.88143 52.545352 
L 282.62813 54.154894 
L 286.348372 55.728299 
L 290.025531 57.258568 
L 293.643247 58.738945 
L 297.18553 60.162948 
L 300.636847 61.524411 
L 303.982208 62.817513 
L 307.207255 64.036813 
L 310.298331 65.177272 
L 313.242548 66.234279 
L 316.027854 67.20367 
L 318.643079 68.08174 
L 321.077982 68.865259 
L 323.323291 69.551477 
L 325.370724 70.138128 
L 327.213015 70.623432 
L 328.843926 71.00609 
L 330.258249 71.285279 
L 331.451805 71.460644 
L 332.421437 71.532283 
L 333.164993 71.500738 
L 333.681308 71.366976 
L 333.970176 71.132371 
L 334.032325 70.798688 
L 333.869379 70.368059 
L 333.483828 69.842966 
L 332.878985 69.226216 
L 332.058946 68.520923 
L 331.028552 67.730482 
L 329.793346 66.858548 
L 328.359526 65.909017 
L 326.733909 64.886004 
L 324.923885 63.793819 
L 322.937373 62.636951 
L 320.782787 61.420047 
L 318.468993 60.147893 
L 316.005268 58.825399 
L 313.40127 57.457578 
L 310.666998 56.049534 
L 307.812758 54.606445 
L 304.849135 53.133548 
L 301.786958 51.636127 
L 298.637276 50.119501 
L 295.411323 48.589009 
L 292.120499 47.049999 
L 288.77634 45.507819 
L 285.390492 43.967806 
L 281.974694 42.435271 
L 278.540747 40.915498 
L 275.100497 39.413722 
L 271.665808 37.935131 
L 268.248543 36.484848 
L 264.86054 35.067923 
L 261.513584 33.689324 
L 258.219394 32.353925 
L 254.989586 31.066497 
L 251.835655 29.831693 
L 248.768948 28.654038 
L 245.800632 27.53792 
L 242.941667 26.487571 
L 240.202775 25.507058 
L 237.594408 24.600264 
L 235.126711 23.770881 
L 232.80949 23.022388 
L 230.652173 22.358037 
L 228.663767 21.780837 
L 226.852826 21.29354 
L 225.227399 20.898618 
L 223.794996 20.598251 
L 222.562539 20.394309 
L 221.536317 20.288334 
L 220.721946 20.281522 
L 220.124319 20.374709 
L 219.747565 20.568356 
L 219.595007 20.862531 
" clip-path="url(#p13ccc2b43e)" style="fill: none; stroke: #000000; stroke-opacity: 0.05; stroke-width: 1.5; stroke-linecap: square"/>
   </g>
   <g id="line2d_2">
    <path d="M 159.529073 44.613148 
L 159.369929 45.409209 
L 159.606748 46.380569 
L 160.244235 47.525735 
L 161.285431 48.842396 
L 162.731601 50.327382 
L 164.582141 51.976649 
L 166.834484 53.785249 
L 169.484018 55.747324 
L 172.524024 57.856098 
L 175.945624 60.103879 
L 179.737747 62.482074 
L 183.887117 64.981209 
L 188.378259 67.590962 
L 193.193532 70.300204 
L 198.313182 73.097054 
L 203.715424 75.968942 
L 209.376539 78.902679 
L 215.271008 81.884545 
L 221.371663 84.900375 
L 227.649854 87.935661 
L 234.075651 90.975652 
L 240.61805 94.005469 
L 247.245202 97.010216 
L 253.92465 99.97509 
L 260.623579 102.885502 
L 267.309066 105.727186 
L 273.948331 108.486308 
L 280.508991 111.149568 
L 286.959304 113.704303 
L 293.268397 116.13857 
L 299.406492 118.441227 
L 305.34511 120.602008 
L 311.057251 122.611575 
L 316.517563 124.461567 
L 321.702482 126.144641 
L 326.590352 127.654491 
L 331.161518 128.985861 
L 335.398396 130.13455 
L 339.28552 131.097403 
L 342.809568 131.87229 
L 345.959362 132.458084 
L 348.72585 132.854623 
L 351.102074 133.06267 
L 353.083112 133.083869 
L 354.666016 132.920691 
L 355.849732 132.576382 
L 356.635012 132.054906 
L 357.024315 131.360884 
L 357.021712 130.499542 
L 356.632769 129.476646 
L 355.864451 128.298449 
L 354.725006 126.971636 
L 353.223857 125.503267 
L 351.371504 123.90073 
L 349.179415 122.171693 
L 346.659931 120.324055 
L 343.826175 118.365912 
L 340.691963 116.305512 
L 337.271721 114.151225 
L 333.580416 111.911513 
L 329.633482 109.594898 
L 325.446758 107.20994 
L 321.036435 104.765217 
L 316.419004 102.269305 
L 311.611211 99.73076 
L 306.630021 97.158111 
L 301.492582 94.559841 
L 296.216197 91.944383 
L 290.818299 89.32011 
L 285.316434 86.69533 
L 279.728237 84.07828 
L 274.071423 81.477121 
L 268.363775 78.899935 
L 262.623129 76.354722 
L 256.867368 73.849397 
L 251.114416 71.391785 
L 245.382224 68.989615 
L 239.688764 66.650523 
L 234.052022 64.382038 
L 228.48998 62.19158 
L 223.020609 60.086449 
L 217.66185 58.07382 
L 212.431593 56.160726 
L 207.347658 54.35405 
L 202.427764 52.660504 
L 197.689498 51.086616 
L 193.15028 49.63871 
L 188.827317 48.32288 
L 184.737554 47.144966 
L 180.897623 46.110531 
L 177.323779 45.224824 
L 174.031828 44.492752 
L 171.037059 43.918844 
L 168.354158 43.507215 
L 165.997121 43.261522 
L 163.979157 43.18493 
L 162.312595 43.280067 
L 161.00877 43.548978 
L 160.077921 43.993086 
L 159.529073 44.613148 
" clip-path="url(#p13ccc2b43e)" style="fill: none; stroke: #000000; stroke-opacity: 0.05; stroke-width: 1.5; stroke-linecap: square"/>
   </g>
   <g id="line2d_3">
    <path d="M 120.063618 94.771855 
L 119.664044 95.961559 
L 119.718669 97.354697 
L 120.234763 98.948843 
L 121.21771 100.740568 
L 122.670865 102.725402 
L 124.595409 104.897796 
L 126.990221 107.2511 
L 129.851754 109.777545 
L 133.173933 112.468236 
L 136.948069 115.313157 
L 141.162792 118.30119 
L 145.804016 121.420144 
L 150.854922 124.656801 
L 156.295977 127.99697 
L 162.104982 131.425568 
L 168.257154 134.926699 
L 174.72524 138.483758 
L 181.479666 142.07954 
L 188.488712 145.69637 
L 195.71873 149.316228 
L 203.13438 152.920899 
L 210.698895 156.492111 
L 218.374368 160.011692 
L 226.122058 163.461715 
L 233.902703 166.824656 
L 241.676847 170.083529 
L 249.405167 173.222035 
L 257.048792 176.224685 
L 264.569622 179.076923 
L 271.930626 181.765234 
L 279.096125 184.277235 
L 286.032054 186.601753 
L 292.706193 188.72889 
L 299.08838 190.650062 
L 305.150678 192.358037 
L 310.867524 193.846941 
L 316.215841 195.11226 
L 321.175112 196.15082 
L 325.727435 196.960763 
L 329.857533 197.541498 
L 333.552749 197.893652 
L 336.803005 198.019012 
L 339.600749 197.920452 
L 341.940868 197.60186 
L 343.820598 197.068063 
L 345.239405 196.324742 
L 346.198871 195.378355 
L 346.702555 194.236051 
L 346.755864 192.905595 
L 346.365906 191.395285 
L 345.541355 189.71388 
L 344.292308 187.870529 
L 342.630151 185.874702 
L 340.567425 183.736131 
L 338.117704 181.46475 
L 335.295471 179.070644 
L 332.116007 176.564004 
L 328.595293 173.955082 
L 324.749907 171.254157 
L 320.596943 168.471501 
L 316.153931 165.617351 
L 311.438771 162.701891 
L 306.469666 159.735225 
L 301.265077 156.727369 
L 295.843671 153.688233 
L 290.224286 150.627615 
L 284.425902 147.555193 
L 278.467611 144.480523 
L 272.368598 141.413031 
L 266.148131 138.362016 
L 259.825541 135.336649 
L 253.420225 132.345975 
L 246.951634 129.398911 
L 240.439273 126.504247 
L 233.902703 123.670653 
L 227.361537 120.906673 
L 220.835447 118.220727 
L 214.344156 115.621111 
L 207.907445 113.115993 
L 201.545145 110.713408 
L 195.277135 108.421252 
L 189.123333 106.247276 
L 183.103684 104.199072 
L 177.238142 102.284061 
L 171.546651 100.509475 
L 166.049116 98.882341 
L 160.765369 97.409456 
L 155.715126 96.097362 
L 150.917941 94.952314 
L 146.393149 93.980253 
L 142.159798 93.186766 
L 138.236574 92.577045 
L 134.64172 92.155848 
L 131.39294 91.92745 
L 128.507296 91.895597 
L 126.0011 92.063453 
L 123.889785 92.433546 
L 122.187785 93.007714 
L 120.908392 93.787053 
L 120.063618 94.771855 
" clip-path="url(#p13ccc2b43e)" style="fill: none; stroke: #000000; stroke-opacity: 0.05; stroke-width: 1.5; stroke-linecap: square"/>
   </g>
   <g id="line2d_4">
    <path d="M 111.600548 157.229483 
L 111.217553 158.545584 
L 111.224722 160.034929 
L 111.627544 161.693831 
L 112.42989 163.517738 
L 113.633902 165.501216 
L 115.239898 167.637936 
L 117.246268 169.920664 
L 119.649405 172.341266 
L 122.443625 174.890715 
L 125.621116 177.559111 
L 129.171901 180.335711 
L 133.083817 183.208968 
L 137.342519 186.166576 
L 141.9315 189.195536 
L 146.83214 192.282219 
L 152.023777 195.412453 
L 157.4838 198.571603 
L 163.18777 201.744673 
L 169.109558 204.916407 
L 175.221512 208.071402 
L 181.49464 211.194218 
L 187.898814 214.269494 
L 194.402983 217.282071 
L 200.97541 220.217104 
L 207.583905 223.060178 
L 214.196077 225.797422 
L 220.779575 228.415607 
L 227.302337 230.902251 
L 233.732831 233.245701 
L 240.040285 235.435218 
L 246.194906 237.461038 
L 252.168089 239.314435 
L 257.932596 240.987759 
L 263.462734 242.474475 
L 268.734491 243.769173 
L 273.725667 244.867585 
L 278.415973 245.766574 
L 282.787106 246.464123 
L 286.822806 246.959308 
L 290.50889 247.252263 
L 293.833258 247.344142 
L 296.785889 247.237066 
L 299.358811 246.934071 
L 301.546059 246.439046 
L 303.343619 245.756674 
L 304.749353 244.892367 
L 305.762923 243.852198 
L 306.385698 242.642838 
L 306.620664 241.271487 
L 306.472319 239.745816 
L 305.946575 238.073899 
L 305.05065 236.26416 
L 303.792971 234.325312 
L 302.183066 232.266307 
L 300.231469 230.096288 
L 297.949627 227.824542 
L 295.349802 225.46046 
L 292.444995 223.013501 
L 289.248857 220.493157 
L 285.775621 217.908922 
L 282.04003 215.270273 
L 278.057274 212.586637 
L 273.842939 209.867381 
L 269.412948 207.121792 
L 264.783525 204.35906 
L 259.971147 201.588272 
L 254.992514 198.818399 
L 249.864522 196.058291 
L 244.604228 193.316666 
L 239.228838 190.602113 
L 233.755682 187.923078 
L 228.202204 185.287869 
L 222.585943 182.704649 
L 216.924523 180.181432 
L 211.235649 177.726084 
L 205.537087 175.346313 
L 199.846666 173.04967 
L 194.18226 170.84354 
L 188.561783 168.735138 
L 183.003174 166.731499 
L 177.524386 164.83947 
L 172.143369 163.065697 
L 166.87805 161.416614 
L 161.746312 159.898427 
L 156.765965 158.517095 
L 151.954715 157.278312 
L 147.330132 156.187485 
L 142.9096 155.249709 
L 138.710277 154.469741 
L 134.749036 153.851969 
L 131.042408 153.400383 
L 127.606511 153.118541 
L 124.456984 153.009532 
L 121.608897 153.075941 
L 119.076674 153.319808 
L 116.87399 153.742594 
L 115.013684 154.345135 
L 113.507645 155.127604 
L 112.36671 156.089476 
L 111.600548 157.229483 
" clip-path="url(#p13ccc2b43e)" style="fill: none; stroke: #000000; stroke-opacity: 0.05; stroke-width: 1.5; stroke-linecap: square"/>
   </g>
   <g id="line2d_5">
    <path d="M 135.739917 215.06909 
L 135.58598 215.977947 
L 135.655448 216.982205 
L 135.949839 218.078569 
L 136.469748 219.263303 
L 137.214812 220.532234 
L 138.183687 221.880758 
L 139.374021 223.303852 
L 140.782441 224.796086 
L 142.40454 226.351641 
L 144.234876 227.96433 
L 146.266971 229.627619 
L 148.493326 231.334658 
L 150.905437 233.078307 
L 153.49382 234.851177 
L 156.248049 236.64566 
L 159.156797 238.453971 
L 162.207886 240.268193 
L 165.388346 242.080317 
L 168.684482 243.882291 
L 172.081945 245.666064 
L 175.565811 247.423638 
L 179.12067 249.147113 
L 182.730709 250.828737 
L 186.37981 252.460953 
L 190.051645 254.036442 
L 193.729774 255.548174 
L 197.397743 256.989441 
L 201.039185 258.353904 
L 204.637917 259.635627 
L 208.178035 260.829107 
L 211.644003 261.929306 
L 215.020748 262.931675 
L 218.293734 263.832174 
L 221.449046 264.627292 
L 224.473457 265.314055 
L 227.354492 265.890035 
L 230.080488 266.353356 
L 232.640636 266.702693 
L 235.025027 266.937263 
L 237.224686 267.056825 
L 239.231595 267.061661 
L 241.038709 266.952569 
L 242.639974 266.730837 
L 244.030322 266.398232 
L 245.205677 265.95697 
L 246.162939 265.4097 
L 246.899972 264.759473 
L 247.415588 264.009719 
L 247.709518 263.164219 
L 247.782389 262.227077 
L 247.635691 261.202695 
L 247.271742 260.095742 
L 246.693658 258.911131 
L 245.905307 257.653987 
L 244.911279 256.329626 
L 243.716844 254.943528 
L 242.327907 253.501313 
L 240.750979 252.008716 
L 238.993129 250.471568 
L 237.061951 248.895773 
L 234.965521 247.287289 
L 232.712367 245.652108 
L 230.311429 243.996241 
L 227.772026 242.325699 
L 225.103825 240.64648 
L 222.316807 238.964551 
L 219.421236 237.285838 
L 216.427637 235.616211 
L 213.346757 233.961472 
L 210.189552 232.327347 
L 206.967148 230.719466 
L 203.690828 229.143364 
L 200.372001 227.604463 
L 197.022179 226.108062 
L 193.65296 224.65933 
L 190.275997 223.263297 
L 186.902982 221.924839 
L 183.545619 220.648671 
L 180.215602 219.439338 
L 176.924592 218.301199 
L 173.68419 217.238424 
L 170.505916 216.254973 
L 167.401175 215.354592 
L 164.381237 214.540799 
L 161.457202 213.816867 
L 158.639973 213.185815 
L 155.940221 212.650397 
L 153.368353 212.213079 
L 150.934475 211.876036 
L 148.648354 211.641129 
L 146.519385 211.509896 
L 144.556541 211.483535 
L 142.768341 211.56289 
L 141.1628 211.748439 
L 139.747387 212.040278 
L 138.528985 212.438112 
L 137.513838 212.94124 
L 136.707512 213.548544 
L 136.114847 214.258485 
L 135.739917 215.06909 
" clip-path="url(#p13ccc2b43e)" style="fill: none; stroke: #000000; stroke-opacity: 0.05; stroke-width: 1.5; stroke-linecap: square"/>
   </g>
   <g id="line2d_6">
    <path d="M 185.525916 253.264325 
L 178.59274 250.099123 
L 171.869041 246.51548 
L 165.380612 242.526414 
L 159.152458 238.146463 
L 153.208718 233.391639 
L 147.572567 228.279389 
L 142.266136 222.828547 
L 137.310426 217.059274 
L 132.725221 210.993006 
L 128.529012 204.652387 
L 124.738915 198.0612 
L 121.370597 191.244292 
L 118.438204 184.227495 
L 115.954291 177.037543 
L 113.929761 169.701978 
L 112.373801 162.249058 
L 111.293829 154.707655 
L 110.695449 147.107152 
L 110.582402 139.477332 
L 110.956532 131.848268 
L 111.81776 124.2502 
L 113.164056 116.71342 
L 114.99143 109.268145 
L 117.293924 101.944394 
L 120.063618 94.771855 
L 123.290638 87.779762 
L 126.963181 80.996762 
L 131.067544 74.450786 
L 135.588166 68.168921 
L 140.507678 62.177282 
L 145.806964 56.50089 
L 151.465229 51.163551 
L 157.460082 46.187736 
L 163.767619 41.594473 
L 170.362528 37.403241 
L 177.21819 33.63187 
L 184.306794 30.29645 
L 191.599461 27.411245 
L 199.06637 24.988624 
L 206.676894 23.038991 
L 214.399738 21.570732 
L 222.203086 20.590171 
L 230.054744 20.101533 
L 237.922294 20.106928 
L 245.773244 20.60633 
L 253.575177 21.597587 
L 261.295908 23.076426 
L 268.90363 25.036478 
L 276.367061 27.469312 
L 283.65559 30.364481 
L 290.739415 33.709575 
L 297.589679 37.490286 
L 304.178596 41.690488 
L 310.479575 46.292313 
L 316.467332 51.276247 
L 322.117997 56.621231 
L 327.409211 62.30476 
L 332.320216 68.303004 
L 336.831933 74.590916 
L 340.927032 81.142357 
L 344.589991 87.930221 
L 347.80715 94.926559 
L 350.566747 102.102712 
L 352.85895 109.429434 
L 354.675882 116.877027 
L 356.011628 124.415467 
L 356.86224 132.014535 
L 357.225733 139.643938 
L 357.102068 147.273438 
L 356.493131 154.872968 
L 355.402706 162.412752 
L 353.836434 169.863418 
L 351.801775 177.196104 
L 349.307952 184.382569 
L 346.365906 191.395285 
L 342.988227 198.20754 
L 339.189095 204.79352 
L 334.984209 211.128402 
L 330.390717 217.188426 
L 325.427137 222.950974 
L 320.113283 228.394638 
L 314.470179 233.499283 
L 308.519981 238.246108 
L 302.285886 242.617695 
L 295.792053 246.598062 
L 289.063505 250.172707 
L 282.12605 253.328644 
L 275.006183 256.054438 
L 267.731 258.340238 
L 260.328104 260.177797 
L 252.825515 261.560499 
L 245.251575 262.48337 
L 237.634857 262.943093 
L 230.004075 262.938019 
L 222.387985 262.468164 
L 214.815298 261.535217 
L 207.314582 260.14253 
L 199.914176 258.295112 
L 192.64209 255.999617 
L 185.525916 253.264325 
" clip-path="url(#p13ccc2b43e)" style="fill: none; stroke: #000000; stroke-opacity: 0.05; stroke-width: 1.5; stroke-linecap: square"/>
   </g>
   <g id="line2d_7">
    <path d="M 185.525916 253.264325 
L 179.388171 251.448063 
L 173.426126 249.197427 
L 167.664398 246.517047 
L 162.127297 243.413298 
L 156.838718 239.894344 
L 151.822015 235.97017 
L 147.099881 231.652609 
L 142.694218 226.955357 
L 138.626003 221.893977 
L 134.915151 216.485895 
L 131.58038 210.750373 
L 128.639071 204.708486 
L 126.10713 198.383058 
L 123.998859 191.798612 
L 122.326824 184.981276 
L 121.10173 177.958695 
L 120.332312 170.759911 
L 120.025229 163.415236 
L 120.184967 155.956107 
L 120.813769 148.414923 
L 121.911565 140.824872 
L 123.475929 133.219746 
L 125.502048 125.633741 
L 127.982715 118.101253 
L 130.908339 110.656664 
L 134.266973 103.334127 
L 138.044371 96.167343 
L 142.224051 89.189347 
L 146.787396 82.432288 
L 151.713756 75.927224 
L 156.980581 69.703918 
L 162.563565 63.790648 
L 168.436801 58.21403 
L 174.57296 52.998856 
L 180.943467 48.167944 
L 187.518698 43.742018 
L 194.26817 39.739594 
L 201.160747 36.176892 
L 208.164842 33.067774 
L 215.248612 30.423692 
L 222.380163 28.253667 
L 229.527735 26.564279 
L 236.659889 25.359687 
L 243.745683 24.641657 
L 250.754838 24.409613 
L 257.657884 24.660704 
L 264.42631 25.389879 
L 271.032681 26.589987 
L 277.450757 28.25187 
L 283.65559 30.364481 
L 289.623604 32.914999 
L 295.33267 35.888952 
L 300.762162 39.270348 
L 305.892997 43.041799 
L 310.707669 47.184653 
L 315.190268 51.679123 
L 319.326489 56.504414 
L 323.103631 61.638843 
L 326.510588 67.059964 
L 329.53783 72.744679 
L 332.177383 78.669349 
L 334.4228 84.8099 
L 336.26912 91.141917 
L 337.712842 97.64074 
L 338.751874 104.281547 
L 339.385498 111.039433 
L 339.614323 117.889488 
L 339.44024 124.806858 
L 338.866382 131.766811 
L 337.897077 138.744795 
L 336.537804 145.716486 
L 334.795157 152.657839 
L 332.676799 159.545131 
L 330.191428 166.355001 
L 327.348738 173.064489 
L 324.159387 179.65107 
L 320.634965 186.092688 
L 316.787961 192.367789 
L 312.631738 198.455353 
L 308.180503 204.334923 
L 303.449286 209.986638 
L 298.453911 215.391264 
L 293.210976 220.530229 
L 287.737829 225.385655 
L 282.052546 229.940395 
L 276.173911 234.178072 
L 270.121384 238.083117 
L 263.915086 241.640814 
L 257.575768 244.837344 
L 251.124781 247.659833 
L 244.584047 250.096404 
L 237.976023 252.136228 
L 231.323663 253.769581 
L 224.650375 254.9879 
L 217.979973 255.783844 
L 211.336622 256.151358 
L 204.744782 256.085727 
L 198.229141 255.583646 
L 191.814545 254.643281 
L 185.525916 253.264325 
" clip-path="url(#p13ccc2b43e)" style="fill: none; stroke: #000000; stroke-opacity: 0.05; stroke-width: 1.5; stroke-linecap: square"/>
   </g>
   <g id="line2d_8">
    <path d="M 185.525916 253.264325 
L 181.865114 253.234503 
L 178.372742 252.772611 
L 175.064923 251.874013 
L 171.957517 250.535704 
L 169.066029 248.756426 
L 166.405502 246.536777 
L 163.990416 243.879317 
L 161.834564 240.788665 
L 159.950943 237.271587 
L 158.351625 233.337076 
L 157.047638 228.996404 
L 156.048843 224.263177 
L 155.363809 219.15335 
L 154.999698 213.685239 
L 154.962156 207.879492 
L 155.255204 201.75905 
L 155.881152 195.34907 
L 156.840512 188.676829 
L 158.131938 181.771594 
L 159.752177 174.664471 
L 161.696034 167.388219 
L 163.956365 159.977049 
L 166.524087 152.466391 
L 169.388211 144.892643 
L 172.53589 137.292908 
L 175.9525 129.704712 
L 179.621735 122.165711 
L 183.52572 114.713398 
L 187.645149 107.384806 
L 191.959432 100.216216 
L 196.446863 93.242874 
L 201.084795 86.498718 
L 205.849821 80.016127 
L 210.717972 73.825686 
L 215.664901 67.955977 
L 220.666083 62.433396 
L 225.696998 57.281997 
L 230.733318 52.523372 
L 235.751082 48.176548 
L 240.726854 44.25793 
L 245.637883 40.781261 
L 250.462232 37.757619 
L 255.178905 35.195437 
L 259.76795 33.100549 
L 264.210551 31.476256 
L 268.489099 30.323415 
L 272.587248 29.640548 
L 276.48996 29.423953 
L 280.183528 29.667843 
L 283.65559 30.364481 
L 286.895128 31.504325 
L 289.892458 33.076177 
L 292.639208 35.067332 
L 295.128284 37.463726 
L 297.353839 40.250084 
L 299.311222 43.410057 
L 300.996935 46.926357 
L 302.408577 50.780888 
L 303.544792 54.954864 
L 304.405213 59.428923 
L 304.990403 64.183227 
L 305.301804 69.197558 
L 305.341676 74.451404 
L 305.113053 79.924034 
L 304.619681 85.594567 
L 303.865983 91.442029 
L 302.857002 97.445409 
L 301.598369 103.583698 
L 300.096259 109.83593 
L 298.357362 116.181211 
L 296.388846 122.598747 
L 294.198334 129.067863 
L 291.793883 135.568019 
L 289.183955 142.078826 
L 286.377409 148.580053 
L 283.383485 155.051635 
L 280.211789 161.47368 
L 276.872291 167.826478 
L 273.375313 174.090499 
L 269.731531 180.246405 
L 265.951969 186.275053 
L 262.047999 192.157507 
L 258.031343 197.875045 
L 253.914071 203.409174 
L 249.708606 208.741648 
L 245.427719 213.854489 
L 241.084536 218.73001 
L 236.692532 223.350848 
L 232.265528 227.700001 
L 227.817688 231.760865 
L 223.36351 235.517289 
L 218.917815 238.953623 
L 214.495732 242.054784 
L 210.112676 244.80632 
L 205.784325 247.19449 
L 201.526589 249.206342 
L 197.355577 250.829803 
L 193.287545 252.053774 
L 189.338856 252.86823 
L 185.525916 253.264325 
" clip-path="url(#p13ccc2b43e)" style="fill: none; stroke: #000000; stroke-opacity: 0.05; stroke-width: 1.5; stroke-linecap: square"/>
   </g>
   <g id="line2d_9">
    <path d="M 185.525916 253.264325 
L 185.359492 254.975603 
L 185.382242 256.266516 
L 185.597206 257.125067 
L 186.00673 257.540638 
L 186.612413 257.504142 
L 187.415047 257.008171 
L 188.414558 256.047147 
L 189.609958 254.617467 
L 190.999289 252.717653 
L 192.579585 250.348479 
L 194.346826 247.513099 
L 196.295915 244.217157 
L 198.42065 240.468877 
L 200.713715 236.27914 
L 203.16668 231.661524 
L 205.770011 226.632337 
L 208.513097 221.210602 
L 211.384285 215.418021 
L 214.370936 209.278911 
L 217.459487 202.820092 
L 220.635536 196.070757 
L 223.88393 189.062298 
L 227.188872 181.828106 
L 230.534039 174.403337 
L 233.902703 166.824656 
L 237.277867 159.129953 
L 240.642404 151.358042 
L 243.979195 143.548342 
L 247.271274 135.740554 
L 250.501971 127.974331 
L 253.655044 120.288947 
L 256.714816 112.722974 
L 259.666296 105.313975 
L 262.49529 98.098211 
L 265.188507 91.110363 
L 267.733643 84.383294 
L 270.119461 77.947822 
L 272.335846 71.832537 
L 274.373854 66.063644 
L 276.22574 60.664838 
L 277.884975 55.65722 
L 279.346247 51.059232 
L 280.605454 46.886641 
L 281.659673 43.152533 
L 282.507135 39.867353 
L 283.147177 37.038954 
L 283.58019 34.672678 
L 283.807567 32.771454 
L 283.831634 31.335907 
L 283.65559 30.364481 
L 283.283433 29.853579 
L 282.719893 29.797697 
L 281.970364 30.189573 
L 281.040831 31.02033 
L 279.937807 32.279621 
L 278.668266 33.955775 
L 277.239582 36.03593 
L 275.659473 38.506167 
L 273.935946 41.351637 
L 272.077248 44.556676 
L 270.091818 48.104917 
L 267.98825 51.979387 
L 265.775255 56.162602 
L 263.461627 60.636645 
L 261.056216 65.383245 
L 258.567906 70.383838 
L 256.005589 75.619623 
L 253.378152 81.071612 
L 250.694462 86.72067 
L 247.963355 92.54755 
L 245.193627 98.532917 
L 242.394026 104.657375 
L 239.573251 110.901476 
L 236.739946 117.245739 
L 233.902703 123.670653 
L 231.070054 130.156685 
L 228.250479 136.684278 
L 225.452404 143.233857 
L 222.684199 149.785823 
L 219.954182 156.320554 
L 217.270619 162.818405 
L 214.641721 169.259702 
L 212.075645 175.624752 
L 209.580491 181.893838 
L 207.164293 188.047228 
L 204.835019 194.065188 
L 202.600559 199.927992 
L 200.468714 205.615941 
L 198.447183 211.10939 
L 196.543548 216.388776 
L 194.765253 221.434659 
L 193.119581 226.227764 
L 191.613629 230.749034 
L 190.254279 234.979693 
L 189.048165 238.901316 
L 188.001632 242.495908 
L 187.120703 245.745991 
L 186.411029 248.634705 
L 185.877844 251.145915 
L 185.525916 253.264325 
" clip-path="url(#p13ccc2b43e)" style="fill: none; stroke: #000000; stroke-opacity: 0.05; stroke-width: 1.5; stroke-linecap: square"/>
   </g>
   <g id="line2d_10">
    <path d="M 185.525916 253.264325 
L 188.922681 256.197898 
L 192.526987 258.715062 
L 196.327672 260.800306 
L 200.312469 262.439419 
L 204.468013 263.619634 
L 208.77984 264.329766 
L 213.232404 264.560365 
L 217.809109 264.303854 
L 222.492338 263.554668 
L 227.263512 262.309392 
L 232.103145 260.566887 
L 236.990926 258.328402 
L 241.905804 255.597678 
L 246.826092 252.381032 
L 251.729583 248.687423 
L 256.593677 244.528501 
L 261.395519 239.918621 
L 266.11215 234.874846 
L 270.720664 229.41691 
L 275.198372 223.567161 
L 279.522973 217.35047 
L 283.672725 210.794111 
L 287.626618 203.927617 
L 291.364542 196.7826 
L 294.867455 189.39255 
L 298.117539 181.792612 
L 301.098347 174.019334 
L 303.794937 166.110402 
L 306.193992 158.104364 
L 308.283927 150.040334 
L 310.054968 141.957702 
L 311.499224 133.895828 
L 312.61073 125.893756 
L 313.385472 117.989917 
L 313.821391 110.221859 
L 313.91837 102.625979 
L 313.678197 95.237284 
L 313.104511 88.089163 
L 312.202735 81.213192 
L 310.979986 74.638957 
L 309.444981 68.393909 
L 307.607928 62.503242 
L 305.480403 56.989799 
L 303.075229 51.874008 
L 300.406345 47.173842 
L 297.488674 42.904804 
L 294.337987 39.07993 
L 290.970779 35.709826 
L 287.40413 32.802711 
L 283.65559 30.364481 
L 279.743051 28.398793 
L 275.684643 26.907151 
L 271.498622 25.889011 
L 267.203277 25.341886 
L 262.816836 25.261463 
L 258.357391 25.641716 
L 253.842822 26.475027 
L 249.290735 27.752302 
L 244.718405 29.463089 
L 240.142729 31.595691 
L 235.580187 34.13727 
L 231.046806 37.07396 
L 226.558136 40.390958 
L 222.129226 44.07262 
L 217.774609 48.102544 
L 213.508293 52.463653 
L 209.343749 57.138264 
L 205.293913 62.108155 
L 201.371177 67.354623 
L 197.587397 72.858536 
L 193.95389 78.600382 
L 190.481442 84.560305 
L 187.18031 90.718145 
L 184.060223 97.053464 
L 181.130395 103.545575 
L 178.399516 110.173563 
L 175.875767 116.916304 
L 173.566809 123.752482 
L 171.479792 130.660601 
L 169.621347 137.619002 
L 167.99758 144.60587 
L 166.614069 151.599252 
L 165.475852 158.577065 
L 164.587413 165.51711 
L 163.95267 172.397093 
L 163.574955 179.194638 
L 163.456993 185.887311 
L 163.600882 192.452648 
L 164.008062 198.868179 
L 164.679289 205.111473 
L 165.614608 211.160171 
L 166.813313 216.992038 
L 168.273918 222.585018 
L 169.994122 227.917297 
L 171.970768 232.967369 
L 174.19981 237.714121 
L 176.676278 242.136912 
L 179.39424 246.215675 
L 182.346769 249.931016 
L 185.525916 253.264325 
" clip-path="url(#p13ccc2b43e)" style="fill: none; stroke: #000000; stroke-opacity: 0.05; stroke-width: 1.5; stroke-linecap: square"/>
   </g>
   <g id="line2d_11">
    <path d="M 185.525916 253.264325 
L 191.588093 256.571165 
L 197.845085 259.451327 
L 204.274301 261.890624 
L 210.852154 263.876332 
L 217.554128 265.397281 
L 224.354844 266.443953 
L 231.22814 267.008571 
L 238.14716 267.085185 
L 245.084448 266.669753 
L 252.012054 265.76022 
L 258.901648 264.356584 
L 265.724645 262.460957 
L 272.452333 260.077613 
L 279.056012 257.213029 
L 285.507137 253.875907 
L 291.777472 250.077193 
L 297.839241 245.83007 
L 303.665286 241.149942 
L 309.229229 236.054401 
L 314.50563 230.56318 
L 319.470148 224.698081 
L 324.099693 218.482892 
L 328.372582 211.943292 
L 332.268682 205.106724 
L 335.769544 198.002269 
L 338.858535 190.660496 
L 341.520952 183.113298 
L 343.744121 175.393715 
L 345.517494 167.535756 
L 346.832713 159.574194 
L 347.683677 151.544371 
L 348.066574 143.481986 
L 347.979908 135.422888 
L 347.424507 127.402859 
L 346.403504 119.45741 
L 344.922312 111.621568 
L 342.988576 103.929679 
L 340.612109 96.415213 
L 337.804816 89.11058 
L 334.5806 82.046953 
L 330.955255 75.254113 
L 326.946356 68.760299 
L 322.573122 62.592075 
L 317.856293 56.774214 
L 312.81798 51.3296 
L 307.481522 46.279139 
L 301.871336 41.641695 
L 296.012768 37.434037 
L 289.931937 33.670803 
L 283.65559 30.364481 
L 277.210948 27.525401 
L 270.62557 25.161743 
L 263.927208 23.279561 
L 257.143675 21.882807 
L 250.302718 20.973383 
L 243.4319 20.551185 
L 236.558484 20.614167 
L 229.709333 21.158405 
L 222.910807 22.178172 
L 216.188682 23.666012 
L 209.56806 25.612821 
L 203.073307 28.007933 
L 196.727979 30.8392 
L 190.554767 34.09308 
L 184.575447 37.754723 
L 178.810834 41.808052 
L 173.280744 46.235852 
L 168.003959 51.019846 
L 162.998203 56.140781 
L 158.280111 61.578502 
L 153.865217 67.312024 
L 149.76793 73.319614 
L 146.001525 79.57885 
L 142.578131 86.066696 
L 139.50872 92.759563 
L 136.8031 99.633374 
L 134.469907 106.66362 
L 132.516601 113.825423 
L 130.949461 121.093587 
L 129.773575 128.44266 
L 128.992843 135.846982 
L 128.609963 143.280743 
L 128.626433 150.718032 
L 129.042543 158.132896 
L 129.857366 165.499387 
L 131.068759 172.791623 
L 132.67335 179.983842 
L 134.666539 187.050458 
L 137.042486 193.966124 
L 139.794113 200.705791 
L 142.913096 207.244775 
L 146.389862 213.558823 
L 150.213593 219.624183 
L 154.372222 225.417682 
L 158.852441 230.916795 
L 163.639707 236.099735 
L 168.718255 240.945525 
L 174.071107 245.434093 
L 179.680103 249.54636 
L 185.525916 253.264325 
" clip-path="url(#p13ccc2b43e)" style="fill: none; stroke: #000000; stroke-opacity: 0.05; stroke-width: 1.5; stroke-linecap: square"/>
   </g>
   <g id="line2d_12">
    <path d="M 110.579362 143.377297 
L 110.149139 144.729307 
L 110.207953 146.090772 
L 110.76364 147.456299 
L 111.82208 148.820295 
L 113.387044 150.176997 
L 115.460043 151.520488 
L 118.040179 152.844729 
L 121.124019 154.14359 
L 124.705476 155.410885 
L 128.775706 156.640412 
L 133.32303 157.825996 
L 138.332883 158.961533 
L 143.787784 160.041035 
L 149.667339 161.058687 
L 155.948278 162.008889 
L 162.604524 162.886314 
L 169.607299 163.685956 
L 176.925264 164.403178 
L 184.524697 165.033762 
L 192.3697 165.573952 
L 200.422446 166.020497 
L 208.64345 166.370684 
L 216.991868 166.62237 
L 225.425815 166.774006 
L 233.902703 166.824656 
L 242.379591 166.774006 
L 250.813537 166.62237 
L 259.161955 166.370684 
L 267.382959 166.020497 
L 275.435706 165.573952 
L 283.280709 165.033762 
L 290.880141 164.403178 
L 298.198106 163.685956 
L 305.200881 162.886314 
L 311.857127 162.008889 
L 318.138066 161.058687 
L 324.017621 160.041035 
L 329.472522 158.961533 
L 334.482375 157.825996 
L 339.0297 156.640412 
L 343.099929 155.410885 
L 346.681386 154.14359 
L 349.765227 152.844729 
L 352.345363 151.520488 
L 354.418361 150.176997 
L 355.983326 148.820295 
L 357.041766 147.456299 
L 357.597452 146.090772 
L 357.656267 144.729307 
L 357.226043 143.377297 
L 356.316412 142.039925 
L 354.938637 140.722148 
L 353.105466 139.428687 
L 350.830972 138.164018 
L 348.13041 136.932374 
L 345.020078 135.737736 
L 341.517185 134.583835 
L 337.639731 133.474157 
L 333.406393 132.411942 
L 328.836419 131.400195 
L 323.949543 130.441685 
L 318.765892 129.538955 
L 313.305919 128.69433 
L 307.590337 127.909925 
L 301.640062 127.187648 
L 295.476165 126.529213 
L 289.119837 125.936145 
L 282.59235 125.409787 
L 275.915038 124.951308 
L 269.109269 124.561706 
L 262.196439 124.241819 
L 255.197955 123.992323 
L 248.135227 123.813741 
L 241.029672 123.706443 
L 233.902703 123.670653 
L 226.775733 123.706443 
L 219.670178 123.813741 
L 212.607451 123.992323 
L 205.608966 124.241819 
L 198.696136 124.561706 
L 191.890368 124.951308 
L 185.213055 125.409787 
L 178.685569 125.936145 
L 172.32924 126.529213 
L 166.165344 127.187648 
L 160.215068 127.909925 
L 154.499486 128.69433 
L 149.039514 129.538955 
L 143.855863 130.441685 
L 138.968986 131.400195 
L 134.399013 132.411942 
L 130.165674 133.474157 
L 126.28822 134.583835 
L 122.785328 135.737736 
L 119.674996 136.932374 
L 116.974433 138.164018 
L 114.699939 139.428687 
L 112.866768 140.722148 
L 111.488994 142.039925 
L 110.579362 143.377297 
" clip-path="url(#p13ccc2b43e)" style="fill: none; stroke: #ff0000; stroke-opacity: 0.2; stroke-width: 1.5; stroke-linecap: square"/>
   </g>
   <g id="line2d_13">
    <path d="M 148.654358 53.730175 
L 148.430827 54.618988 
L 148.626358 55.693956 
L 149.246511 56.953462 
L 150.295089 58.395008 
L 151.774018 60.015172 
L 153.683228 61.809584 
L 156.020554 63.772901 
L 158.781636 65.89879 
L 161.959841 68.179923 
L 165.546205 70.607976 
L 169.52938 73.173643 
L 173.895623 75.866663 
L 178.628789 78.675846 
L 183.710364 81.589129 
L 189.119515 84.593629 
L 194.833172 87.675711 
L 200.826141 90.821075 
L 207.071232 94.014845 
L 213.539433 97.241667 
L 220.200089 100.485826 
L 227.021122 103.731355 
L 233.969255 106.962163 
L 241.010269 110.162157 
L 248.109265 113.315371 
L 255.230935 116.406095 
L 262.339841 119.418993 
L 269.400701 122.339233 
L 276.378659 125.152594 
L 283.239559 127.845576 
L 289.950204 130.405494 
L 296.478598 132.820568 
L 302.794168 135.079997 
L 308.867973 137.174018 
L 314.672879 139.093959 
L 320.183712 140.832271 
L 325.377392 142.382554 
L 330.233025 143.739565 
L 334.731982 144.899216 
L 338.857942 145.85856 
L 342.596914 146.615766 
L 345.937238 147.170085 
L 348.869551 147.521811 
L 351.386753 147.672226 
L 353.483934 147.62355 
L 355.158302 147.37888 
L 356.40909 146.942124 
L 357.237452 146.317943 
L 357.646357 145.51168 
L 357.640473 144.529294 
L 357.226043 143.377297 
L 356.410773 142.062692 
L 355.203705 140.592907 
L 353.615099 138.975742 
L 351.65632 137.219308 
L 349.339726 135.331984 
L 346.678561 133.322361 
L 343.686856 131.199201 
L 340.379335 128.9714 
L 336.771327 126.647951 
L 332.878691 124.237908 
L 328.717738 121.750364 
L 324.305171 119.194423 
L 319.658022 116.579181 
L 314.793607 113.913706 
L 309.729475 111.207023 
L 304.483375 108.468106 
L 299.073219 105.705862 
L 293.517057 102.929128 
L 287.833054 100.14666 
L 282.039471 97.367135 
L 276.15465 94.599139 
L 270.197001 91.851174 
L 264.184997 89.131646 
L 258.137163 86.448872 
L 252.072069 83.811071 
L 246.00833 81.226367 
L 239.964597 78.702785 
L 233.95955 76.248246 
L 228.011898 73.870565 
L 222.140364 71.577443 
L 216.363677 69.376462 
L 210.700561 67.275074 
L 205.169716 65.280592 
L 199.789794 63.400176 
L 194.57938 61.640815 
L 189.556958 60.009314 
L 184.740873 58.51227 
L 180.149289 57.156048 
L 175.800145 55.946758 
L 171.711091 54.890221 
L 167.899428 53.991942 
L 164.382037 53.257071 
L 161.175301 52.690368 
L 158.295016 52.29616 
L 155.756299 52.078301 
L 153.573483 52.040126 
L 151.760014 52.184404 
L 150.328334 52.513292 
L 149.289758 53.028286 
L 148.654358 53.730175 
" clip-path="url(#p13ccc2b43e)" style="fill: none; stroke: #ff0000; stroke-width: 1.5; stroke-linecap: square"/>
   </g>
   <g id="line2d_14">
    <path d="M 357.226043 143.377297 
" clip-path="url(#p13ccc2b43e)" style="fill: none; stroke: #ff0000; stroke-width: 1.5; stroke-linecap: square"/>
    <defs>
     <path id="md0b84bffc5" d="M 0 3 
C 0.795609 3 1.55874 2.683901 2.12132 2.12132 
C 2.683901 1.55874 3 0.795609 3 0 
C 3 -0.795609 2.683901 -1.55874 2.12132 -2.12132 
C 1.55874 -2.683901 0.795609 -3 0 -3 
C -0.795609 -3 -1.55874 -2.683901 -2.12132 -2.12132 
C -2.683901 -1.55874 -3 -0.795609 -3 0 
C -3 0.795609 -2.683901 1.55874 -2.12132 2.12132 
C -1.55874 2.683901 -0.795609 3 0 3 
z
" style="stroke: #ff0000"/>
    </defs>
    <g clip-path="url(#p13ccc2b43e)">
     <use xlink:href="#md0b84bffc5" x="357.226043" y="143.377297" style="fill: #ff0000; stroke: #ff0000"/>
    </g>
   </g>
   <g id="line2d_15">
    <path d="M 202.39824 24.559421 
L 200.09232 24.506137 
L 197.896275 24.925116 
L 195.820744 25.822251 
L 193.876177 27.201534 
L 192.072774 29.064918 
L 190.4204 31.412184 
L 188.928513 34.240815 
L 187.606078 37.545877 
L 186.461484 41.319923 
L 185.502456 45.552907 
L 184.73597 50.232119 
L 184.168168 55.342142 
L 183.804277 60.864843 
L 183.648528 66.779377 
L 183.704089 73.062235 
L 183.972996 79.687319 
L 184.456098 86.626043 
L 185.153017 93.847478 
L 186.062108 101.318522 
L 187.180441 109.004103 
L 188.503797 116.867413 
L 190.026673 124.870169 
L 191.742305 132.972894 
L 193.64271 141.135225 
L 195.71873 149.316228 
L 197.960108 157.47473 
L 200.355563 165.569651 
L 202.89288 173.560342 
L 205.559017 181.406909 
L 208.340212 189.070535 
L 211.222103 196.513777 
L 214.18985 203.700853 
L 217.228259 210.597892 
L 220.321913 217.173171 
L 223.45529 223.397305 
L 226.612891 229.243417 
L 229.779353 234.687272 
L 232.939562 239.707372 
L 236.078754 244.28502 
L 239.182609 248.404356 
L 242.237334 252.052356 
L 245.229741 255.218801 
L 248.147304 257.896229 
L 250.978215 260.079851 
L 253.711425 261.767456 
L 256.336674 262.959294 
L 258.844514 263.657946 
L 261.226321 263.868186 
L 263.474299 263.596828 
L 265.581475 262.852575 
L 267.541691 261.645864 
L 269.349583 259.988707 
L 271.000565 257.89454 
L 272.490801 255.378071 
L 273.817175 252.455136 
L 274.977259 249.142565 
L 275.969286 245.458047 
L 276.792109 241.420013 
L 277.445169 237.047525 
L 277.928461 232.36017 
L 278.242503 227.377969 
L 278.388297 222.121297 
L 278.367303 216.610802 
L 278.181409 210.867349 
L 277.8329 204.911956 
L 277.324437 198.765752 
L 276.65903 192.449933 
L 275.840019 185.985729 
L 274.871053 179.394379 
L 273.756077 172.697106 
L 272.499316 165.915103 
L 271.105264 159.069523 
L 269.578672 152.181464 
L 267.924544 145.271968 
L 266.148131 138.362016 
L 264.254923 131.472525 
L 262.250655 124.624349 
L 260.141297 117.838271 
L 257.933063 111.135009 
L 255.632409 104.535205 
L 253.246035 98.059424 
L 250.78089 91.72814 
L 248.244176 85.56173 
L 245.643352 79.580454 
L 242.986136 73.804433 
L 240.280508 68.253626 
L 237.534715 62.947794 
L 234.757269 57.906461 
L 231.956948 53.14887 
L 229.142793 48.693929 
L 226.324105 44.560146 
L 223.510433 40.765559 
L 220.711567 37.327661 
L 217.937522 34.263308 
L 215.198523 31.588623 
L 212.504976 29.318895 
L 209.867445 27.468458 
L 207.29662 26.050578 
L 204.803278 25.077322 
L 202.39824 24.559421 
" clip-path="url(#p13ccc2b43e)" style="fill: none; stroke: #0000ff; stroke-opacity: 0.2; stroke-width: 1.5; stroke-linecap: square"/>
   </g>
   <g id="line2d_16">
    <path d="M 233.902703 143.377297 
L 350.802845 111.210864 
" clip-path="url(#p13ccc2b43e)" style="fill: none; stroke: #0000ff; stroke-opacity: 0.2; stroke-width: 1.5; stroke-linecap: square"/>
   </g>
   <g id="line2d_17">
    <path d="M 177.994829 33.239463 
L 177.932153 33.896054 
L 178.219996 34.706984 
L 178.861625 35.670881 
L 179.858826 36.785669 
L 181.211828 38.048534 
L 182.919223 39.455916 
L 184.977905 41.00349 
L 187.383012 42.686157 
L 190.127884 44.498047 
L 193.204031 46.432522 
L 196.601116 48.482189 
L 200.306956 50.638919 
L 204.307537 52.893878 
L 208.587052 55.237558 
L 213.127951 57.659827 
L 217.911015 60.149979 
L 222.915448 62.696793 
L 228.118986 65.288601 
L 233.498027 67.913361 
L 239.027773 70.558736 
L 244.682393 73.21218 
L 250.435195 75.861021 
L 256.25881 78.492558 
L 262.125388 81.094148 
L 268.006797 83.653299 
L 273.874824 86.157761 
L 279.701386 88.595615 
L 285.458723 90.955356 
L 291.119604 93.225972 
L 296.657509 95.397022 
L 302.046815 97.458699 
L 307.262957 99.401891 
L 312.282587 101.218231 
L 317.083704 102.900145 
L 321.64578 104.440878 
L 325.949858 105.834524 
L 329.978638 107.076045 
L 333.716539 108.161269 
L 337.149744 109.086901 
L 340.266234 109.850506 
L 343.055793 110.450496 
L 345.510002 110.886111 
L 347.622226 111.157388 
L 349.387571 111.265129 
L 350.802845 111.210864 
L 351.8665 110.996814 
L 352.578563 110.625845 
L 352.940569 110.101424 
L 352.95548 109.427577 
L 352.627604 108.608838 
L 351.96251 107.650208 
L 350.966939 106.557108 
L 349.648722 105.335334 
L 348.016691 103.991018 
L 346.080596 102.530583 
L 343.851025 100.960711 
L 341.33932 99.2883 
L 338.557511 97.520435 
L 335.51824 95.664356 
L 332.234695 93.727431 
L 328.720552 91.717124 
L 324.989915 89.640979 
L 321.057268 87.506595 
L 316.937424 85.321607 
L 312.645483 83.093671 
L 308.196796 80.830448 
L 303.606931 78.53959 
L 298.891638 76.228731 
L 294.066826 73.905475 
L 289.14854 71.577389 
L 284.152934 69.251993 
L 279.096261 66.936755 
L 273.994846 64.639083 
L 268.865078 62.366318 
L 263.723391 60.125733 
L 258.586253 57.924519 
L 253.470149 55.769785 
L 248.391567 53.668549 
L 243.366985 51.627731 
L 238.412852 49.654141 
L 233.545571 47.754476 
L 228.781475 45.935304 
L 224.13681 44.203053 
L 219.627701 42.564002 
L 215.270131 41.024257 
L 211.079897 39.589745 
L 207.072581 38.266184 
L 203.263504 37.059072 
L 199.667681 35.97366 
L 196.299765 35.014927 
L 193.173997 34.187555 
L 190.304136 33.495903 
L 187.703402 32.943973 
L 185.384397 32.535382 
L 183.35903 32.273328 
L 181.638441 32.160557 
L 180.232913 32.199328 
L 179.151784 32.39138 
L 178.403362 32.737894 
L 177.994829 33.239463 
" clip-path="url(#p13ccc2b43e)" style="fill: none; stroke: #0000ff; stroke-width: 1.5; stroke-linecap: square"/>
   </g>
   <g id="line2d_18">
    <path d="M 350.802845 111.210864 
" clip-path="url(#p13ccc2b43e)" style="fill: none; stroke: #0000ff; stroke-width: 1.5; stroke-linecap: square"/>
    <defs>
     <path id="mf2b73b6e19" d="M -3 3 
L 3 -3 
M -3 -3 
L 3 3 
" style="stroke: #0000ff"/>
    </defs>
    <g clip-path="url(#p13ccc2b43e)">
     <use xlink:href="#mf2b73b6e19" x="350.802845" y="111.210864" style="fill: #0000ff; stroke: #0000ff"/>
    </g>
   </g>
   <g id="text_1">
    <!-- +90° -->
    <g transform="translate(270.603246 33.123856) scale(0.1 -0.1)">
     <defs>
      <path id="DejaVuSans-2b" d="M 2944 4013 
L 2944 2272 
L 4684 2272 
L 4684 1741 
L 2944 1741 
L 2944 0 
L 2419 0 
L 2419 1741 
L 678 1741 
L 678 2272 
L 2419 2272 
L 2419 4013 
L 2944 4013 
z
" transform="scale(0.015625)"/>
      <path id="DejaVuSans-39" d="M 703 97 
L 703 672 
Q 941 559 1184 500 
Q 1428 441 1663 441 
Q 2288 441 2617 861 
Q 2947 1281 2994 2138 
Q 2813 1869 2534 1725 
Q 2256 1581 1919 1581 
Q 1219 1581 811 2004 
Q 403 2428 403 3163 
Q 403 3881 828 4315 
Q 1253 4750 1959 4750 
Q 2769 4750 3195 4129 
Q 3622 3509 3622 2328 
Q 3622 1225 3098 567 
Q 2575 -91 1691 -91 
Q 1453 -91 1209 -44 
Q 966 3 703 97 
z
M 1959 2075 
Q 2384 2075 2632 2365 
Q 2881 2656 2881 3163 
Q 2881 3666 2632 3958 
Q 2384 4250 1959 4250 
Q 1534 4250 1286 3958 
Q 1038 3666 1038 3163 
Q 1038 2656 1286 2365 
Q 1534 2075 1959 2075 
z
" transform="scale(0.015625)"/>
      <path id="DejaVuSans-30" d="M 2034 4250 
Q 1547 4250 1301 3770 
Q 1056 3291 1056 2328 
Q 1056 1369 1301 889 
Q 1547 409 2034 409 
Q 2525 409 2770 889 
Q 3016 1369 3016 2328 
Q 3016 3291 2770 3770 
Q 2525 4250 2034 4250 
z
M 2034 4750 
Q 2819 4750 3233 4129 
Q 3647 3509 3647 2328 
Q 3647 1150 3233 529 
Q 2819 -91 2034 -91 
Q 1250 -91 836 529 
Q 422 1150 422 2328 
Q 422 3509 836 4129 
Q 1250 4750 2034 4750 
z
" transform="scale(0.015625)"/>
      <path id="DejaVuSans-b0" d="M 1600 4347 
Q 1350 4347 1178 4173 
Q 1006 4000 1006 3750 
Q 1006 3503 1178 3333 
Q 1350 3163 1600 3163 
Q 1850 3163 2022 3333 
Q 2194 3503 2194 3750 
Q 2194 3997 2020 4172 
Q 1847 4347 1600 4347 
z
M 1600 4750 
Q 1800 4750 1984 4673 
Q 2169 4597 2303 4453 
Q 2447 4313 2519 4134 
Q 2591 3956 2591 3750 
Q 2591 3338 2302 3052 
Q 2013 2766 1594 2766 
Q 1172 2766 890 3047 
Q 609 3328 609 3750 
Q 609 4169 896 4459 
Q 1184 4750 1600 4750 
z
" transform="scale(0.015625)"/>
     </defs>
     <use xlink:href="#DejaVuSans-2b"/>
     <use xlink:href="#DejaVuSans-39" x="83.789062"/>
     <use xlink:href="#DejaVuSans-30" x="147.412109"/>
     <use xlink:href="#DejaVuSans-b0" x="211.035156"/>
    </g>
   </g>
   <g id="text_2">
    <!-- −90° -->
    <g transform="translate(172.473573 256.0237) scale(0.1 -0.1)">
     <defs>
      <path id="DejaVuSans-2212" d="M 678 2272 
L 4684 2272 
L 4684 1741 
L 678 1741 
L 678 2272 
z
" transform="scale(0.015625)"/>
     </defs>
     <use xlink:href="#DejaVuSans-2212"/>
     <use xlink:href="#DejaVuSans-39" x="83.789062"/>
     <use xlink:href="#DejaVuSans-30" x="147.412109"/>
     <use xlink:href="#DejaVuSans-b0" x="211.035156"/>
    </g>
   </g>
   <g id="text_3">
    <!-- 0h -->
    <g transform="translate(227.552703 169.584031) scale(0.1 -0.1)">
     <defs>
      <path id="DejaVuSans-68" d="M 3513 2113 
L 3513 0 
L 2938 0 
L 2938 2094 
Q 2938 2591 2744 2837 
Q 2550 3084 2163 3084 
Q 1697 3084 1428 2787 
Q 1159 2491 1159 1978 
L 1159 0 
L 581 0 
L 581 4863 
L 1159 4863 
L 1159 2956 
Q 1366 3272 1645 3428 
Q 1925 3584 2291 3584 
Q 2894 3584 3203 3211 
Q 3513 2838 3513 2113 
z
" transform="scale(0.015625)"/>
     </defs>
     <use xlink:href="#DejaVuSans-30"/>
     <use xlink:href="#DejaVuSans-68" x="63.623047"/>
    </g>
   </g>
   <g id="text_4">
    <!-- 6h -->
    <g transform="translate(340.015906 194.15466) scale(0.1 -0.1)">
     <defs>
      <path id="DejaVuSans-36" d="M 2113 2584 
Q 1688 2584 1439 2293 
Q 1191 2003 1191 1497 
Q 1191 994 1439 701 
Q 1688 409 2113 409 
Q 2538 409 2786 701 
Q 3034 994 3034 1497 
Q 3034 2003 2786 2293 
Q 2538 2584 2113 2584 
z
M 3366 4563 
L 3366 3988 
Q 3128 4100 2886 4159 
Q 2644 4219 2406 4219 
Q 1781 4219 1451 3797 
Q 1122 3375 1075 2522 
Q 1259 2794 1537 2939 
Q 1816 3084 2150 3084 
Q 2853 3084 3261 2657 
Q 3669 2231 3669 1497 
Q 3669 778 3244 343 
Q 2819 -91 2113 -91 
Q 1303 -91 875 529 
Q 447 1150 447 2328 
Q 447 3434 972 4092 
Q 1497 4750 2381 4750 
Q 2619 4750 2861 4703 
Q 3103 4656 3366 4563 
z
" transform="scale(0.015625)"/>
     </defs>
     <use xlink:href="#DejaVuSans-36"/>
     <use xlink:href="#DejaVuSans-68" x="63.623047"/>
    </g>
   </g>
   <g id="text_5">
    <!-- 12h -->
    <g transform="translate(224.371453 126.430028) scale(0.1 -0.1)">
     <defs>
      <path id="DejaVuSans-31" d="M 794 531 
L 1825 531 
L 1825 4091 
L 703 3866 
L 703 4441 
L 1819 4666 
L 2450 4666 
L 2450 531 
L 3481 531 
L 3481 0 
L 794 0 
L 794 531 
z
" transform="scale(0.015625)"/>
      <path id="DejaVuSans-32" d="M 1228 531 
L 3431 531 
L 3431 0 
L 469 0 
L 469 531 
Q 828 903 1448 1529 
Q 2069 2156 2228 2338 
Q 2531 2678 2651 2914 
Q 2772 3150 2772 3378 
Q 2772 3750 2511 3984 
Q 2250 4219 1831 4219 
Q 1534 4219 1204 4116 
Q 875 4013 500 3803 
L 500 4441 
Q 881 4594 1212 4672 
Q 1544 4750 1819 4750 
Q 2544 4750 2975 4387 
Q 3406 4025 3406 3419 
Q 3406 3131 3298 2873 
Q 3191 2616 2906 2266 
Q 2828 2175 2409 1742 
Q 1991 1309 1228 531 
z
" transform="scale(0.015625)"/>
     </defs>
     <use xlink:href="#DejaVuSans-31"/>
     <use xlink:href="#DejaVuSans-32" x="63.623047"/>
     <use xlink:href="#DejaVuSans-68" x="127.246094"/>
    </g>
   </g>
   <g id="text_6">
    <!-- 18h -->
    <g transform="translate(110.532368 97.53123) scale(0.1 -0.1)">
     <defs>
      <path id="DejaVuSans-38" d="M 2034 2216 
Q 1584 2216 1326 1975 
Q 1069 1734 1069 1313 
Q 1069 891 1326 650 
Q 1584 409 2034 409 
Q 2484 409 2743 651 
Q 3003 894 3003 1313 
Q 3003 1734 2745 1975 
Q 2488 2216 2034 2216 
z
M 1403 2484 
Q 997 2584 770 2862 
Q 544 3141 544 3541 
Q 544 4100 942 4425 
Q 1341 4750 2034 4750 
Q 2731 4750 3128 4425 
Q 3525 4100 3525 3541 
Q 3525 3141 3298 2862 
Q 3072 2584 2669 2484 
Q 3125 2378 3379 2068 
Q 3634 1759 3634 1313 
Q 3634 634 3220 271 
Q 2806 -91 2034 -91 
Q 1263 -91 848 271 
Q 434 634 434 1313 
Q 434 1759 690 2068 
Q 947 2378 1403 2484 
z
M 1172 3481 
Q 1172 3119 1398 2916 
Q 1625 2713 2034 2713 
Q 2441 2713 2670 2916 
Q 2900 3119 2900 3481 
Q 2900 3844 2670 4047 
Q 2441 4250 2034 4250 
Q 1625 4250 1398 4047 
Q 1172 3844 1172 3481 
z
" transform="scale(0.015625)"/>
     </defs>
     <use xlink:href="#DejaVuSans-31"/>
     <use xlink:href="#DejaVuSans-38" x="63.623047"/>
     <use xlink:href="#DejaVuSans-68" x="127.246094"/>
    </g>
   </g>
   <g id="text_7">
    <!-- N -->
    <g transform="translate(198.657615 27.318796) scale(0.1 -0.1)">
     <defs>
      <path id="DejaVuSans-4e" d="M 628 4666 
L 1478 4666 
L 3547 763 
L 3547 4666 
L 4159 4666 
L 4159 0 
L 3309 0 
L 1241 3903 
L 1241 0 
L 628 0 
L 628 4666 
z
" transform="scale(0.015625)"/>
     </defs>
     <use xlink:href="#DejaVuSans-4e"/>
    </g>
   </g>
   <g id="text_8">
    <!-- E -->
    <g transform="translate(262.988756 141.121391) scale(0.1 -0.1)">
     <defs>
      <path id="DejaVuSans-45" d="M 628 4666 
L 3578 4666 
L 3578 4134 
L 1259 4134 
L 1259 2753 
L 3481 2753 
L 3481 2222 
L 1259 2222 
L 1259 531 
L 3634 531 
L 3634 0 
L 628 0 
L 628 4666 
z
" transform="scale(0.015625)"/>
     </defs>
     <use xlink:href="#DejaVuSans-45"/>
    </g>
   </g>
   <g id="text_9">
    <!-- S -->
    <g transform="translate(262.407256 265.61195) scale(0.1 -0.1)">
     <defs>
      <path id="DejaVuSans-53" d="M 3425 4513 
L 3425 3897 
Q 3066 4069 2747 4153 
Q 2428 4238 2131 4238 
Q 1616 4238 1336 4038 
Q 1056 3838 1056 3469 
Q 1056 3159 1242 3001 
Q 1428 2844 1947 2747 
L 2328 2669 
Q 3034 2534 3370 2195 
Q 3706 1856 3706 1288 
Q 3706 609 3251 259 
Q 2797 -91 1919 -91 
Q 1588 -91 1214 -16 
Q 841 59 441 206 
L 441 856 
Q 825 641 1194 531 
Q 1563 422 1919 422 
Q 2459 422 2753 634 
Q 3047 847 3047 1241 
Q 3047 1584 2836 1778 
Q 2625 1972 2144 2069 
L 1759 2144 
Q 1053 2284 737 2584 
Q 422 2884 422 3419 
Q 422 4038 858 4394 
Q 1294 4750 2059 4750 
Q 2388 4750 2728 4690 
Q 3069 4631 3425 4513 
z
" transform="scale(0.015625)"/>
     </defs>
     <use xlink:href="#DejaVuSans-53"/>
    </g>
   </g>
   <g id="text_10">
    <!-- W -->
    <g transform="translate(190.77498 152.075603) scale(0.1 -0.1)">
     <defs>
      <path id="DejaVuSans-57" d="M 213 4666 
L 850 4666 
L 1831 722 
L 2809 4666 
L 3519 4666 
L 4500 722 
L 5478 4666 
L 6119 4666 
L 4947 0 
L 4153 0 
L 3169 4050 
L 2175 0 
L 1381 0 
L 213 4666 
z
" transform="scale(0.015625)"/>
     </defs>
     <use xlink:href="#DejaVuSans-57"/>
    </g>
   </g>
   <g id="text_11">
    <!-- view: ecliptic (press 1 to cycle) -->
    <g transform="translate(9.216 14.510437) scale(0.1 -0.1)">
     <defs>
      <path id="DejaVuSans-76" d="M 191 3500 
L 800 3500 
L 1894 563 
L 2988 3500 
L 3597 3500 
L 2284 0 
L 1503 0 
L 191 3500 
z
" transform="scale(0.015625)"/>
      <path id="DejaVuSans-69" d="M 603 3500 
L 1178 3500 
L 1178 0 
L 603 0 
L 603 3500 
z
M 603 4863 
L 1178 4863 
L 1178 4134 
L 603 4134 
L 603 4863 
z
" transform="scale(0.015625)"/>
      <path id="DejaVuSans-65" d="M 3597 1894 
L 3597 1613 
L 953 1613 
Q 991 1019 1311 708 
Q 1631 397 2203 397 
Q 2534 397 2845 478 
Q 3156 559 3463 722 
L 3463 178 
Q 3153 47 2828 -22 
Q 2503 -91 2169 -91 
Q 1331 -91 842 396 
Q 353 884 353 1716 
Q 353 2575 817 3079 
Q 1281 3584 2069 3584 
Q 2775 3584 3186 3129 
Q 3597 2675 3597 1894 
z
M 3022 2063 
Q 3016 2534 2758 2815 
Q 2500 3097 2075 3097 
Q 1594 3097 1305 2825 
Q 1016 2553 972 2059 
L 3022 2063 
z
" transform="scale(0.015625)"/>
      <path id="DejaVuSans-77" d="M 269 3500 
L 844 3500 
L 1563 769 
L 2278 3500 
L 2956 3500 
L 3675 769 
L 4391 3500 
L 4966 3500 
L 4050 0 
L 3372 0 
L 2619 2869 
L 1863 0 
L 1184 0 
L 269 3500 
z
" transform="scale(0.015625)"/>
      <path id="DejaVuSans-3a" d="M 750 794 
L 1409 794 
L 1409 0 
L 750 0 
L 750 794 
z
M 750 3309 
L 1409 3309 
L 1409 2516 
L 750 2516 
L 750 3309 
z
" transform="scale(0.015625)"/>
      <path id="DejaVuSans-20" transform="scale(0.015625)"/>
      <path id="DejaVuSans-63" d="M 3122 3366 
L 3122 2828 
Q 2878 2963 2633 3030 
Q 2388 3097 2138 3097 
Q 1578 3097 1268 2742 
Q 959 2388 959 1747 
Q 959 1106 1268 751 
Q 1578 397 2138 397 
Q 2388 397 2633 464 
Q 2878 531 3122 666 
L 3122 134 
Q 2881 22 2623 -34 
Q 2366 -91 2075 -91 
Q 1284 -91 818 406 
Q 353 903 353 1747 
Q 353 2603 823 3093 
Q 1294 3584 2113 3584 
Q 2378 3584 2631 3529 
Q 2884 3475 3122 3366 
z
" transform="scale(0.015625)"/>
      <path id="DejaVuSans-6c" d="M 603 4863 
L 1178 4863 
L 1178 0 
L 603 0 
L 603 4863 
z
" transform="scale(0.015625)"/>
      <path id="DejaVuSans-70" d="M 1159 525 
L 1159 -1331 
L 581 -1331 
L 581 3500 
L 1159 3500 
L 1159 2969 
Q 1341 3281 1617 3432 
Q 1894 3584 2278 3584 
Q 2916 3584 3314 3078 
Q 3713 2572 3713 1747 
Q 3713 922 3314 415 
Q 2916 -91 2278 -91 
Q 1894 -91 1617 61 
Q 1341 213 1159 525 
z
M 3116 1747 
Q 3116 2381 2855 2742 
Q 2594 3103 2138 3103 
Q 1681 3103 1420 2742 
Q 1159 2381 1159 1747 
Q 1159 1113 1420 752 
Q 1681 391 2138 391 
Q 2594 391 2855 752 
Q 3116 1113 3116 1747 
z
" transform="scale(0.015625)"/>
      <path id="DejaVuSans-74" d="M 1172 4494 
L 1172 3500 
L 2356 3500 
L 2356 3053 
L 1172 3053 
L 1172 1153 
Q 1172 725 1289 603 
Q 1406 481 1766 481 
L 2356 481 
L 2356 0 
L 1766 0 
Q 1100 0 847 248 
Q 594 497 594 1153 
L 594 3053 
L 172 3053 
L 172 3500 
L 594 3500 
L 594 4494 
L 1172 4494 
z
" transform="scale(0.015625)"/>
      <path id="DejaVuSans-28" d="M 1984 4856 
Q 1566 4138 1362 3434 
Q 1159 2731 1159 2009 
Q 1159 1288 1364 580 
Q 1569 -128 1984 -844 
L 1484 -844 
Q 1016 -109 783 600 
Q 550 1309 550 2009 
Q 550 2706 781 3412 
Q 1013 4119 1484 4856 
L 1984 4856 
z
" transform="scale(0.015625)"/>
      <path id="DejaVuSans-72" d="M 2631 2963 
Q 2534 3019 2420 3045 
Q 2306 3072 2169 3072 
Q 1681 3072 1420 2755 
Q 1159 2438 1159 1844 
L 1159 0 
L 581 0 
L 581 3500 
L 1159 3500 
L 1159 2956 
Q 1341 3275 1631 3429 
Q 1922 3584 2338 3584 
Q 2397 3584 2469 3576 
Q 2541 3569 2628 3553 
L 2631 2963 
z
" transform="scale(0.015625)"/>
      <path id="DejaVuSans-73" d="M 2834 3397 
L 2834 2853 
Q 2591 2978 2328 3040 
Q 2066 3103 1784 3103 
Q 1356 3103 1142 2972 
Q 928 2841 928 2578 
Q 928 2378 1081 2264 
Q 1234 2150 1697 2047 
L 1894 2003 
Q 2506 1872 2764 1633 
Q 3022 1394 3022 966 
Q 3022 478 2636 193 
Q 2250 -91 1575 -91 
Q 1294 -91 989 -36 
Q 684 19 347 128 
L 347 722 
Q 666 556 975 473 
Q 1284 391 1588 391 
Q 1994 391 2212 530 
Q 2431 669 2431 922 
Q 2431 1156 2273 1281 
Q 2116 1406 1581 1522 
L 1381 1569 
Q 847 1681 609 1914 
Q 372 2147 372 2553 
Q 372 3047 722 3315 
Q 1072 3584 1716 3584 
Q 2034 3584 2315 3537 
Q 2597 3491 2834 3397 
z
" transform="scale(0.015625)"/>
      <path id="DejaVuSans-6f" d="M 1959 3097 
Q 1497 3097 1228 2736 
Q 959 2375 959 1747 
Q 959 1119 1226 758 
Q 1494 397 1959 397 
Q 2419 397 2687 759 
Q 2956 1122 2956 1747 
Q 2956 2369 2687 2733 
Q 2419 3097 1959 3097 
z
M 1959 3584 
Q 2709 3584 3137 3096 
Q 3566 2609 3566 1747 
Q 3566 888 3137 398 
Q 2709 -91 1959 -91 
Q 1206 -91 779 398 
Q 353 888 353 1747 
Q 353 2609 779 3096 
Q 1206 3584 1959 3584 
z
" transform="scale(0.015625)"/>
      <path id="DejaVuSans-79" d="M 2059 -325 
Q 1816 -950 1584 -1140 
Q 1353 -1331 966 -1331 
L 506 -1331 
L 506 -850 
L 844 -850 
Q 1081 -850 1212 -737 
Q 1344 -625 1503 -206 
L 1606 56 
L 191 3500 
L 800 3500 
L 1894 763 
L 2988 3500 
L 3597 3500 
L 2059 -325 
z
" transform="scale(0.015625)"/>
      <path id="DejaVuSans-29" d="M 513 4856 
L 1013 4856 
Q 1481 4119 1714 3412 
Q 1947 2706 1947 2009 
Q 1947 1309 1714 600 
Q 1481 -109 1013 -844 
L 513 -844 
Q 928 -128 1133 580 
Q 1338 1288 1338 2009 
Q 1338 2731 1133 3434 
Q 928 4138 513 4856 
z
" transform="scale(0.015625)"/>
     </defs>
     <use xlink:href="#DejaVuSans-76"/>
     <use xlink:href="#DejaVuSans-69" x="59.179688"/>
     <use xlink:href="#DejaVuSans-65" x="86.962891"/>
     <use xlink:href="#DejaVuSans-77" x="148.486328"/>
     <use xlink:href="#DejaVuSans-3a" x="224.773438"/>
     <use xlink:href="#DejaVuSans-20" x="258.464844"/>
     <use xlink:href="#DejaVuSans-65" x="290.251953"/>
     <use xlink:href="#DejaVuSans-63" x="351.775391"/>
     <use xlink:href="#DejaVuSans-6c" x="406.755859"/>
     <use xlink:href="#DejaVuSans-69" x="434.539062"/>
     <use xlink:href="#DejaVuSans-70" x="462.322266"/>
     <use xlink:href="#DejaVuSans-74" x="525.798828"/>
     <use xlink:href="#DejaVuSans-69" x="565.007812"/>
     <use xlink:href="#DejaVuSans-63" x="592.791016"/>
     <use xlink:href="#DejaVuSans-20" x="647.771484"/>
     <use xlink:href="#DejaVuSans-28" x="679.558594"/>
     <use xlink:href="#DejaVuSans-70" x="718.572266"/>
     <use xlink:href="#DejaVuSans-72" x="782.048828"/>
     <use xlink:href="#DejaVuSans-65" x="820.912109"/>
     <use xlink:href="#DejaVuSans-73" x="882.435547"/>
     <use xlink:href="#DejaVuSans-73" x="934.535156"/>
     <use xlink:href="#DejaVuSans-20" x="986.634766"/>
     <use xlink:href="#DejaVuSans-31" x="1018.421875"/>
     <use xlink:href="#DejaVuSans-20" x="1082.044922"/>
     <use xlink:href="#DejaVuSans-74" x="1113.832031"/>
     <use xlink:href="#DejaVuSans-6f" x="1153.041016"/>
     <use xlink:href="#DejaVuSans-20" x="1214.222656"/>
     <use xlink:href="#DejaVuSans-63" x="1246.009766"/>
     <use xlink:href="#DejaVuSans-79" x="1300.990234"/>
     <use xlink:href="#DejaVuSans-63" x="1360.169922"/>
     <use xlink:href="#DejaVuSans-6c" x="1415.150391"/>
     <use xlink:href="#DejaVuSans-65" x="1442.933594"/>
     <use xlink:href="#DejaVuSans-29" x="1504.457031"/>
    </g>
    <!-- day: sidereal (press 2 to cycle) -->
    <g transform="translate(9.216 25.70825) scale(0.1 -0.1)">
     <defs>
      <path id="DejaVuSans-64" d="M 2906 2969 
L 2906 4863 
L 3481 4863 
L 3481 0 
L 2906 0 
L 2906 525 
Q 2725 213 2448 61 
Q 2172 -91 1784 -91 
Q 1150 -91 751 415 
Q 353 922 353 1747 
Q 353 2572 751 3078 
Q 1150 3584 1784 3584 
Q 2172 3584 2448 3432 
Q 2725 3281 2906 2969 
z
M 947 1747 
Q 947 1113 1208 752 
Q 1469 391 1925 391 
Q 2381 391 2643 752 
Q 2906 1113 2906 1747 
Q 2906 2381 2643 2742 
Q 2381 3103 1925 3103 
Q 1469 3103 1208 2742 
Q 947 2381 947 1747 
z
" transform="scale(0.015625)"/>
      <path id="DejaVuSans-61" d="M 2194 1759 
Q 1497 1759 1228 1600 
Q 959 1441 959 1056 
Q 959 750 1161 570 
Q 1363 391 1709 391 
Q 2188 391 2477 730 
Q 2766 1069 2766 1631 
L 2766 1759 
L 2194 1759 
z
M 3341 1997 
L 3341 0 
L 2766 0 
L 2766 531 
Q 2569 213 2275 61 
Q 1981 -91 1556 -91 
Q 1019 -91 701 211 
Q 384 513 384 1019 
Q 384 1609 779 1909 
Q 1175 2209 1959 2209 
L 2766 2209 
L 2766 2266 
Q 2766 2663 2505 2880 
Q 2244 3097 1772 3097 
Q 1472 3097 1187 3025 
Q 903 2953 641 2809 
L 641 3341 
Q 956 3463 1253 3523 
Q 1550 3584 1831 3584 
Q 2591 3584 2966 3190 
Q 3341 2797 3341 1997 
z
" transform="scale(0.015625)"/>
     </defs>
     <use xlink:href="#DejaVuSans-64"/>
     <use xlink:href="#DejaVuSans-61" x="63.476562"/>
     <use xlink:href="#DejaVuSans-79" x="124.755859"/>
     <use xlink:href="#DejaVuSans-3a" x="176.685547"/>
     <use xlink:href="#DejaVuSans-20" x="210.376953"/>
     <use xlink:href="#DejaVuSans-73" x="242.164062"/>
     <use xlink:href="#DejaVuSans-69" x="294.263672"/>
     <use xlink:href="#DejaVuSans-64" x="322.046875"/>
     <use xlink:href="#DejaVuSans-65" x="385.523438"/>
     <use xlink:href="#DejaVuSans-72" x="447.046875"/>
     <use xlink:href="#DejaVuSans-65" x="485.910156"/>
     <use xlink:href="#DejaVuSans-61" x="547.433594"/>
     <use xlink:href="#DejaVuSans-6c" x="608.712891"/>
     <use xlink:href="#DejaVuSans-20" x="636.496094"/>
     <use xlink:href="#DejaVuSans-28" x="668.283203"/>
     <use xlink:href="#DejaVuSans-70" x="707.296875"/>
     <use xlink:href="#DejaVuSans-72" x="770.773438"/>
     <use xlink:href="#DejaVuSans-65" x="809.636719"/>
     <use xlink:href="#DejaVuSans-73" x="871.160156"/>
     <use xlink:href="#DejaVuSans-73" x="923.259766"/>
     <use xlink:href="#DejaVuSans-20" x="975.359375"/>
     <use xlink:href="#DejaVuSans-32" x="1007.146484"/>
     <use xlink:href="#DejaVuSans-20" x="1070.769531"/>
     <use xlink:href="#DejaVuSans-74" x="1102.556641"/>
     <use xlink:href="#DejaVuSans-6f" x="1141.765625"/>
     <use xlink:href="#DejaVuSans-20" x="1202.947266"/>
     <use xlink:href="#DejaVuSans-63" x="1234.734375"/>
     <use xlink:href="#DejaVuSans-79" x="1289.714844"/>
     <use xlink:href="#DejaVuSans-63" x="1348.894531"/>
     <use xlink:href="#DejaVuSans-6c" x="1403.875"/>
     <use xlink:href="#DejaVuSans-65" x="1431.658203"/>
     <use xlink:href="#DejaVuSans-29" x="1493.181641"/>
    </g>
   </g>
  </g>
  <g id="axes_2">
   <g id="patch_3">
    <path d="M 57.6 306.72 
L 172.8 306.72 
L 172.8 298.08 
L 57.6 298.08 
z
" clip-path="url(#p589b9db272)" style="fill: #d3d3d3"/>
   </g>
   <g id="patch_4">
    <path d="M 57.6 306.72 
L 57.6 298.08 
L 72.60114 298.08 
L 72.60114 306.72 
z
" clip-path="url(#p589b9db272)" style="fill: #1f77b4"/>
   </g>
   <g id="line2d_19">
    <path d="M 72.60114 311.04 
L 72.60114 293.76 
" clip-path="url(#p7eb5d11032)" style="fill: none; stroke: #ff0000; stroke-linecap: square"/>
   </g>
   <g id="line2d_20">
    <defs>
     <path id="m845d7b4ec7" d="M 0 5 
C 1.326016 5 2.597899 4.473168 3.535534 3.535534 
C 4.473168 2.597899 5 1.326016 5 0 
C 5 -1.326016 4.473168 -2.597899 3.535534 -3.535534 
C 2.597899 -4.473168 1.326016 -5 0 -5 
C -1.326016 -5 -2.597899 -4.473168 -3.535534 -3.535534 
C -4.473168 -2.597899 -5 -1.326016 -5 0 
C -5 1.326016 -4.473168 2.597899 -3.535534 3.535534 
C -2.597899 4.473168 -1.326016 5 0 5 
z
" style="stroke: #bfbfbf"/>
    </defs>
    <g>
     <use xlink:href="#m845d7b4ec7" x="72.60114" y="302.4" style="fill: #ffffff; stroke: #bfbfbf"/>
    </g>
   </g>
   <g id="text_12">
    <!-- obliquity -->
    <g transform="translate(11.969437 305.159375) scale(0.1 -0.1)">
     <defs>
      <path id="DejaVuSans-62" d="M 3116 1747 
Q 3116 2381 2855 2742 
Q 2594 3103 2138 3103 
Q 1681 3103 1420 2742 
Q 1159 2381 1159 1747 
Q 1159 1113 1420 752 
Q 1681 391 2138 391 
Q 2594 391 2855 752 
Q 3116 1113 3116 1747 
z
M 1159 2969 
Q 1341 3281 1617 3432 
Q 1894 3584 2278 3584 
Q 2916 3584 3314 3078 
Q 3713 2572 3713 1747 
Q 3713 922 3314 415 
Q 2916 -91 2278 -91 
Q 1894 -91 1617 61 
Q 1341 213 1159 525 
L 1159 0 
L 581 0 
L 581 4863 
L 1159 4863 
L 1159 2969 
z
" transform="scale(0.015625)"/>
      <path id="DejaVuSans-71" d="M 947 1747 
Q 947 1113 1208 752 
Q 1469 391 1925 391 
Q 2381 391 2643 752 
Q 2906 1113 2906 1747 
Q 2906 2381 2643 2742 
Q 2381 3103 1925 3103 
Q 1469 3103 1208 2742 
Q 947 2381 947 1747 
z
M 2906 525 
Q 2725 213 2448 61 
Q 2172 -91 1784 -91 
Q 1150 -91 751 415 
Q 353 922 353 1747 
Q 353 2572 751 3078 
Q 1150 3584 1784 3584 
Q 2172 3584 2448 3432 
Q 2725 3281 2906 2969 
L 2906 3500 
L 3481 3500 
L 3481 -1331 
L 2906 -1331 
L 2906 525 
z
" transform="scale(0.015625)"/>
      <path id="DejaVuSans-75" d="M 544 1381 
L 544 3500 
L 1119 3500 
L 1119 1403 
Q 1119 906 1312 657 
Q 1506 409 1894 409 
Q 2359 409 2629 706 
Q 2900 1003 2900 1516 
L 2900 3500 
L 3475 3500 
L 3475 0 
L 2900 0 
L 2900 538 
Q 2691 219 2414 64 
Q 2138 -91 1772 -91 
Q 1169 -91 856 284 
Q 544 659 544 1381 
z
M 1991 3584 
L 1991 3584 
z
" transform="scale(0.015625)"/>
     </defs>
     <use xlink:href="#DejaVuSans-6f"/>
     <use xlink:href="#DejaVuSans-62" x="61.181641"/>
     <use xlink:href="#DejaVuSans-6c" x="124.658203"/>
     <use xlink:href="#DejaVuSans-69" x="152.441406"/>
     <use xlink:href="#DejaVuSans-71" x="180.224609"/>
     <use xlink:href="#DejaVuSans-75" x="243.701172"/>
     <use xlink:href="#DejaVuSans-69" x="307.080078"/>
     <use xlink:href="#DejaVuSans-74" x="334.863281"/>
     <use xlink:href="#DejaVuSans-79" x="374.072266"/>
    </g>
   </g>
   <g id="text_13">
    <!-- $\mathdefault{0.409}$ -->
    <g transform="translate(175.104 305.159375) scale(0.1 -0.1)">
     <defs>
      <path id="DejaVuSans-2e" d="M 684 794 
L 1344 794 
L 1344 0 
L 684 0 
L 684 794 
z
" transform="scale(0.015625)"/>
      <path id="DejaVuSans-34" d="M 2419 4116 
L 825 1625 
L 2419 1625 
L 2419 4116 
z
M 2253 4666 
L 3047 4666 
L 3047 1625 
L 3713 1625 
L 3713 1100 
L 3047 1100 
L 3047 0 
L 2419 0 
L 2419 1100 
L 313 1100 
L 313 1709 
L 2253 4666 
z
" transform="scale(0.015625)"/>
     </defs>
     <use xlink:href="#DejaVuSans-30" transform="translate(0 0.78125)"/>
     <use xlink:href="#DejaVuSans-2e" transform="translate(63.623047 0.78125)"/>
     <use xlink:href="#DejaVuSans-34" transform="translate(95.410156 0.78125)"/>
     <use xlink:href="#DejaVuSans-30" transform="translate(159.033203 0.78125)"/>
     <use xlink:href="#DejaVuSans-39" transform="translate(222.65625 0.78125)"/>
    </g>
   </g>
  </g>
  <g id="axes_3">
   <g id="patch_5">
    <path d="M 57.6 324 
L 172.8 324 
L 172.8 315.36 
L 57.6 315.36 
z
" clip-path="url(#pa2f5ddd0e8)" style="fill: #d3d3d3"/>
   </g>
   <g id="patch_6">
    <path d="M 57.6 324 
L 57.6 315.36 
L 140.8 315.36 
L 140.8 324 
z
" clip-path="url(#pa2f5ddd0e8)" style="fill: #1f77b4"/>
   </g>
   <g id="line2d_21">
    <path d="M 140.8 328.32 
L 140.8 311.04 
" clip-path="url(#p8525956689)" style="fill: none; stroke: #ff0000; stroke-linecap: square"/>
   </g>
   <g id="line2d_22">
    <g>
     <use xlink:href="#m845d7b4ec7" x="140.8" y="319.68" style="fill: #ffffff; stroke: #bfbfbf"/>
    </g>
   </g>
   <g id="text_14">
    <!-- latitude -->
    <g transform="translate(16.931937 322.439375) scale(0.1 -0.1)">
     <use xlink:href="#DejaVuSans-6c"/>
     <use xlink:href="#DejaVuSans-61" x="27.783203"/>
     <use xlink:href="#DejaVuSans-74" x="89.0625"/>
     <use xlink:href="#DejaVuSans-69" x="128.271484"/>
     <use xlink:href="#DejaVuSans-74" x="156.054688"/>
     <use xlink:href="#DejaVuSans-75" x="195.263672"/>
     <use xlink:href="#DejaVuSans-64" x="258.642578"/>
     <use xlink:href="#DejaVuSans-65" x="322.119141"/>
    </g>
   </g>
   <g id="text_15">
    <!-- $\mathdefault{0.698}$ -->
    <g transform="translate(175.104 322.439375) scale(0.1 -0.1)">
     <use xlink:href="#DejaVuSans-30" transform="translate(0 0.78125)"/>
     <use xlink:href="#DejaVuSans-2e" transform="translate(63.623047 0.78125)"/>
     <use xlink:href="#DejaVuSans-36" transform="translate(95.410156 0.78125)"/>
     <use xlink:href="#DejaVuSans-39" transform="translate(159.033203 0.78125)"/>
     <use xlink:href="#DejaVuSans-38" transform="translate(222.65625 0.78125)"/>
    </g>
   </g>
  </g>
  <g id="axes_4">
   <g id="patch_7">
    <path d="M 288 306.72 
L 403.2 306.72 
L 403.2 298.08 
L 288 298.08 
z
" clip-path="url(#pe04fe634c3)" style="fill: #d3d3d3"/>
   </g>
   <g id="patch_8">
    <path d="M 288 306.72 
L 288 298.08 
L 345.6 298.08 
L 345.6 306.72 
z
" clip-path="url(#pe04fe634c3)" style="fill: #1f77b4"/>
   </g>
   <g id="line2d_23">
    <path d="M 345.6 311.04 
L 345.6 293.76 
" clip-path="url(#p2ee62f3cb9)" style="fill: none; stroke: #ff0000; stroke-linecap: square"/>
   </g>
   <g id="line2d_24">
    <g>
     <use xlink:href="#m845d7b4ec7" x="345.6" y="302.4" style="fill: #ffffff; stroke: #bfbfbf"/>
    </g>
   </g>
   <g id="text_16">
    <!-- time of year -->
    <g transform="translate(224.797563 305.159375) scale(0.1 -0.1)">
     <defs>
      <path id="DejaVuSans-6d" d="M 3328 2828 
Q 3544 3216 3844 3400 
Q 4144 3584 4550 3584 
Q 5097 3584 5394 3201 
Q 5691 2819 5691 2113 
L 5691 0 
L 5113 0 
L 5113 2094 
Q 5113 2597 4934 2840 
Q 4756 3084 4391 3084 
Q 3944 3084 3684 2787 
Q 3425 2491 3425 1978 
L 3425 0 
L 2847 0 
L 2847 2094 
Q 2847 2600 2669 2842 
Q 2491 3084 2119 3084 
Q 1678 3084 1418 2786 
Q 1159 2488 1159 1978 
L 1159 0 
L 581 0 
L 581 3500 
L 1159 3500 
L 1159 2956 
Q 1356 3278 1631 3431 
Q 1906 3584 2284 3584 
Q 2666 3584 2933 3390 
Q 3200 3197 3328 2828 
z
" transform="scale(0.015625)"/>
      <path id="DejaVuSans-66" d="M 2375 4863 
L 2375 4384 
L 1825 4384 
Q 1516 4384 1395 4259 
Q 1275 4134 1275 3809 
L 1275 3500 
L 2222 3500 
L 2222 3053 
L 1275 3053 
L 1275 0 
L 697 0 
L 697 3053 
L 147 3053 
L 147 3500 
L 697 3500 
L 697 3744 
Q 697 4328 969 4595 
Q 1241 4863 1831 4863 
L 2375 4863 
z
" transform="scale(0.015625)"/>
     </defs>
     <use xlink:href="#DejaVuSans-74"/>
     <use xlink:href="#DejaVuSans-69" x="39.208984"/>
     <use xlink:href="#DejaVuSans-6d" x="66.992188"/>
     <use xlink:href="#DejaVuSans-65" x="164.404297"/>
     <use xlink:href="#DejaVuSans-20" x="225.927734"/>
     <use xlink:href="#DejaVuSans-6f" x="257.714844"/>
     <use xlink:href="#DejaVuSans-66" x="318.896484"/>
     <use xlink:href="#DejaVuSans-20" x="354.101562"/>
     <use xlink:href="#DejaVuSans-79" x="385.888672"/>
     <use xlink:href="#DejaVuSans-65" x="445.068359"/>
     <use xlink:href="#DejaVuSans-61" x="506.591797"/>
     <use xlink:href="#DejaVuSans-72" x="567.871094"/>
    </g>
   </g>
   <g id="text_17">
    <!-- $\mathdefault{0.000}$ -->
    <g transform="translate(405.504 305.159375) scale(0.1 -0.1)">
     <use xlink:href="#DejaVuSans-30" transform="translate(0 0.78125)"/>
     <use xlink:href="#DejaVuSans-2e" transform="translate(63.623047 0.78125)"/>
     <use xlink:href="#DejaVuSans-30" transform="translate(95.410156 0.78125)"/>
     <use xlink:href="#DejaVuSans-30" transform="translate(159.033203 0.78125)"/>
     <use xlink:href="#DejaVuSans-30" transform="translate(222.65625 0.78125)"/>
    </g>
   </g>
  </g>
  <g id="axes_5">
   <g id="patch_9">
    <path d="M 288 324 
L 403.2 324 
L 403.2 315.36 
L 288 315.36 
z
" clip-path="url(#p77a97f3c60)" style="fill: #d3d3d3"/>
   </g>
   <g id="patch_10">
    <path d="M 288 324 
L 288 315.36 
L 339.84 315.36 
L 339.84 324 
z
" clip-path="url(#p77a97f3c60)" style="fill: #1f77b4"/>
   </g>
   <g id="line2d_25">
    <path d="M 345.6 328.32 
L 345.6 311.04 
" clip-path="url(#p2374d55614)" style="fill: none; stroke: #ff0000; stroke-linecap: square"/>
   </g>
   <g id="line2d_26">
    <g>
     <use xlink:href="#m845d7b4ec7" x="339.84" y="319.68" style="fill: #ffffff; stroke: #bfbfbf"/>
    </g>
   </g>
   <g id="text_18">
    <!-- time of day -->
    <g transform="translate(228.713188 322.439375) scale(0.1 -0.1)">
     <use xlink:href="#DejaVuSans-74"/>
     <use xlink:href="#DejaVuSans-69" x="39.208984"/>
     <use xlink:href="#DejaVuSans-6d" x="66.992188"/>
     <use xlink:href="#DejaVuSans-65" x="164.404297"/>
     <use xlink:href="#DejaVuSans-20" x="225.927734"/>
     <use xlink:href="#DejaVuSans-6f" x="257.714844"/>
     <use xlink:href="#DejaVuSans-66" x="318.896484"/>
     <use xlink:href="#DejaVuSans-20" x="354.101562"/>
     <use xlink:href="#DejaVuSans-64" x="385.888672"/>
     <use xlink:href="#DejaVuSans-61" x="449.365234"/>
     <use xlink:href="#DejaVuSans-79" x="510.644531"/>
    </g>
   </g>
   <g id="text_19">
    <!-- $\mathdefault{−0.314}$ -->
    <g transform="translate(405.504 322.439375) scale(0.1 -0.1)">
     <defs>
      <path id="DejaVuSans-33" d="M 2597 2516 
Q 3050 2419 3304 2112 
Q 3559 1806 3559 1356 
Q 3559 666 3084 287 
Q 2609 -91 1734 -91 
Q 1441 -91 1130 -33 
Q 819 25 488 141 
L 488 750 
Q 750 597 1062 519 
Q 1375 441 1716 441 
Q 2309 441 2620 675 
Q 2931 909 2931 1356 
Q 2931 1769 2642 2001 
Q 2353 2234 1838 2234 
L 1294 2234 
L 1294 2753 
L 1863 2753 
Q 2328 2753 2575 2939 
Q 2822 3125 2822 3475 
Q 2822 3834 2567 4026 
Q 2313 4219 1838 4219 
Q 1578 4219 1281 4162 
Q 984 4106 628 3988 
L 628 4550 
Q 988 4650 1302 4700 
Q 1616 4750 1894 4750 
Q 2613 4750 3031 4423 
Q 3450 4097 3450 3541 
Q 3450 3153 3228 2886 
Q 3006 2619 2597 2516 
z
" transform="scale(0.015625)"/>
     </defs>
     <use xlink:href="#DejaVuSans-2212" transform="translate(0 0.78125)"/>
     <use xlink:href="#DejaVuSans-30" transform="translate(83.789062 0.78125)"/>
     <use xlink:href="#DejaVuSans-2e" transform="translate(147.412109 0.78125)"/>
     <use xlink:href="#DejaVuSans-33" transform="translate(179.199219 0.78125)"/>
     <use xlink:href="#DejaVuSans-31" transform="translate(242.822266 0.78125)"/>
     <use xlink:href="#DejaVuSans-34" transform="translate(306.445312 0.78125)"/>
    </g>
   </g>
  </g>
  <g id="legend_1">
   <g id="patch_11">
    <path d="M 368.787125 264.568 
L 444.584 264.568 
Q 446.584 264.568 446.584 262.568 
L 446.584 190.177375 
Q 446.584 188.177375 444.584 188.177375 
L 368.787125 188.177375 
Q 366.787125 188.177375 366.787125 190.177375 
L 366.787125 262.568 
Q 366.787125 264.568 368.787125 264.568 
z
" style="fill: #ffffff; opacity: 0.8; stroke: #cccccc; stroke-linejoin: miter"/>
   </g>
   <g id="line2d_27">
    <path d="M 370.787125 196.275812 
L 380.787125 196.275812 
L 390.787125 196.275812 
" style="fill: none; stroke: #000000; stroke-opacity: 0.05; stroke-width: 1.5; stroke-linecap: square"/>
   </g>
   <g id="text_20">
    <!-- RA/Dec -->
    <g transform="translate(398.787125 199.775812) scale(0.1 -0.1)">
     <defs>
      <path id="DejaVuSans-52" d="M 2841 2188 
Q 3044 2119 3236 1894 
Q 3428 1669 3622 1275 
L 4263 0 
L 3584 0 
L 2988 1197 
Q 2756 1666 2539 1819 
Q 2322 1972 1947 1972 
L 1259 1972 
L 1259 0 
L 628 0 
L 628 4666 
L 2053 4666 
Q 2853 4666 3247 4331 
Q 3641 3997 3641 3322 
Q 3641 2881 3436 2590 
Q 3231 2300 2841 2188 
z
M 1259 4147 
L 1259 2491 
L 2053 2491 
Q 2509 2491 2742 2702 
Q 2975 2913 2975 3322 
Q 2975 3731 2742 3939 
Q 2509 4147 2053 4147 
L 1259 4147 
z
" transform="scale(0.015625)"/>
      <path id="DejaVuSans-41" d="M 2188 4044 
L 1331 1722 
L 3047 1722 
L 2188 4044 
z
M 1831 4666 
L 2547 4666 
L 4325 0 
L 3669 0 
L 3244 1197 
L 1141 1197 
L 716 0 
L 50 0 
L 1831 4666 
z
" transform="scale(0.015625)"/>
      <path id="DejaVuSans-2f" d="M 1625 4666 
L 2156 4666 
L 531 -594 
L 0 -594 
L 1625 4666 
z
" transform="scale(0.015625)"/>
      <path id="DejaVuSans-44" d="M 1259 4147 
L 1259 519 
L 2022 519 
Q 2988 519 3436 956 
Q 3884 1394 3884 2338 
Q 3884 3275 3436 3711 
Q 2988 4147 2022 4147 
L 1259 4147 
z
M 628 4666 
L 1925 4666 
Q 3281 4666 3915 4102 
Q 4550 3538 4550 2338 
Q 4550 1131 3912 565 
Q 3275 0 1925 0 
L 628 0 
L 628 4666 
z
" transform="scale(0.015625)"/>
     </defs>
     <use xlink:href="#DejaVuSans-52"/>
     <use xlink:href="#DejaVuSans-41" x="65.482422"/>
     <use xlink:href="#DejaVuSans-2f" x="133.890625"/>
     <use xlink:href="#DejaVuSans-44" x="167.582031"/>
     <use xlink:href="#DejaVuSans-65" x="244.583984"/>
     <use xlink:href="#DejaVuSans-63" x="306.107422"/>
    </g>
   </g>
   <g id="line2d_28">
    <path d="M 370.787125 210.953937 
L 380.787125 210.953937 
L 390.787125 210.953937 
" style="fill: none; stroke: #ff0000; stroke-opacity: 0.2; stroke-width: 1.5; stroke-linecap: square"/>
   </g>
   <g id="text_21">
    <!-- ecliptic -->
    <g transform="translate(398.787125 214.453937) scale(0.1 -0.1)">
     <use xlink:href="#DejaVuSans-65"/>
     <use xlink:href="#DejaVuSans-63" x="61.523438"/>
     <use xlink:href="#DejaVuSans-6c" x="116.503906"/>
     <use xlink:href="#DejaVuSans-69" x="144.287109"/>
     <use xlink:href="#DejaVuSans-70" x="172.070312"/>
     <use xlink:href="#DejaVuSans-74" x="235.546875"/>
     <use xlink:href="#DejaVuSans-69" x="274.755859"/>
     <use xlink:href="#DejaVuSans-63" x="302.539062"/>
    </g>
   </g>
   <g id="line2d_29">
    <path d="M 370.787125 225.632062 
L 380.787125 225.632062 
L 390.787125 225.632062 
" style="fill: none; stroke: #ff0000; stroke-width: 1.5; stroke-linecap: square"/>
    <g>
     <use xlink:href="#md0b84bffc5" x="380.787125" y="225.632062" style="fill: #ff0000; stroke: #ff0000"/>
    </g>
   </g>
   <g id="text_22">
    <!-- sun path -->
    <g transform="translate(398.787125 229.132062) scale(0.1 -0.1)">
     <defs>
      <path id="DejaVuSans-6e" d="M 3513 2113 
L 3513 0 
L 2938 0 
L 2938 2094 
Q 2938 2591 2744 2837 
Q 2550 3084 2163 3084 
Q 1697 3084 1428 2787 
Q 1159 2491 1159 1978 
L 1159 0 
L 581 0 
L 581 3500 
L 1159 3500 
L 1159 2956 
Q 1366 3272 1645 3428 
Q 1925 3584 2291 3584 
Q 2894 3584 3203 3211 
Q 3513 2838 3513 2113 
z
" transform="scale(0.015625)"/>
     </defs>
     <use xlink:href="#DejaVuSans-73"/>
     <use xlink:href="#DejaVuSans-75" x="52.099609"/>
     <use xlink:href="#DejaVuSans-6e" x="115.478516"/>
     <use xlink:href="#DejaVuSans-20" x="178.857422"/>
     <use xlink:href="#DejaVuSans-70" x="210.644531"/>
     <use xlink:href="#DejaVuSans-61" x="274.121094"/>
     <use xlink:href="#DejaVuSans-74" x="335.400391"/>
     <use xlink:href="#DejaVuSans-68" x="374.609375"/>
    </g>
   </g>
   <g id="line2d_30">
    <path d="M 370.787125 240.310187 
L 380.787125 240.310187 
L 390.787125 240.310187 
" style="fill: none; stroke: #0000ff; stroke-opacity: 0.2; stroke-width: 1.5; stroke-linecap: square"/>
   </g>
   <g id="text_23">
    <!-- horizon -->
    <g transform="translate(398.787125 243.810187) scale(0.1 -0.1)">
     <defs>
      <path id="DejaVuSans-7a" d="M 353 3500 
L 3084 3500 
L 3084 2975 
L 922 459 
L 3084 459 
L 3084 0 
L 275 0 
L 275 525 
L 2438 3041 
L 353 3041 
L 353 3500 
z
" transform="scale(0.015625)"/>
     </defs>
     <use xlink:href="#DejaVuSans-68"/>
     <use xlink:href="#DejaVuSans-6f" x="63.378906"/>
     <use xlink:href="#DejaVuSans-72" x="124.560547"/>
     <use xlink:href="#DejaVuSans-69" x="165.673828"/>
     <use xlink:href="#DejaVuSans-7a" x="193.457031"/>
     <use xlink:href="#DejaVuSans-6f" x="245.947266"/>
     <use xlink:href="#DejaVuSans-6e" x="307.128906"/>
    </g>
   </g>
   <g id="line2d_31">
    <path d="M 370.787125 254.988313 
L 380.787125 254.988313 
L 390.787125 254.988313 
" style="fill: none; stroke: #0000ff; stroke-width: 1.5; stroke-linecap: square"/>
    <g>
     <use xlink:href="#mf2b73b6e19" x="380.787125" y="254.988313" style="fill: #0000ff; stroke: #0000ff"/>
    </g>
   </g>
   <g id="text_24">
    <!-- zenith -->
    <g transform="translate(398.787125 258.488313) scale(0.1 -0.1)">
     <use xlink:href="#DejaVuSans-7a"/>
     <use xlink:href="#DejaVuSans-65" x="52.490234"/>
     <use xlink:href="#DejaVuSans-6e" x="114.013672"/>
     <use xlink:href="#DejaVuSans-69" x="177.392578"/>
     <use xlink:href="#DejaVuSans-74" x="205.175781"/>
     <use xlink:href="#DejaVuSans-68" x="244.384766"/>
    </g>
   </g>
  </g>
 </g>
 <defs>
  <clipPath id="p13ccc2b43e">
   <rect x="100.8" y="17.28" width="259.2" height="259.2"/>
  </clipPath>
  <clipPath id="p589b9db272">
   <rect x="57.6" y="293.76" width="115.2" height="17.28"/>
  </clipPath>
  <clipPath id="p7eb5d11032">
   <path d="M 57.6 306.72 
L 172.8 306.72 
L 172.8 298.08 
L 57.6 298.08 
z
"/>
  </clipPath>
  <clipPath id="pa2f5ddd0e8">
   <rect x="57.6" y="311.04" width="115.2" height="17.28"/>
  </clipPath>
  <clipPath id="p8525956689">
   <path d="M 57.6 324 
L 172.8 324 
L 172.8 315.36 
L 57.6 315.36 
z
"/>
  </clipPath>
  <clipPath id="pe04fe634c3">
   <rect x="288" y="293.76" width="115.2" height="17.28"/>
  </clipPath>
  <clipPath id="p2ee62f3cb9">
   <path d="M 288 306.72 
L 403.2 306.72 
L 403.2 298.08 
L 288 298.08 
z
"/>
  </clipPath>
  <clipPath id="p77a97f3c60">
   <rect x="288" y="311.04" width="115.2" height="17.28"/>
  </clipPath>
  <clipPath id="p2374d55614">
   <path d="M 288 324 
L 403.2 324 
L 403.2 315.36 
L 288 315.36 
z
"/>
  </clipPath>
 </defs>
</svg>
