<?xml version="1.0" encoding="utf-8" standalone="no"?>
<!DOCTYPE svg PUBLIC "-//W3C//DTD SVG 1.1//EN"
  "http://www.w3.org/Graphics/SVG/1.1/DTD/svg11.dtd">
<svg xmlns:xlink="http://www.w3.org/1999/xlink" width="460.8pt" height="345.6pt" viewBox="0 0 460.8 345.6" xmlns="http://www.w3.org/2000/svg" version="1.1">
 <metadata>
  <rdf:RDF xmlns:dc="http://purl.org/dc/elements/1.1/" xmlns:cc="http://creativecommons.org/ns#" xmlns:rdf="http://www.w3.org/1999/02/22-rdf-syntax-ns#">
   <cc:Work>
    <dc:type rdf:resource="http://purl.org/dc/dcmitype/StillImage"/>
    <dc:date>2024-12-18T09:53:27.590562</dc:date>
    <dc:format>image/svg+xml</dc:format>
    <dc:creator>
     <cc:Agent>
      <dc:title>Matplotlib v3.6.3, https://matplotlib.org/</dc:title>
     </cc:Agent>
    </dc:creator>
   </cc:Work>
  </rdf:RDF>
 </metadata>
 <defs>
  <style type="text/css">*{stroke-linejoin: round; stroke-linecap: butt}</style>
 </defs>
 <g id="figure_1">
  <g id="patch_1">
   <path d="M 0 345.6 
L 460.8 345.6 
L 460.8 0 
L 0 0 
z
" style="fill: #ffffff"/>
  </g>
  <g id="patch_2">
   <path d="M 92.16 293.76 
L 368.64 293.76 
L 368.64 17.28 
L 92.16 17.28 
z
" style="fill: #ffffff"/>
  </g>
  <g id="axes_1">
   <g id="line2d_1">
    <path d="M 167.481473 38.088317 
L 167.429026 38.502662 
L 167.64101 38.917656 
L 168.118767 39.33164 
L 168.862559 39.742931 
L 169.871529 40.149829 
L 171.143671 40.550628 
L 172.675803 40.943618 
L 174.463546 41.3271 
L 176.501315 41.69939 
L 178.782313 42.058831 
L 181.298532 42.403801 
L 184.040766 42.732724 
L 186.998635 43.044077 
L 190.160611 43.336404 
L 193.51406 43.608321 
L 197.045291 43.85853 
L 200.739617 44.085824 
L 204.581423 44.289098 
L 208.554241 44.467357 
L 212.640839 44.61972 
L 216.823314 44.745433 
L 221.083192 44.843869 
L 225.401535 44.914535 
L 229.759052 44.957078 
L 234.136216 44.971282 
L 238.51338 44.957078 
L 242.870898 44.914535 
L 247.189241 44.843869 
L 251.449119 44.745433 
L 255.631594 44.61972 
L 259.718192 44.467357 
L 263.69101 44.289098 
L 267.532815 44.085824 
L 271.227142 43.85853 
L 274.758373 43.608321 
L 278.111821 43.336404 
L 281.273797 43.044077 
L 284.231666 42.732724 
L 286.973901 42.403801 
L 289.49012 42.058831 
L 291.771117 41.69939 
L 293.808887 41.3271 
L 295.59663 40.943618 
L 297.128761 40.550628 
L 298.400903 40.149829 
L 299.409874 39.742931 
L 300.153666 39.33164 
L 300.631423 38.917656 
L 300.843406 38.502662 
L 300.79096 38.088317 
L 300.47647 37.676252 
L 299.90332 37.268059 
L 299.075847 36.865293 
L 297.999291 36.46946 
L 296.679747 36.082017 
L 295.124111 35.704366 
L 293.340035 35.337852 
L 291.335869 34.983759 
L 289.120617 34.643309 
L 286.703886 34.317659 
L 284.095835 34.007897 
L 281.307133 33.715048 
L 278.348909 33.440063 
L 275.232714 33.183826 
L 271.970476 32.947151 
L 268.574462 32.73078 
L 265.057237 32.535385 
L 261.431635 32.361567 
L 257.710718 32.209855 
L 253.907746 32.080708 
L 250.036147 31.974514 
L 246.109485 31.89159 
L 242.141431 31.832182 
L 238.14574 31.796468 
L 234.136216 31.784551 
L 230.126692 31.796468 
L 226.131001 31.832182 
L 222.162948 31.89159 
L 218.236285 31.974514 
L 214.364686 32.080708 
L 210.561714 32.209855 
L 206.840797 32.361567 
L 203.215195 32.535385 
L 199.697971 32.73078 
L 196.301956 32.947151 
L 193.039718 33.183826 
L 189.923523 33.440063 
L 186.9653 33.715048 
L 184.176597 34.007897 
L 181.568546 34.317659 
L 179.151815 34.643309 
L 176.936564 34.983759 
L 174.932398 35.337852 
L 173.148321 35.704366 
L 171.592686 36.082017 
L 170.273141 36.46946 
L 169.196585 36.865293 
L 168.369113 37.268059 
L 167.795963 37.676252 
L 167.481473 38.088317 
" clip-path="url(#p1daa503af9)" style="fill: none; stroke: #000000; stroke-opacity: 0.05; stroke-width: 1.5; stroke-linecap: square"/>
   </g>
   <g id="line2d_2">
    <path d="M 119.337673 86.51174 
L 119.017392 87.457896 
L 119.152715 88.409339 
L 119.749644 89.362281 
L 120.812338 90.312821 
L 122.342987 91.256956 
L 124.341696 92.190603 
L 126.806377 93.109612 
L 129.732647 94.009797 
L 133.113748 94.88695 
L 136.940472 95.736875 
L 141.201118 96.555412 
L 145.881457 97.338464 
L 150.964729 98.082035 
L 156.431661 98.782251 
L 162.260511 99.4354 
L 168.427145 100.037962 
L 174.905132 100.586637 
L 181.665879 101.078379 
L 188.678784 101.510423 
L 195.911423 101.880313 
L 203.329756 102.185928 
L 210.898361 102.425497 
L 218.580682 102.597627 
L 226.339301 102.701311 
L 234.136216 102.735941 
L 241.933131 102.701311 
L 249.691751 102.597627 
L 257.374072 102.425497 
L 264.942677 102.185928 
L 272.36101 101.880313 
L 279.593649 101.510423 
L 286.606554 101.078379 
L 293.367301 100.586637 
L 299.845288 100.037962 
L 306.011921 99.4354 
L 311.840772 98.782251 
L 317.307703 98.082035 
L 322.390975 97.338464 
L 327.071314 96.555412 
L 331.33196 95.736875 
L 335.158685 94.88695 
L 338.539785 94.009797 
L 341.466056 93.109612 
L 343.930736 92.190603 
L 345.929446 91.256956 
L 347.460094 90.312821 
L 348.522788 89.362281 
L 349.119717 88.409339 
L 349.255041 87.457896 
L 348.93476 86.51174 
L 348.166591 85.57453 
L 346.959839 84.649787 
L 345.325261 83.740883 
L 343.274945 82.851037 
L 340.822182 81.983309 
L 337.981346 81.140596 
L 334.767778 80.325631 
L 331.197681 79.540979 
L 327.28801 78.789044 
L 323.056388 78.072064 
L 318.521007 77.392117 
L 313.700559 76.75112 
L 308.614155 76.150838 
L 303.281265 75.592882 
L 297.721659 75.078717 
L 291.955358 74.609662 
L 286.002584 74.186898 
L 279.883728 73.81147 
L 273.619316 73.484289 
L 267.229978 73.206138 
L 260.736426 72.977674 
L 254.159437 72.799431 
L 247.519832 72.671821 
L 240.838467 72.595138 
L 234.136216 72.569558 
L 227.433966 72.595138 
L 220.7526 72.671821 
L 214.112996 72.799431 
L 207.536006 72.977674 
L 201.042455 73.206138 
L 194.653116 73.484289 
L 188.388704 73.81147 
L 182.269849 74.186898 
L 176.317075 74.609662 
L 170.550773 75.078717 
L 164.991168 75.592882 
L 159.658278 76.150838 
L 154.571874 76.75112 
L 149.751425 77.392117 
L 145.216045 78.072064 
L 140.984422 78.789044 
L 137.074752 79.540979 
L 133.504654 80.325631 
L 130.291087 81.140596 
L 127.450251 81.983309 
L 124.997488 82.851037 
L 122.947172 83.740883 
L 121.312594 84.649787 
L 120.105841 85.57453 
L 119.337673 86.51174 
" clip-path="url(#p1daa503af9)" style="fill: none; stroke: #000000; stroke-opacity: 0.05; stroke-width: 1.5; stroke-linecap: square"/>
   </g>
   <g id="line2d_3">
    <path d="M 102.59132 151.783784 
L 102.132415 153.225928 
L 102.19515 154.678157 
L 102.787882 156.134719 
L 103.916885 157.589648 
L 105.586181 159.036797 
L 107.797379 160.469854 
L 110.549524 161.882377 
L 113.838954 163.267829 
L 117.659175 164.61961 
L 122.000753 165.931106 
L 126.851232 167.195729 
L 132.195076 168.406968 
L 138.013637 169.558437 
L 144.285162 170.643932 
L 150.98483 171.657482 
L 158.084826 172.593402 
L 165.554453 173.446353 
L 173.360282 174.21139 
L 181.466343 174.884012 
L 189.834346 175.460215 
L 198.423942 175.93653 
L 207.193014 176.310063 
L 216.097993 176.578528 
L 225.094202 176.740273 
L 234.136216 176.7943 
L 243.17823 176.740273 
L 252.17444 176.578528 
L 261.079419 176.310063 
L 269.84849 175.93653 
L 278.438086 175.460215 
L 286.806089 174.884012 
L 294.91215 174.21139 
L 302.71798 173.446353 
L 310.187607 172.593402 
L 317.287602 171.657482 
L 323.98727 170.643932 
L 330.258796 169.558437 
L 336.077357 168.406968 
L 341.4212 167.195729 
L 346.27168 165.931106 
L 350.613258 164.61961 
L 354.433479 163.267829 
L 357.722909 161.882377 
L 360.475054 160.469854 
L 362.686252 159.036797 
L 364.355547 157.589648 
L 365.48455 156.134719 
L 366.077283 154.678157 
L 366.140018 153.225928 
L 365.681113 151.783784 
L 364.710839 150.357254 
L 363.241213 148.951625 
L 361.285831 147.571932 
L 358.859704 146.222953 
L 355.979104 144.909199 
L 352.661416 143.634918 
L 348.924997 142.404091 
L 344.789047 141.220434 
L 340.273486 140.087405 
L 335.398847 139.008208 
L 330.186179 137.985797 
L 324.656951 137.022885 
L 318.83298 136.121952 
L 312.73636 135.285253 
L 306.389399 134.514824 
L 299.814576 133.812494 
L 293.034493 133.179888 
L 286.07184 132.618439 
L 278.949373 132.129395 
L 271.689887 131.71382 
L 264.316202 131.372607 
L 256.851152 131.106477 
L 249.317576 130.91599 
L 241.738317 130.80154 
L 234.136216 130.763363 
L 226.534116 130.80154 
L 218.954857 130.91599 
L 211.421281 131.106477 
L 203.95623 131.372607 
L 196.582545 131.71382 
L 189.323059 132.129395 
L 182.200592 132.618439 
L 175.23794 133.179888 
L 168.457856 133.812494 
L 161.883033 134.514824 
L 155.536073 135.285253 
L 149.439452 136.121952 
L 143.615481 137.022885 
L 138.086253 137.985797 
L 132.873585 139.008208 
L 127.998947 140.087405 
L 123.483386 141.220434 
L 119.347435 142.404091 
L 115.611016 143.634918 
L 112.293329 144.909199 
L 109.412729 146.222953 
L 106.986602 147.571932 
L 105.031219 148.951625 
L 103.561593 150.357254 
L 102.59132 151.783784 
" clip-path="url(#p1daa503af9)" style="fill: none; stroke: #000000; stroke-opacity: 0.05; stroke-width: 1.5; stroke-linecap: square"/>
   </g>
   <g id="line2d_4">
    <path d="M 121.079007 216.065741 
L 120.771792 217.606368 
L 120.913294 219.155378 
L 121.509295 220.706604 
L 122.563753 222.253693 
L 124.078694 223.790137 
L 126.05409 225.309292 
L 128.487756 226.80442 
L 131.375259 228.268718 
L 134.709833 229.695358 
L 138.482314 231.077531 
L 142.681096 232.408488 
L 147.292101 233.681592 
L 152.298775 234.890364 
L 157.682111 236.028532 
L 163.420692 237.090085 
L 169.490765 238.069326 
L 175.866338 238.960915 
L 182.519311 239.759925 
L 189.419627 240.461885 
L 196.535455 241.062824 
L 203.833389 241.559312 
L 211.278678 241.948491 
L 218.83547 242.228106 
L 226.467069 242.396531 
L 234.136216 242.452782 
L 241.805363 242.396531 
L 249.436963 242.228106 
L 256.993754 241.948491 
L 264.439043 241.559312 
L 271.736977 241.062824 
L 278.852805 240.461885 
L 285.753122 239.759925 
L 292.406095 238.960915 
L 298.781668 238.069326 
L 304.85174 237.090085 
L 310.590321 236.028532 
L 315.973657 234.890364 
L 320.980331 233.681592 
L 325.591336 232.408488 
L 329.790118 231.077531 
L 333.562599 229.695358 
L 336.897173 228.268718 
L 339.784676 226.80442 
L 342.218343 225.309292 
L 344.193738 223.790137 
L 345.708679 222.253693 
L 346.763138 220.706604 
L 347.359138 219.155378 
L 347.500641 217.606368 
L 347.193425 216.065741 
L 346.444962 214.539461 
L 345.264293 213.033268 
L 343.661897 211.552667 
L 341.649576 210.102911 
L 339.240321 208.689001 
L 336.448206 207.315671 
L 333.288268 205.987392 
L 329.776404 204.708363 
L 325.929267 203.48252 
L 321.764178 202.313531 
L 317.299036 201.204802 
L 312.552241 200.159481 
L 307.542621 199.180464 
L 302.289369 198.270397 
L 296.811984 197.431686 
L 291.130224 196.666503 
L 285.264057 195.976789 
L 279.233625 195.364262 
L 273.05921 194.830424 
L 266.761206 194.376563 
L 260.360094 194.003763 
L 253.876424 193.712903 
L 247.330794 193.504662 
L 240.743839 193.379524 
L 234.136216 193.33778 
L 227.528593 193.379524 
L 220.941639 193.504662 
L 214.396009 193.712903 
L 207.912339 194.003763 
L 201.511227 194.376563 
L 195.213222 194.830424 
L 189.038807 195.364262 
L 183.008375 195.976789 
L 177.142208 196.666503 
L 171.460448 197.431686 
L 165.983064 198.270397 
L 160.729811 199.180464 
L 155.720191 200.159481 
L 150.973396 201.204802 
L 146.508254 202.313531 
L 142.343166 203.48252 
L 138.496029 204.708363 
L 134.984164 205.987392 
L 131.824226 207.315671 
L 129.032111 208.689001 
L 126.622857 210.102911 
L 124.610535 211.552667 
L 123.00814 213.033268 
L 121.82747 214.539461 
L 121.079007 216.065741 
" clip-path="url(#p1daa503af9)" style="fill: none; stroke: #000000; stroke-opacity: 0.05; stroke-width: 1.5; stroke-linecap: square"/>
   </g>
   <g id="line2d_5">
    <path d="M 169.223011 262.508644 
L 169.176628 263.516523 
L 169.387744 264.525836 
L 169.857591 265.532546 
L 170.58635 266.532563 
L 171.573113 267.521759 
L 172.815856 268.495989 
L 174.311414 269.451107 
L 176.055463 270.38299 
L 178.042509 271.287557 
L 180.265887 272.160793 
L 182.717758 272.99877 
L 185.38913 273.797671 
L 188.269874 274.553814 
L 191.348754 275.263676 
L 194.613471 275.923913 
L 198.050705 276.531385 
L 201.646177 277.083177 
L 205.384714 277.57662 
L 209.250324 278.009309 
L 213.226281 278.379121 
L 217.295212 278.684233 
L 221.439196 278.923133 
L 225.639867 279.094632 
L 229.878518 279.197876 
L 234.136216 279.232348 
L 238.393915 279.197876 
L 242.632566 279.094632 
L 246.833236 278.923133 
L 250.97722 278.684233 
L 255.046151 278.379121 
L 259.022108 278.009309 
L 262.887719 277.57662 
L 266.626256 277.083177 
L 270.221727 276.531385 
L 273.658961 275.923913 
L 276.923678 275.263676 
L 280.002559 274.553814 
L 282.883303 273.797671 
L 285.554675 272.99877 
L 288.006546 272.160793 
L 290.229923 271.287557 
L 292.21697 270.38299 
L 293.961019 269.451107 
L 295.456577 268.495989 
L 296.69932 267.521759 
L 297.686083 266.532563 
L 298.414842 265.532546 
L 298.884689 264.525836 
L 299.095804 263.516523 
L 299.049422 262.508644 
L 298.747791 261.506165 
L 298.194137 260.512966 
L 297.392612 259.532832 
L 296.348257 258.569436 
L 295.066944 257.62633 
L 293.555338 256.706937 
L 291.820841 255.814542 
L 289.871546 254.952281 
L 287.716189 254.123142 
L 285.364097 253.329953 
L 282.82515 252.575382 
L 280.109725 251.861933 
L 277.228663 251.19194 
L 274.193216 250.567569 
L 271.015017 249.990814 
L 267.706032 249.463496 
L 264.27853 248.987265 
L 260.745042 248.563594 
L 257.11833 248.193786 
L 253.411355 247.878965 
L 249.637245 247.620086 
L 245.809265 247.417928 
L 241.940788 247.273097 
L 238.045269 247.186025 
L 234.136216 247.156973 
L 230.227163 247.186025 
L 226.331644 247.273097 
L 222.463168 247.417928 
L 218.635188 247.620086 
L 214.861078 247.878965 
L 211.154103 248.193786 
L 207.527391 248.563594 
L 203.993903 248.987265 
L 200.5664 249.463496 
L 197.257416 249.990814 
L 194.079216 250.567569 
L 191.04377 251.19194 
L 188.162707 251.861933 
L 185.447283 252.575382 
L 182.908335 253.329953 
L 180.556244 254.123142 
L 178.400886 254.952281 
L 176.451591 255.814542 
L 174.717094 256.706937 
L 173.205488 257.62633 
L 171.924176 258.569436 
L 170.87982 259.532832 
L 170.078296 260.512966 
L 169.524641 261.506165 
L 169.223011 262.508644 
" clip-path="url(#p1daa503af9)" style="fill: none; stroke: #000000; stroke-opacity: 0.05; stroke-width: 1.5; stroke-linecap: square"/>
   </g>
   <g id="line2d_6">
    <path d="M 234.136216 279.379969 
L 226.000548 279.131971 
L 217.895543 278.388865 
L 209.851763 277.153321 
L 201.899573 275.429781 
L 194.069042 273.224447 
L 186.389843 270.545269 
L 178.891155 267.401919 
L 171.601564 263.805773 
L 164.54897 259.769878 
L 157.760486 255.308916 
L 151.262344 250.439169 
L 145.0798 245.178471 
L 139.237042 239.546164 
L 133.757098 233.563036 
L 128.661745 227.251266 
L 123.971421 220.634358 
L 119.705144 213.737069 
L 115.880425 206.585333 
L 112.51319 199.206179 
L 109.617709 191.627644 
L 107.206518 183.878676 
L 105.290361 175.98904 
L 103.878121 167.989213 
L 102.97677 159.910272 
L 102.59132 151.783784 
L 102.724775 143.641682 
L 103.378102 135.516147 
L 104.550202 127.43948 
L 106.237889 119.443969 
L 108.43588 111.561758 
L 111.136794 103.824714 
L 114.331163 96.264283 
L 118.007444 88.91136 
L 122.152051 81.796144 
L 126.749393 74.948006 
L 131.781921 68.395348 
L 137.230187 62.165472 
L 143.072915 56.284449 
L 149.28708 50.77699 
L 155.847997 45.666327 
L 162.72942 40.974095 
L 169.903652 36.720224 
L 177.341663 32.922835 
L 185.013213 29.598151 
L 192.88699 26.760407 
L 200.930746 24.421778 
L 209.111444 22.592318 
L 217.395411 21.2799 
L 225.748494 20.490178 
L 234.136216 20.226559 
L 242.523938 20.490178 
L 250.877021 21.2799 
L 259.160989 22.592318 
L 267.341687 24.421778 
L 275.385442 26.760407 
L 283.259219 29.598151 
L 290.93077 32.922835 
L 298.368781 36.720224 
L 305.543013 40.974095 
L 312.424435 45.666327 
L 318.985352 50.77699 
L 325.199517 56.284449 
L 331.042245 62.165472 
L 336.490511 68.395348 
L 341.523039 74.948006 
L 346.120381 81.796144 
L 350.264988 88.91136 
L 353.941269 96.264283 
L 357.135638 103.824714 
L 359.836553 111.561758 
L 362.034544 119.443969 
L 363.72223 127.43948 
L 364.89433 135.516147 
L 365.547658 143.641682 
L 365.681113 151.783784 
L 365.295662 159.910272 
L 364.394312 167.989213 
L 362.982072 175.98904 
L 361.065914 183.878676 
L 358.654724 191.627644 
L 355.759242 199.206179 
L 352.392008 206.585333 
L 348.567288 213.737069 
L 344.301011 220.634358 
L 339.610688 227.251266 
L 334.515334 233.563036 
L 329.03539 239.546164 
L 323.192633 245.178471 
L 317.010089 250.439169 
L 310.511946 255.308916 
L 303.723462 259.769878 
L 296.670868 263.805773 
L 289.381278 267.401919 
L 281.882589 270.545269 
L 274.20339 273.224447 
L 266.372859 275.429781 
L 258.42067 277.153321 
L 250.37689 278.388865 
L 242.271884 279.131971 
L 234.136216 279.379969 
" clip-path="url(#p1daa503af9)" style="fill: none; stroke: #000000; stroke-opacity: 0.05; stroke-width: 1.5; stroke-linecap: square"/>
   </g>
   <g id="line2d_7">
    <path d="M 234.136216 279.379969 
L 227.071584 280.182521 
L 219.995715 280.487638 
L 212.935631 280.290007 
L 205.918757 279.58613 
L 198.972822 278.374409 
L 192.125757 276.655218 
L 185.405587 274.430965 
L 178.840306 271.706161 
L 172.457753 268.487466 
L 166.285477 264.783734 
L 160.350598 260.606042 
L 154.679656 255.967713 
L 149.298464 250.884315 
L 144.231951 245.373653 
L 139.504008 239.455746 
L 135.13733 233.152777 
L 131.153256 226.489038 
L 127.571625 219.490852 
L 124.410619 212.186468 
L 121.686624 204.605953 
L 119.414098 196.781055 
L 117.605448 188.74505 
L 116.270915 180.532579 
L 115.418482 172.17946 
L 115.053788 163.72249 
L 115.180068 155.199241 
L 115.798098 146.647833 
L 116.906178 138.10671 
L 118.500112 129.614407 
L 120.573231 121.209309 
L 123.116416 112.929419 
L 126.118156 104.812116 
L 129.564616 96.893931 
L 133.439729 89.21032 
L 137.725304 81.795453 
L 142.401148 74.682007 
L 147.445208 67.900987 
L 152.83372 61.481548 
L 158.541371 55.450844 
L 164.541473 49.833891 
L 170.806141 44.653456 
L 177.306475 39.929954 
L 184.012745 35.681383 
L 190.894579 31.923261 
L 197.921146 28.668598 
L 205.06134 25.92788 
L 212.283952 23.709073 
L 219.557843 22.017645 
L 226.852106 20.856605 
L 234.136216 20.226559 
L 241.380177 20.12577 
L 248.55465 20.550248 
L 255.631076 21.493828 
L 262.581787 22.948275 
L 269.380101 24.903387 
L 276.00041 27.347106 
L 282.418256 30.265631 
L 288.610392 33.643535 
L 294.554839 37.463885 
L 300.230928 41.708356 
L 305.619333 46.357355 
L 310.702099 51.390128 
L 315.462657 56.784879 
L 319.885839 62.518875 
L 323.957877 68.568551 
L 327.666404 74.909615 
L 331.00045 81.517137 
L 333.950429 88.365648 
L 336.508128 95.42922 
L 338.666689 102.681549 
L 340.420595 110.096034 
L 341.765646 117.645847 
L 342.698941 125.304001 
L 343.218859 133.043414 
L 343.325036 140.836969 
L 343.018346 148.657571 
L 342.300881 156.4782 
L 341.175932 164.271966 
L 339.647969 172.012153 
L 337.72263 179.672273 
L 335.406696 187.226112 
L 332.708084 194.647774 
L 329.63583 201.911732 
L 326.200073 208.992874 
L 322.412047 215.866552 
L 318.284066 222.508631 
L 313.829509 228.895545 
L 309.062814 235.004344 
L 303.999458 240.812756 
L 298.655945 246.299247 
L 293.04979 251.443078 
L 287.199501 256.224372 
L 281.124554 260.624187 
L 274.845372 264.624579 
L 268.383299 268.208686 
L 261.760561 271.360795 
L 255.000232 274.066431 
L 248.126192 276.312432 
L 241.163075 278.087037 
L 234.136216 279.379969 
" clip-path="url(#p1daa503af9)" style="fill: none; stroke: #000000; stroke-opacity: 0.05; stroke-width: 1.5; stroke-linecap: square"/>
   </g>
   <g id="line2d_8">
    <path d="M 234.136216 279.379969 
L 230.049408 280.955164 
L 225.939915 282.03842 
L 221.823351 282.618489 
L 217.715813 282.685813 
L 213.633834 282.232664 
L 209.594319 281.253298 
L 205.614479 279.744091 
L 201.711756 277.703679 
L 197.903736 275.133093 
L 194.208048 272.035872 
L 190.642269 268.418179 
L 187.223806 264.288889 
L 183.969778 259.659662 
L 180.896895 254.544997 
L 178.021323 248.962259 
L 175.358557 242.93168 
L 172.923283 236.47633 
L 170.729249 229.62206 
L 168.789131 222.397414 
L 167.114406 214.833502 
L 165.715238 206.963851 
L 164.600364 198.824212 
L 163.776998 190.452349 
L 163.250742 181.887794 
L 163.025516 173.171569 
L 163.103508 164.345901 
L 163.485133 155.453907 
L 164.169015 146.539267 
L 165.151991 137.645892 
L 166.429131 128.817581 
L 167.993776 120.097687 
L 169.837597 111.528782 
L 171.950671 103.152336 
L 174.321575 95.008411 
L 176.937486 87.135379 
L 179.784308 79.569655 
L 182.846794 72.345464 
L 186.108686 65.49464 
L 189.552859 59.046446 
L 193.161467 53.027439 
L 196.916091 47.461357 
L 200.797883 42.369047 
L 204.787716 37.768423 
L 208.866315 33.674451 
L 213.014396 30.099167 
L 217.212789 27.05172 
L 221.442551 24.538439 
L 225.685075 22.562922 
L 229.922184 21.126139 
L 234.136216 20.226559 
L 238.310098 19.860276 
L 242.427408 20.02116 
L 246.472428 20.700999 
L 250.430188 21.889656 
L 254.286492 23.57522 
L 258.027952 25.744163 
L 261.641994 28.38149 
L 265.116871 31.470884 
L 268.441661 34.994846 
L 271.606267 38.934834 
L 274.601402 43.271385 
L 277.418582 47.984234 
L 280.050101 53.052424 
L 282.489018 58.454408 
L 284.729134 64.168137 
L 286.764966 70.171145 
L 288.591728 76.440622 
L 290.205302 82.953476 
L 291.602222 89.686397 
L 292.779643 96.615899 
L 293.735325 103.718367 
L 294.467613 110.970093 
L 294.975416 118.347304 
L 295.25819 125.826188 
L 295.315928 133.382917 
L 295.149144 140.993662 
L 294.758864 148.634609 
L 294.14662 156.281971 
L 293.314442 163.911997 
L 292.26486 171.500985 
L 291.000898 179.025292 
L 289.526082 186.461342 
L 287.844437 193.785644 
L 285.9605 200.9748 
L 283.879324 208.005532 
L 281.606487 214.854694 
L 279.148106 221.499306 
L 276.510843 227.916582 
L 273.701925 234.083966 
L 270.729147 239.979178 
L 267.600896 245.58026 
L 264.326152 250.865638 
L 260.914506 255.814187 
L 257.376167 260.4053 
L 253.721967 264.618974 
L 249.96337 268.4359 
L 246.112469 271.83756 
L 242.181983 274.806337 
L 238.185251 277.325628 
L 234.136216 279.379969 
" clip-path="url(#p1daa503af9)" style="fill: none; stroke: #000000; stroke-opacity: 0.05; stroke-width: 1.5; stroke-linecap: square"/>
   </g>
   <g id="line2d_9">
    <path d="M 234.136216 279.379969 
L 234.136216 281.238733 
L 234.136216 282.609116 
L 234.136216 283.477704 
L 234.136216 283.832687 
L 234.136216 283.664032 
L 234.136216 282.963649 
L 234.136216 281.725566 
L 234.136216 279.946098 
L 234.136216 277.624012 
L 234.136216 274.760677 
L 234.136216 271.360208 
L 234.136216 267.429592 
L 234.136216 262.978792 
L 234.136216 258.02083 
L 234.136216 252.57184 
L 234.136216 246.651096 
L 234.136216 240.280999 
L 234.136216 233.487036 
L 234.136216 226.297698 
L 234.136216 218.744358 
L 234.136216 210.861113 
L 234.136216 202.684588 
L 234.136216 194.253697 
L 234.136216 185.609381 
L 234.136216 176.7943 
L 234.136216 167.85251 
L 234.136216 158.829112 
L 234.136216 149.769884 
L 234.136216 140.720901 
L 234.136216 131.728153 
L 234.136216 122.837164 
L 234.136216 114.092614 
L 234.136216 105.537982 
L 234.136216 97.215202 
L 234.136216 89.16435 
L 234.136216 81.423353 
L 234.136216 74.02774 
L 234.136216 67.010419 
L 234.136216 60.4015 
L 234.136216 54.22815 
L 234.136216 48.514494 
L 234.136216 43.281547 
L 234.136216 38.547184 
L 234.136216 34.326153 
L 234.136216 30.630107 
L 234.136216 27.467675 
L 234.136216 24.844553 
L 234.136216 22.76362 
L 234.136216 21.225069 
L 234.136216 20.226559 
L 234.136216 19.763366 
L 234.136216 19.828557 
L 234.136216 20.413158 
L 234.136216 21.506323 
L 234.136216 23.095509 
L 234.136216 25.166644 
L 234.136216 27.704286 
L 234.136216 30.691784 
L 234.136216 34.111422 
L 234.136216 37.944556 
L 234.136216 42.171747 
L 234.136216 46.772876 
L 234.136216 51.727253 
L 234.136216 57.013711 
L 234.136216 62.610696 
L 234.136216 68.496341 
L 234.136216 74.64853 
L 234.136216 81.044959 
L 234.136216 87.663177 
L 234.136216 94.480634 
L 234.136216 101.474704 
L 234.136216 108.622718 
L 234.136216 115.901975 
L 234.136216 123.289763 
L 234.136216 130.763363 
L 234.136216 138.300057 
L 234.136216 145.87713 
L 234.136216 153.471867 
L 234.136216 161.061556 
L 234.136216 168.623487 
L 234.136216 176.134944 
L 234.136216 183.57321 
L 234.136216 190.915567 
L 234.136216 198.139297 
L 234.136216 205.221693 
L 234.136216 212.140065 
L 234.136216 218.871761 
L 234.136216 225.394185 
L 234.136216 231.684826 
L 234.136216 237.721295 
L 234.136216 243.481364 
L 234.136216 248.94302 
L 234.136216 254.084526 
L 234.136216 258.884491 
L 234.136216 263.321948 
L 234.136216 267.376448 
L 234.136216 271.028162 
L 234.136216 274.257987 
L 234.136216 277.047676 
L 234.136216 279.379969 
" clip-path="url(#p1daa503af9)" style="fill: none; stroke: #000000; stroke-opacity: 0.05; stroke-width: 1.5; stroke-linecap: square"/>
   </g>
   <g id="line2d_10">
    <path d="M 234.136216 279.379969 
L 238.223025 280.955164 
L 242.332518 282.03842 
L 246.449082 282.618489 
L 250.556619 282.685813 
L 254.638598 282.232664 
L 258.678114 281.253298 
L 262.657954 279.744091 
L 266.560676 277.703679 
L 270.368697 275.133093 
L 274.064384 272.035872 
L 277.630163 268.418179 
L 281.048627 264.288889 
L 284.302654 259.659662 
L 287.375538 254.544997 
L 290.251109 248.962259 
L 292.913876 242.93168 
L 295.349149 236.47633 
L 297.543183 229.62206 
L 299.483302 222.397414 
L 301.158027 214.833502 
L 302.557195 206.963851 
L 303.672068 198.824212 
L 304.495434 190.452349 
L 305.021691 181.887794 
L 305.246916 173.171569 
L 305.168924 164.345901 
L 304.7873 155.453907 
L 304.103417 146.539267 
L 303.120441 137.645892 
L 301.843301 128.817581 
L 300.278657 120.097687 
L 298.434836 111.528782 
L 296.321761 103.152336 
L 293.950858 95.008411 
L 291.334946 87.135379 
L 288.488124 79.569655 
L 285.425639 72.345464 
L 282.163747 65.49464 
L 278.719574 59.046446 
L 275.110965 53.027439 
L 271.356342 47.461357 
L 267.474549 42.369047 
L 263.484717 37.768423 
L 259.406118 33.674451 
L 255.258036 30.099167 
L 251.059644 27.05172 
L 246.829881 24.538439 
L 242.587357 22.562922 
L 238.350248 21.126139 
L 234.136216 20.226559 
L 229.962334 19.860276 
L 225.845024 20.02116 
L 221.800004 20.700999 
L 217.842245 21.889656 
L 213.98594 23.57522 
L 210.24448 25.744163 
L 206.630438 28.38149 
L 203.155562 31.470884 
L 199.830771 34.994846 
L 196.666166 38.934834 
L 193.67103 43.271385 
L 190.853851 47.984234 
L 188.222332 53.052424 
L 185.783414 58.454408 
L 183.543298 64.168137 
L 181.507466 70.171145 
L 179.680705 76.440622 
L 178.06713 82.953476 
L 176.670211 89.686397 
L 175.49279 96.615899 
L 174.537107 103.718367 
L 173.804819 110.970093 
L 173.297017 118.347304 
L 173.014243 125.826188 
L 172.956504 133.382917 
L 173.123288 140.993662 
L 173.513568 148.634609 
L 174.125813 156.281971 
L 174.95799 163.911997 
L 176.007572 171.500985 
L 177.271534 179.025292 
L 178.746351 186.461342 
L 180.427996 193.785644 
L 182.311932 200.9748 
L 184.393108 208.005532 
L 186.665945 214.854694 
L 189.124326 221.499306 
L 191.761589 227.916582 
L 194.570508 234.083966 
L 197.543285 239.979178 
L 200.671537 245.58026 
L 203.94628 250.865638 
L 207.357926 255.814187 
L 210.896266 260.4053 
L 214.550465 264.618974 
L 218.309062 268.4359 
L 222.159963 271.83756 
L 226.090449 274.806337 
L 230.087181 277.325628 
L 234.136216 279.379969 
" clip-path="url(#p1daa503af9)" style="fill: none; stroke: #000000; stroke-opacity: 0.05; stroke-width: 1.5; stroke-linecap: square"/>
   </g>
   <g id="line2d_11">
    <path d="M 234.136216 279.379969 
L 241.200848 280.182521 
L 248.276718 280.487638 
L 255.336801 280.290007 
L 262.353675 279.58613 
L 269.299611 278.374409 
L 276.146675 276.655218 
L 282.866846 274.430965 
L 289.432127 271.706161 
L 295.81468 268.487466 
L 301.986955 264.783734 
L 307.921834 260.606042 
L 313.592776 255.967713 
L 318.973969 250.884315 
L 324.040481 245.373653 
L 328.768424 239.455746 
L 333.135103 233.152777 
L 337.119176 226.489038 
L 340.700807 219.490852 
L 343.861814 212.186468 
L 346.585809 204.605953 
L 348.858334 196.781055 
L 350.666985 188.74505 
L 352.001518 180.532579 
L 352.853951 172.17946 
L 353.218644 163.72249 
L 353.092365 155.199241 
L 352.474334 146.647833 
L 351.366255 138.10671 
L 349.77232 129.614407 
L 347.699201 121.209309 
L 345.156016 112.929419 
L 342.154276 104.812116 
L 338.707817 96.893931 
L 334.832703 89.21032 
L 330.547129 81.795453 
L 325.871284 74.682007 
L 320.827224 67.900987 
L 315.438713 61.481548 
L 309.731062 55.450844 
L 303.730959 49.833891 
L 297.466291 44.653456 
L 290.965957 39.929954 
L 284.259687 35.681383 
L 277.377853 31.923261 
L 270.351286 28.668598 
L 263.211092 25.92788 
L 255.988481 23.709073 
L 248.71459 22.017645 
L 241.420327 20.856605 
L 234.136216 20.226559 
L 226.892255 20.12577 
L 219.717782 20.550248 
L 212.641356 21.493828 
L 205.690645 22.948275 
L 198.892331 24.903387 
L 192.272022 27.347106 
L 185.854177 30.265631 
L 179.662041 33.643535 
L 173.717593 37.463885 
L 168.041505 41.708356 
L 162.6531 46.357355 
L 157.570334 51.390128 
L 152.809775 56.784879 
L 148.386593 62.518875 
L 144.314556 68.568551 
L 140.606029 74.909615 
L 137.271983 81.517137 
L 134.322004 88.365648 
L 131.764305 95.42922 
L 129.605743 102.681549 
L 127.851837 110.096034 
L 126.506787 117.645847 
L 125.573491 125.304001 
L 125.053573 133.043414 
L 124.947396 140.836969 
L 125.254086 148.657571 
L 125.971551 156.4782 
L 127.096501 164.271966 
L 128.624463 172.012153 
L 130.549803 179.672273 
L 132.865736 187.226112 
L 135.564348 194.647774 
L 138.636602 201.911732 
L 142.072359 208.992874 
L 145.860385 215.866552 
L 149.988367 222.508631 
L 154.442923 228.895545 
L 159.209619 235.004344 
L 164.272975 240.812756 
L 169.616488 246.299247 
L 175.222642 251.443078 
L 181.072932 256.224372 
L 187.147879 260.624187 
L 193.42706 264.624579 
L 199.889133 268.208686 
L 206.511872 271.360795 
L 213.272201 274.066431 
L 220.146241 276.312432 
L 227.109357 278.087037 
L 234.136216 279.379969 
" clip-path="url(#p1daa503af9)" style="fill: none; stroke: #000000; stroke-opacity: 0.05; stroke-width: 1.5; stroke-linecap: square"/>
   </g>
   <g id="line2d_12">
    <path d="M 196.084325 25.764927 
L 196.04747 26.651292 
L 196.32591 27.91691 
L 196.923254 29.562217 
L 197.841736 31.585893 
L 199.082123 33.984778 
L 200.643633 36.753788 
L 202.523859 39.885853 
L 204.718706 43.37186 
L 207.222338 47.200625 
L 210.027139 51.358869 
L 213.123691 55.831225 
L 216.500771 60.600266 
L 220.145359 65.646551 
L 224.042678 70.948698 
L 228.176244 76.483486 
L 232.527941 82.225971 
L 237.078119 88.149637 
L 241.80571 94.226561 
L 246.688362 100.427606 
L 251.702592 106.722623 
L 256.823958 113.080682 
L 262.027241 119.470302 
L 267.286638 125.859699 
L 272.575966 132.21704 
L 277.868868 138.510692 
L 283.139025 144.709471 
L 288.36036 150.782893 
L 293.507244 156.7014 
L 298.55469 162.436586 
L 303.478537 167.961398 
L 308.255624 173.250319 
L 312.863944 178.279536 
L 317.282779 183.027072 
L 321.492829 187.472909 
L 325.476302 191.59907 
L 329.217003 195.389689 
L 332.700388 198.831049 
L 335.913608 201.911598 
L 338.845528 204.621943 
L 341.486732 206.954825 
L 343.829508 208.905071 
L 345.867821 210.469531 
L 347.597267 211.647004 
L 349.015023 212.438147 
L 350.119782 212.845375 
L 350.911678 212.872758 
L 351.39221 212.525906 
L 351.564158 211.811856 
L 351.431496 210.738955 
L 350.999305 209.316745 
L 350.273684 207.555846 
L 349.261664 205.46785 
L 347.971122 203.065209 
L 346.410699 200.361137 
L 344.589723 197.369511 
L 342.518131 194.104785 
L 340.206404 190.581905 
L 337.6655 186.816234 
L 334.906795 182.823484 
L 331.942027 178.619651 
L 328.783253 174.220963 
L 325.442797 169.643833 
L 321.93322 164.904811 
L 318.267278 160.020553 
L 314.457901 155.007787 
L 310.518162 149.883291 
L 306.461258 144.663867 
L 302.300495 139.366327 
L 298.049269 134.007476 
L 293.721061 128.604105 
L 289.329423 123.172982 
L 284.887972 117.730842 
L 280.410386 112.294385 
L 275.910401 106.880271 
L 271.401803 101.505116 
L 266.898429 96.185486 
L 262.41416 90.937893 
L 257.962919 85.778789 
L 253.558665 80.724557 
L 249.215386 75.791498 
L 244.947089 70.995818 
L 240.767789 66.353614 
L 236.691494 61.880847 
L 232.732189 57.59332 
L 228.903812 53.506647 
L 225.220227 49.636214 
L 221.695198 45.997142 
L 218.342349 42.604238 
L 215.175125 39.471937 
L 212.206744 36.614251 
L 209.450147 34.044692 
L 206.91794 31.776208 
L 204.622328 29.821096 
L 202.575048 28.190923 
L 200.78729 26.89643 
L 199.26962 25.947438 
L 198.031892 25.352746 
L 197.08316 25.120028 
L 196.431582 25.255722 
L 196.084325 25.764927 
" clip-path="url(#p1daa503af9)" style="fill: none; stroke: #ff0000; stroke-width: 1.5; stroke-linecap: square"/>
   </g>
   <g id="line2d_13">
    <path d="M 148.579029 51.369747 
L 148.277007 52.474569 
L 148.318297 53.992508 
L 148.708386 55.923971 
L 149.451291 58.267423 
L 150.549441 61.01928 
L 152.003575 64.173817 
L 153.812639 67.723081 
L 155.973702 71.656832 
L 158.481873 75.962498 
L 161.330251 80.625147 
L 164.509875 85.627494 
L 168.009706 90.949924 
L 171.816623 96.570548 
L 175.91545 102.465287 
L 180.289002 108.607982 
L 184.918156 114.970541 
L 189.781953 121.523102 
L 194.857718 128.234236 
L 200.12121 135.071167 
L 205.546788 142.000017 
L 211.107608 148.986065 
L 216.775826 155.994033 
L 222.522824 162.988364 
L 228.31944 169.933526 
L 234.136216 176.7943 
L 239.943637 183.536072 
L 245.712377 190.125122 
L 251.413539 196.528884 
L 257.018886 202.716203 
L 262.50106 208.657567 
L 267.833781 214.325308 
L 272.99204 219.693785 
L 277.952255 224.739533 
L 282.692419 229.441384 
L 287.192219 233.780554 
L 291.433127 237.74071 
L 295.398475 241.307991 
L 299.073501 244.471017 
L 302.445371 247.220863 
L 305.503187 249.551012 
L 308.237968 251.457287 
L 310.642614 252.93776 
L 312.711856 253.992656 
L 314.442195 254.624229 
L 315.83182 254.836643 
L 316.880529 254.635837 
L 317.589632 254.029389 
L 317.961859 253.026374 
L 318.001254 251.637228 
L 317.713075 249.873612 
L 317.103695 247.748274 
L 316.1805 245.274925 
L 314.95179 242.468117 
L 313.426688 239.343126 
L 311.615051 235.915848 
L 309.527387 232.202699 
L 307.174773 228.220525 
L 304.56879 223.98652 
L 301.721451 219.518156 
L 298.645146 214.833117 
L 295.352587 209.949241 
L 291.856761 204.884477 
L 288.170893 199.65684 
L 284.308405 194.284375 
L 280.28289 188.785134 
L 276.108087 183.177152 
L 271.797859 177.478428 
L 267.366179 171.706913 
L 262.827117 165.880504 
L 258.194832 160.017033 
L 253.483565 154.13427 
L 248.707634 148.249917 
L 243.881438 142.381611 
L 239.019448 136.546924 
L 234.136216 130.763363 
L 229.246371 125.048375 
L 224.364622 119.41934 
L 219.505757 113.893575 
L 214.684643 108.488325 
L 209.916224 103.220759 
L 205.215516 98.107958 
L 200.597601 93.166897 
L 196.077613 88.414434 
L 191.670729 83.867276 
L 187.392147 79.541954 
L 183.257063 75.454789 
L 179.280643 71.621842 
L 175.477992 68.058871 
L 171.864109 64.781271 
L 168.45384 61.80401 
L 165.261829 59.141555 
L 162.302453 56.807794 
L 159.589754 54.815948 
L 157.137366 53.178473 
L 154.958429 51.906961 
L 153.0655 51.012028 
L 151.470457 50.503201 
L 150.184395 50.388798 
L 149.217518 50.675804 
L 148.579029 51.369747 
" clip-path="url(#p1daa503af9)" style="fill: none; stroke: #008000; stroke-width: 1.5; stroke-linecap: square"/>
   </g>
   <g id="line2d_14">
    <path d="M 115.664752 93.459003 
L 115.223522 94.67899 
L 115.096114 96.274278 
L 115.28778 98.243816 
L 115.802447 100.584784 
L 116.642615 103.29251 
L 117.809271 106.360405 
L 119.301801 109.779903 
L 121.11792 113.540422 
L 123.253603 117.62934 
L 125.703041 122.031991 
L 128.458602 126.731677 
L 131.51081 131.709713 
L 134.848354 136.945479 
L 138.458098 142.416512 
L 142.325124 148.098611 
L 146.432795 153.965971 
L 150.762835 159.991335 
L 155.295432 166.146175 
L 160.009361 172.400884 
L 164.882124 178.72499 
L 169.890115 185.087383 
L 175.008786 191.456558 
L 180.212841 197.800853 
L 185.476428 204.088704 
L 190.773346 210.288896 
L 196.077251 216.370804 
L 201.361865 222.304634 
L 206.601178 228.06165 
L 211.769654 233.614382 
L 216.842415 238.936825 
L 221.795423 244.004609 
L 226.605646 248.795151 
L 231.251206 253.287784 
L 235.711511 257.46386 
L 239.967368 261.306824 
L 244.001077 264.802272 
L 247.796508 267.937975 
L 251.339148 270.703888 
L 254.616145 273.092131 
L 257.616321 275.096951 
L 260.330172 276.71467 
L 262.749852 277.943611 
L 264.869145 278.784018 
L 266.683424 279.237954 
L 268.189591 279.309204 
L 269.38602 279.003155 
L 270.272486 278.326689 
L 270.850089 277.28806 
L 271.121174 275.896774 
L 271.089247 274.163476 
L 270.758897 272.099829 
L 270.135706 269.718408 
L 269.226172 267.032588 
L 268.037625 264.056446 
L 266.578155 260.804665 
L 264.85653 257.292445 
L 262.882138 253.535422 
L 260.66491 249.549593 
L 258.215269 245.35125 
L 255.544071 240.956917 
L 252.662553 236.383301 
L 249.582293 231.647241 
L 246.315163 226.765668 
L 242.8733 221.755574 
L 239.269069 216.633979 
L 235.515042 211.417904 
L 231.623969 206.12436 
L 227.608765 200.77032 
L 223.482491 195.372716 
L 219.25834 189.948423 
L 214.94963 184.514252 
L 210.569794 179.086946 
L 206.132374 173.683172 
L 201.651017 168.31952 
L 197.139469 163.012493 
L 192.611573 157.778508 
L 188.081264 152.633884 
L 183.562569 147.594841 
L 179.069595 142.677485 
L 174.616529 137.897797 
L 170.217626 133.271619 
L 165.887201 128.814634 
L 161.639616 124.542343 
L 157.48926 120.470037 
L 153.450533 116.612768 
L 149.537818 112.985307 
L 145.765459 109.602103 
L 142.147716 106.477235 
L 138.69874 103.624356 
L 135.432514 101.056631 
L 132.362817 98.786673 
L 129.503154 96.826465 
L 126.866704 95.187283 
L 124.466247 93.879612 
L 122.314087 92.913054 
L 120.421977 92.296233 
L 118.80103 92.036698 
L 117.461626 92.140818 
L 116.413323 92.613685 
L 115.664752 93.459003 
" clip-path="url(#p1daa503af9)" style="fill: none; stroke: #0000ff; stroke-width: 1.5; stroke-linecap: square"/>
   </g>
   <g id="text_1">
    <!-- N -->
    <g transform="translate(361.940488 154.543159) scale(0.1 -0.1)">
     <defs>
      <path id="DejaVuSans-4e" d="M 628 4666 
L 1478 4666 
L 3547 763 
L 3547 4666 
L 4159 4666 
L 4159 0 
L 3309 0 
L 1241 3903 
L 1241 0 
L 628 0 
L 628 4666 
z
" transform="scale(0.015625)"/>
     </defs>
     <use xlink:href="#DejaVuSans-4e"/>
    </g>
   </g>
   <g id="text_2">
    <!-- E -->
    <g transform="translate(230.976841 179.553675) scale(0.1 -0.1)">
     <defs>
      <path id="DejaVuSans-45" d="M 628 4666 
L 3578 4666 
L 3578 4134 
L 1259 4134 
L 1259 2753 
L 3481 2753 
L 3481 2222 
L 1259 2222 
L 1259 531 
L 3634 531 
L 3634 0 
L 628 0 
L 628 4666 
z
" transform="scale(0.015625)"/>
     </defs>
     <use xlink:href="#DejaVuSans-45"/>
    </g>
   </g>
   <g id="text_3">
    <!-- S -->
    <g transform="translate(99.417101 154.543159) scale(0.1 -0.1)">
     <defs>
      <path id="DejaVuSans-53" d="M 3425 4513 
L 3425 3897 
Q 3066 4069 2747 4153 
Q 2428 4238 2131 4238 
Q 1616 4238 1336 4038 
Q 1056 3838 1056 3469 
Q 1056 3159 1242 3001 
Q 1428 2844 1947 2747 
L 2328 2669 
Q 3034 2534 3370 2195 
Q 3706 1856 3706 1288 
Q 3706 609 3251 259 
Q 2797 -91 1919 -91 
Q 1588 -91 1214 -16 
Q 841 59 441 206 
L 441 856 
Q 825 641 1194 531 
Q 1563 422 1919 422 
Q 2459 422 2753 634 
Q 3047 847 3047 1241 
Q 3047 1584 2836 1778 
Q 2625 1972 2144 2069 
L 1759 2144 
Q 1053 2284 737 2584 
Q 422 2884 422 3419 
Q 422 4038 858 4394 
Q 1294 4750 2059 4750 
Q 2388 4750 2728 4690 
Q 3069 4631 3425 4513 
z
" transform="scale(0.015625)"/>
     </defs>
     <use xlink:href="#DejaVuSans-53"/>
    </g>
   </g>
   <g id="text_4">
    <!-- W -->
    <g transform="translate(229.192466 133.522738) scale(0.1 -0.1)">
     <defs>
      <path id="DejaVuSans-57" d="M 213 4666 
L 850 4666 
L 1831 722 
L 2809 4666 
L 3519 4666 
L 4500 722 
L 5478 4666 
L 6119 4666 
L 4947 0 
L 4153 0 
L 3169 4050 
L 2175 0 
L 1381 0 
L 213 4666 
z
" transform="scale(0.015625)"/>
     </defs>
     <use xlink:href="#DejaVuSans-57"/>
    </g>
   </g>
   <g id="text_5">
    <!-- Z -->
    <g transform="translate(230.711216 22.985934) scale(0.1 -0.1)">
     <defs>
      <path id="DejaVuSans-5a" d="M 359 4666 
L 4025 4666 
L 4025 4184 
L 1075 531 
L 4097 531 
L 4097 0 
L 288 0 
L 288 481 
L 3238 4134 
L 359 4134 
L 359 4666 
z
" transform="scale(0.015625)"/>
     </defs>
     <use xlink:href="#DejaVuSans-5a"/>
    </g>
   </g>
  </g>
  <g id="axes_2">
   <g id="patch_3">
    <path d="M 57.6 324 
L 172.8 324 
L 172.8 315.36 
L 57.6 315.36 
z
" clip-path="url(#pe86789a70c)" style="fill: #d3d3d3"/>
   </g>
   <g id="patch_4">
    <path d="M 57.6 324 
L 57.6 315.36 
L 72.60114 315.36 
L 72.60114 324 
z
" clip-path="url(#pe86789a70c)" style="fill: #1f77b4"/>
   </g>
   <g id="line2d_15">
    <path d="M 72.60114 328.32 
L 72.60114 311.04 
" clip-path="url(#p87306858b6)" style="fill: none; stroke: #ff0000; stroke-linecap: square"/>
   </g>
   <g id="line2d_16">
    <defs>
     <path id="m8e182b248e" d="M 0 5 
C 1.326016 5 2.597899 4.473168 3.535534 3.535534 
C 4.473168 2.597899 5 1.326016 5 0 
C 5 -1.326016 4.473168 -2.597899 3.535534 -3.535534 
C 2.597899 -4.473168 1.326016 -5 0 -5 
C -1.326016 -5 -2.597899 -4.473168 -3.535534 -3.535534 
C -4.473168 -2.597899 -5 -1.326016 -5 0 
C -5 1.326016 -4.473168 2.597899 -3.535534 3.535534 
C -2.597899 4.473168 -1.326016 5 0 5 
z
" style="stroke: #bfbfbf"/>
    </defs>
    <g>
     <use xlink:href="#m8e182b248e" x="72.60114" y="319.68" style="fill: #ffffff; stroke: #bfbfbf"/>
    </g>
   </g>
   <g id="text_6">
    <!-- obliquity -->
    <g transform="translate(11.969437 322.439375) scale(0.1 -0.1)">
     <defs>
      <path id="DejaVuSans-6f" d="M 1959 3097 
Q 1497 3097 1228 2736 
Q 959 2375 959 1747 
Q 959 1119 1226 758 
Q 1494 397 1959 397 
Q 2419 397 2687 759 
Q 2956 1122 2956 1747 
Q 2956 2369 2687 2733 
Q 2419 3097 1959 3097 
z
M 1959 3584 
Q 2709 3584 3137 3096 
Q 3566 2609 3566 1747 
Q 3566 888 3137 398 
Q 2709 -91 1959 -91 
Q 1206 -91 779 398 
Q 353 888 353 1747 
Q 353 2609 779 3096 
Q 1206 3584 1959 3584 
z
" transform="scale(0.015625)"/>
      <path id="DejaVuSans-62" d="M 3116 1747 
Q 3116 2381 2855 2742 
Q 2594 3103 2138 3103 
Q 1681 3103 1420 2742 
Q 1159 2381 1159 1747 
Q 1159 1113 1420 752 
Q 1681 391 2138 391 
Q 2594 391 2855 752 
Q 3116 1113 3116 1747 
z
M 1159 2969 
Q 1341 3281 1617 3432 
Q 1894 3584 2278 3584 
Q 2916 3584 3314 3078 
Q 3713 2572 3713 1747 
Q 3713 922 3314 415 
Q 2916 -91 2278 -91 
Q 1894 -91 1617 61 
Q 1341 213 1159 525 
L 1159 0 
L 581 0 
L 581 4863 
L 1159 4863 
L 1159 2969 
z
" transform="scale(0.015625)"/>
      <path id="DejaVuSans-6c" d="M 603 4863 
L 1178 4863 
L 1178 0 
L 603 0 
L 603 4863 
z
" transform="scale(0.015625)"/>
      <path id="DejaVuSans-69" d="M 603 3500 
L 1178 3500 
L 1178 0 
L 603 0 
L 603 3500 
z
M 603 4863 
L 1178 4863 
L 1178 4134 
L 603 4134 
L 603 4863 
z
" transform="scale(0.015625)"/>
      <path id="DejaVuSans-71" d="M 947 1747 
Q 947 1113 1208 752 
Q 1469 391 1925 391 
Q 2381 391 2643 752 
Q 2906 1113 2906 1747 
Q 2906 2381 2643 2742 
Q 2381 3103 1925 3103 
Q 1469 3103 1208 2742 
Q 947 2381 947 1747 
z
M 2906 525 
Q 2725 213 2448 61 
Q 2172 -91 1784 -91 
Q 1150 -91 751 415 
Q 353 922 353 1747 
Q 353 2572 751 3078 
Q 1150 3584 1784 3584 
Q 2172 3584 2448 3432 
Q 2725 3281 2906 2969 
L 2906 3500 
L 3481 3500 
L 3481 -1331 
L 2906 -1331 
L 2906 525 
z
" transform="scale(0.015625)"/>
      <path id="DejaVuSans-75" d="M 544 1381 
L 544 3500 
L 1119 3500 
L 1119 1403 
Q 1119 906 1312 657 
Q 1506 409 1894 409 
Q 2359 409 2629 706 
Q 2900 1003 2900 1516 
L 2900 3500 
L 3475 3500 
L 3475 0 
L 2900 0 
L 2900 538 
Q 2691 219 2414 64 
Q 2138 -91 1772 -91 
Q 1169 -91 856 284 
Q 544 659 544 1381 
z
M 1991 3584 
L 1991 3584 
z
" transform="scale(0.015625)"/>
      <path id="DejaVuSans-74" d="M 1172 4494 
L 1172 3500 
L 2356 3500 
L 2356 3053 
L 1172 3053 
L 1172 1153 
Q 1172 725 1289 603 
Q 1406 481 1766 481 
L 2356 481 
L 2356 0 
L 1766 0 
Q 1100 0 847 248 
Q 594 497 594 1153 
L 594 3053 
L 172 3053 
L 172 3500 
L 594 3500 
L 594 4494 
L 1172 4494 
z
" transform="scale(0.015625)"/>
      <path id="DejaVuSans-79" d="M 2059 -325 
Q 1816 -950 1584 -1140 
Q 1353 -1331 966 -1331 
L 506 -1331 
L 506 -850 
L 844 -850 
Q 1081 -850 1212 -737 
Q 1344 -625 1503 -206 
L 1606 56 
L 191 3500 
L 800 3500 
L 1894 763 
L 2988 3500 
L 3597 3500 
L 2059 -325 
z
" transform="scale(0.015625)"/>
     </defs>
     <use xlink:href="#DejaVuSans-6f"/>
     <use xlink:href="#DejaVuSans-62" x="61.181641"/>
     <use xlink:href="#DejaVuSans-6c" x="124.658203"/>
     <use xlink:href="#DejaVuSans-69" x="152.441406"/>
     <use xlink:href="#DejaVuSans-71" x="180.224609"/>
     <use xlink:href="#DejaVuSans-75" x="243.701172"/>
     <use xlink:href="#DejaVuSans-69" x="307.080078"/>
     <use xlink:href="#DejaVuSans-74" x="334.863281"/>
     <use xlink:href="#DejaVuSans-79" x="374.072266"/>
    </g>
   </g>
   <g id="text_7">
    <!-- $\mathdefault{0.409}$ -->
    <g transform="translate(175.104 322.439375) scale(0.1 -0.1)">
     <defs>
      <path id="DejaVuSans-30" d="M 2034 4250 
Q 1547 4250 1301 3770 
Q 1056 3291 1056 2328 
Q 1056 1369 1301 889 
Q 1547 409 2034 409 
Q 2525 409 2770 889 
Q 3016 1369 3016 2328 
Q 3016 3291 2770 3770 
Q 2525 4250 2034 4250 
z
M 2034 4750 
Q 2819 4750 3233 4129 
Q 3647 3509 3647 2328 
Q 3647 1150 3233 529 
Q 2819 -91 2034 -91 
Q 1250 -91 836 529 
Q 422 1150 422 2328 
Q 422 3509 836 4129 
Q 1250 4750 2034 4750 
z
" transform="scale(0.015625)"/>
      <path id="DejaVuSans-2e" d="M 684 794 
L 1344 794 
L 1344 0 
L 684 0 
L 684 794 
z
" transform="scale(0.015625)"/>
      <path id="DejaVuSans-34" d="M 2419 4116 
L 825 1625 
L 2419 1625 
L 2419 4116 
z
M 2253 4666 
L 3047 4666 
L 3047 1625 
L 3713 1625 
L 3713 1100 
L 3047 1100 
L 3047 0 
L 2419 0 
L 2419 1100 
L 313 1100 
L 313 1709 
L 2253 4666 
z
" transform="scale(0.015625)"/>
      <path id="DejaVuSans-39" d="M 703 97 
L 703 672 
Q 941 559 1184 500 
Q 1428 441 1663 441 
Q 2288 441 2617 861 
Q 2947 1281 2994 2138 
Q 2813 1869 2534 1725 
Q 2256 1581 1919 1581 
Q 1219 1581 811 2004 
Q 403 2428 403 3163 
Q 403 3881 828 4315 
Q 1253 4750 1959 4750 
Q 2769 4750 3195 4129 
Q 3622 3509 3622 2328 
Q 3622 1225 3098 567 
Q 2575 -91 1691 -91 
Q 1453 -91 1209 -44 
Q 966 3 703 97 
z
M 1959 2075 
Q 2384 2075 2632 2365 
Q 2881 2656 2881 3163 
Q 2881 3666 2632 3958 
Q 2384 4250 1959 4250 
Q 1534 4250 1286 3958 
Q 1038 3666 1038 3163 
Q 1038 2656 1286 2365 
Q 1534 2075 1959 2075 
z
" transform="scale(0.015625)"/>
     </defs>
     <use xlink:href="#DejaVuSans-30" transform="translate(0 0.78125)"/>
     <use xlink:href="#DejaVuSans-2e" transform="translate(63.623047 0.78125)"/>
     <use xlink:href="#DejaVuSans-34" transform="translate(95.410156 0.78125)"/>
     <use xlink:href="#DejaVuSans-30" transform="translate(159.033203 0.78125)"/>
     <use xlink:href="#DejaVuSans-39" transform="translate(222.65625 0.78125)"/>
    </g>
   </g>
  </g>
  <g id="axes_3">
   <g id="patch_5">
    <path d="M 288 324 
L 403.2 324 
L 403.2 315.36 
L 288 315.36 
z
" clip-path="url(#p43da468c3e)" style="fill: #d3d3d3"/>
   </g>
   <g id="patch_6">
    <path d="M 288 324 
L 288 315.36 
L 371.2 315.36 
L 371.2 324 
z
" clip-path="url(#p43da468c3e)" style="fill: #1f77b4"/>
   </g>
   <g id="line2d_17">
    <path d="M 371.2 328.32 
L 371.2 311.04 
" clip-path="url(#p16ad9661ad)" style="fill: none; stroke: #ff0000; stroke-linecap: square"/>
   </g>
   <g id="line2d_18">
    <g>
     <use xlink:href="#m8e182b248e" x="371.2" y="319.68" style="fill: #ffffff; stroke: #bfbfbf"/>
    </g>
   </g>
   <g id="text_8">
    <!-- latitude -->
    <g transform="translate(247.331938 322.439375) scale(0.1 -0.1)">
     <defs>
      <path id="DejaVuSans-61" d="M 2194 1759 
Q 1497 1759 1228 1600 
Q 959 1441 959 1056 
Q 959 750 1161 570 
Q 1363 391 1709 391 
Q 2188 391 2477 730 
Q 2766 1069 2766 1631 
L 2766 1759 
L 2194 1759 
z
M 3341 1997 
L 3341 0 
L 2766 0 
L 2766 531 
Q 2569 213 2275 61 
Q 1981 -91 1556 -91 
Q 1019 -91 701 211 
Q 384 513 384 1019 
Q 384 1609 779 1909 
Q 1175 2209 1959 2209 
L 2766 2209 
L 2766 2266 
Q 2766 2663 2505 2880 
Q 2244 3097 1772 3097 
Q 1472 3097 1187 3025 
Q 903 2953 641 2809 
L 641 3341 
Q 956 3463 1253 3523 
Q 1550 3584 1831 3584 
Q 2591 3584 2966 3190 
Q 3341 2797 3341 1997 
z
" transform="scale(0.015625)"/>
      <path id="DejaVuSans-64" d="M 2906 2969 
L 2906 4863 
L 3481 4863 
L 3481 0 
L 2906 0 
L 2906 525 
Q 2725 213 2448 61 
Q 2172 -91 1784 -91 
Q 1150 -91 751 415 
Q 353 922 353 1747 
Q 353 2572 751 3078 
Q 1150 3584 1784 3584 
Q 2172 3584 2448 3432 
Q 2725 3281 2906 2969 
z
M 947 1747 
Q 947 1113 1208 752 
Q 1469 391 1925 391 
Q 2381 391 2643 752 
Q 2906 1113 2906 1747 
Q 2906 2381 2643 2742 
Q 2381 3103 1925 3103 
Q 1469 3103 1208 2742 
Q 947 2381 947 1747 
z
" transform="scale(0.015625)"/>
      <path id="DejaVuSans-65" d="M 3597 1894 
L 3597 1613 
L 953 1613 
Q 991 1019 1311 708 
Q 1631 397 2203 397 
Q 2534 397 2845 478 
Q 3156 559 3463 722 
L 3463 178 
Q 3153 47 2828 -22 
Q 2503 -91 2169 -91 
Q 1331 -91 842 396 
Q 353 884 353 1716 
Q 353 2575 817 3079 
Q 1281 3584 2069 3584 
Q 2775 3584 3186 3129 
Q 3597 2675 3597 1894 
z
M 3022 2063 
Q 3016 2534 2758 2815 
Q 2500 3097 2075 3097 
Q 1594 3097 1305 2825 
Q 1016 2553 972 2059 
L 3022 2063 
z
" transform="scale(0.015625)"/>
     </defs>
     <use xlink:href="#DejaVuSans-6c"/>
     <use xlink:href="#DejaVuSans-61" x="27.783203"/>
     <use xlink:href="#DejaVuSans-74" x="89.0625"/>
     <use xlink:href="#DejaVuSans-69" x="128.271484"/>
     <use xlink:href="#DejaVuSans-74" x="156.054688"/>
     <use xlink:href="#DejaVuSans-75" x="195.263672"/>
     <use xlink:href="#DejaVuSans-64" x="258.642578"/>
     <use xlink:href="#DejaVuSans-65" x="322.119141"/>
    </g>
   </g>
   <g id="text_9">
    <!-- $\mathdefault{0.698}$ -->
    <g transform="translate(405.504 322.439375) scale(0.1 -0.1)">
     <defs>
      <path id="DejaVuSans-36" d="M 2113 2584 
Q 1688 2584 1439 2293 
Q 1191 2003 1191 1497 
Q 1191 994 1439 701 
Q 1688 409 2113 409 
Q 2538 409 2786 701 
Q 3034 994 3034 1497 
Q 3034 2003 2786 2293 
Q 2538 2584 2113 2584 
z
M 3366 4563 
L 3366 3988 
Q 3128 4100 2886 4159 
Q 2644 4219 2406 4219 
Q 1781 4219 1451 3797 
Q 1122 3375 1075 2522 
Q 1259 2794 1537 2939 
Q 1816 3084 2150 3084 
Q 2853 3084 3261 2657 
Q 3669 2231 3669 1497 
Q 3669 778 3244 343 
Q 2819 -91 2113 -91 
Q 1303 -91 875 529 
Q 447 1150 447 2328 
Q 447 3434 972 4092 
Q 1497 4750 2381 4750 
Q 2619 4750 2861 4703 
Q 3103 4656 3366 4563 
z
" transform="scale(0.015625)"/>
      <path id="DejaVuSans-38" d="M 2034 2216 
Q 1584 2216 1326 1975 
Q 1069 1734 1069 1313 
Q 1069 891 1326 650 
Q 1584 409 2034 409 
Q 2484 409 2743 651 
Q 3003 894 3003 1313 
Q 3003 1734 2745 1975 
Q 2488 2216 2034 2216 
z
M 1403 2484 
Q 997 2584 770 2862 
Q 544 3141 544 3541 
Q 544 4100 942 4425 
Q 1341 4750 2034 4750 
Q 2731 4750 3128 4425 
Q 3525 4100 3525 3541 
Q 3525 3141 3298 2862 
Q 3072 2584 2669 2484 
Q 3125 2378 3379 2068 
Q 3634 1759 3634 1313 
Q 3634 634 3220 271 
Q 2806 -91 2034 -91 
Q 1263 -91 848 271 
Q 434 634 434 1313 
Q 434 1759 690 2068 
Q 947 2378 1403 2484 
z
M 1172 3481 
Q 1172 3119 1398 2916 
Q 1625 2713 2034 2713 
Q 2441 2713 2670 2916 
Q 2900 3119 2900 3481 
Q 2900 3844 2670 4047 
Q 2441 4250 2034 4250 
Q 1625 4250 1398 4047 
Q 1172 3844 1172 3481 
z
" transform="scale(0.015625)"/>
     </defs>
     <use xlink:href="#DejaVuSans-30" transform="translate(0 0.78125)"/>
     <use xlink:href="#DejaVuSans-2e" transform="translate(63.623047 0.78125)"/>
     <use xlink:href="#DejaVuSans-36" transform="translate(95.410156 0.78125)"/>
     <use xlink:href="#DejaVuSans-39" transform="translate(159.033203 0.78125)"/>
     <use xlink:href="#DejaVuSans-38" transform="translate(222.65625 0.78125)"/>
    </g>
   </g>
  </g>
  <g id="legend_1">
   <g id="patch_7">
    <path d="M 319.882437 281.848 
L 444.584 281.848 
Q 446.584 281.848 446.584 279.848 
L 446.584 236.813625 
Q 446.584 234.813625 444.584 234.813625 
L 319.882437 234.813625 
Q 317.882437 234.813625 317.882437 236.813625 
L 317.882437 279.848 
Q 317.882437 281.848 319.882437 281.848 
z
" style="fill: #ffffff; opacity: 0.8; stroke: #cccccc; stroke-linejoin: miter"/>
   </g>
   <g id="line2d_19">
    <path d="M 321.882437 242.912062 
L 331.882437 242.912062 
L 341.882437 242.912062 
" style="fill: none; stroke: #ff0000; stroke-width: 1.5; stroke-linecap: square"/>
   </g>
   <g id="text_10">
    <!-- June solstice -->
    <g transform="translate(349.882437 246.412062) scale(0.1 -0.1)">
     <defs>
      <path id="DejaVuSans-4a" d="M 628 4666 
L 1259 4666 
L 1259 325 
Q 1259 -519 939 -900 
Q 619 -1281 -91 -1281 
L -331 -1281 
L -331 -750 
L -134 -750 
Q 284 -750 456 -515 
Q 628 -281 628 325 
L 628 4666 
z
" transform="scale(0.015625)"/>
      <path id="DejaVuSans-6e" d="M 3513 2113 
L 3513 0 
L 2938 0 
L 2938 2094 
Q 2938 2591 2744 2837 
Q 2550 3084 2163 3084 
Q 1697 3084 1428 2787 
Q 1159 2491 1159 1978 
L 1159 0 
L 581 0 
L 581 3500 
L 1159 3500 
L 1159 2956 
Q 1366 3272 1645 3428 
Q 1925 3584 2291 3584 
Q 2894 3584 3203 3211 
Q 3513 2838 3513 2113 
z
" transform="scale(0.015625)"/>
      <path id="DejaVuSans-20" transform="scale(0.015625)"/>
      <path id="DejaVuSans-73" d="M 2834 3397 
L 2834 2853 
Q 2591 2978 2328 3040 
Q 2066 3103 1784 3103 
Q 1356 3103 1142 2972 
Q 928 2841 928 2578 
Q 928 2378 1081 2264 
Q 1234 2150 1697 2047 
L 1894 2003 
Q 2506 1872 2764 1633 
Q 3022 1394 3022 966 
Q 3022 478 2636 193 
Q 2250 -91 1575 -91 
Q 1294 -91 989 -36 
Q 684 19 347 128 
L 347 722 
Q 666 556 975 473 
Q 1284 391 1588 391 
Q 1994 391 2212 530 
Q 2431 669 2431 922 
Q 2431 1156 2273 1281 
Q 2116 1406 1581 1522 
L 1381 1569 
Q 847 1681 609 1914 
Q 372 2147 372 2553 
Q 372 3047 722 3315 
Q 1072 3584 1716 3584 
Q 2034 3584 2315 3537 
Q 2597 3491 2834 3397 
z
" transform="scale(0.015625)"/>
      <path id="DejaVuSans-63" d="M 3122 3366 
L 3122 2828 
Q 2878 2963 2633 3030 
Q 2388 3097 2138 3097 
Q 1578 3097 1268 2742 
Q 959 2388 959 1747 
Q 959 1106 1268 751 
Q 1578 397 2138 397 
Q 2388 397 2633 464 
Q 2878 531 3122 666 
L 3122 134 
Q 2881 22 2623 -34 
Q 2366 -91 2075 -91 
Q 1284 -91 818 406 
Q 353 903 353 1747 
Q 353 2603 823 3093 
Q 1294 3584 2113 3584 
Q 2378 3584 2631 3529 
Q 2884 3475 3122 3366 
z
" transform="scale(0.015625)"/>
     </defs>
     <use xlink:href="#DejaVuSans-4a"/>
     <use xlink:href="#DejaVuSans-75" x="29.492188"/>
     <use xlink:href="#DejaVuSans-6e" x="92.871094"/>
     <use xlink:href="#DejaVuSans-65" x="156.25"/>
     <use xlink:href="#DejaVuSans-20" x="217.773438"/>
     <use xlink:href="#DejaVuSans-73" x="249.560547"/>
     <use xlink:href="#DejaVuSans-6f" x="301.660156"/>
     <use xlink:href="#DejaVuSans-6c" x="362.841797"/>
     <use xlink:href="#DejaVuSans-73" x="390.625"/>
     <use xlink:href="#DejaVuSans-74" x="442.724609"/>
     <use xlink:href="#DejaVuSans-69" x="481.933594"/>
     <use xlink:href="#DejaVuSans-63" x="509.716797"/>
     <use xlink:href="#DejaVuSans-65" x="564.697266"/>
    </g>
   </g>
   <g id="line2d_20">
    <path d="M 321.882437 257.590187 
L 331.882437 257.590187 
L 341.882437 257.590187 
" style="fill: none; stroke: #008000; stroke-width: 1.5; stroke-linecap: square"/>
   </g>
   <g id="text_11">
    <!-- equinoxes -->
    <g transform="translate(349.882437 261.090187) scale(0.1 -0.1)">
     <defs>
      <path id="DejaVuSans-78" d="M 3513 3500 
L 2247 1797 
L 3578 0 
L 2900 0 
L 1881 1375 
L 863 0 
L 184 0 
L 1544 1831 
L 300 3500 
L 978 3500 
L 1906 2253 
L 2834 3500 
L 3513 3500 
z
" transform="scale(0.015625)"/>
     </defs>
     <use xlink:href="#DejaVuSans-65"/>
     <use xlink:href="#DejaVuSans-71" x="61.523438"/>
     <use xlink:href="#DejaVuSans-75" x="125"/>
     <use xlink:href="#DejaVuSans-69" x="188.378906"/>
     <use xlink:href="#DejaVuSans-6e" x="216.162109"/>
     <use xlink:href="#DejaVuSans-6f" x="279.541016"/>
     <use xlink:href="#DejaVuSans-78" x="337.597656"/>
     <use xlink:href="#DejaVuSans-65" x="393.652344"/>
     <use xlink:href="#DejaVuSans-73" x="455.175781"/>
    </g>
   </g>
   <g id="line2d_21">
    <path d="M 321.882437 272.268312 
L 331.882437 272.268312 
L 341.882437 272.268312 
" style="fill: none; stroke: #0000ff; stroke-width: 1.5; stroke-linecap: square"/>
   </g>
   <g id="text_12">
    <!-- December solstice -->
    <g transform="translate(349.882437 275.768312) scale(0.1 -0.1)">
     <defs>
      <path id="DejaVuSans-44" d="M 1259 4147 
L 1259 519 
L 2022 519 
Q 2988 519 3436 956 
Q 3884 1394 3884 2338 
Q 3884 3275 3436 3711 
Q 2988 4147 2022 4147 
L 1259 4147 
z
M 628 4666 
L 1925 4666 
Q 3281 4666 3915 4102 
Q 4550 3538 4550 2338 
Q 4550 1131 3912 565 
Q 3275 0 1925 0 
L 628 0 
L 628 4666 
z
" transform="scale(0.015625)"/>
      <path id="DejaVuSans-6d" d="M 3328 2828 
Q 3544 3216 3844 3400 
Q 4144 3584 4550 3584 
Q 5097 3584 5394 3201 
Q 5691 2819 5691 2113 
L 5691 0 
L 5113 0 
L 5113 2094 
Q 5113 2597 4934 2840 
Q 4756 3084 4391 3084 
Q 3944 3084 3684 2787 
Q 3425 2491 3425 1978 
L 3425 0 
L 2847 0 
L 2847 2094 
Q 2847 2600 2669 2842 
Q 2491 3084 2119 3084 
Q 1678 3084 1418 2786 
Q 1159 2488 1159 1978 
L 1159 0 
L 581 0 
L 581 3500 
L 1159 3500 
L 1159 2956 
Q 1356 3278 1631 3431 
Q 1906 3584 2284 3584 
Q 2666 3584 2933 3390 
Q 3200 3197 3328 2828 
z
" transform="scale(0.015625)"/>
      <path id="DejaVuSans-72" d="M 2631 2963 
Q 2534 3019 2420 3045 
Q 2306 3072 2169 3072 
Q 1681 3072 1420 2755 
Q 1159 2438 1159 1844 
L 1159 0 
L 581 0 
L 581 3500 
L 1159 3500 
L 1159 2956 
Q 1341 3275 1631 3429 
Q 1922 3584 2338 3584 
Q 2397 3584 2469 3576 
Q 2541 3569 2628 3553 
L 2631 2963 
z
" transform="scale(0.015625)"/>
     </defs>
     <use xlink:href="#DejaVuSans-44"/>
     <use xlink:href="#DejaVuSans-65" x="77.001953"/>
     <use xlink:href="#DejaVuSans-63" x="138.525391"/>
     <use xlink:href="#DejaVuSans-65" x="193.505859"/>
     <use xlink:href="#DejaVuSans-6d" x="255.029297"/>
     <use xlink:href="#DejaVuSans-62" x="352.441406"/>
     <use xlink:href="#DejaVuSans-65" x="415.917969"/>
     <use xlink:href="#DejaVuSans-72" x="477.441406"/>
     <use xlink:href="#DejaVuSans-20" x="518.554688"/>
     <use xlink:href="#DejaVuSans-73" x="550.341797"/>
     <use xlink:href="#DejaVuSans-6f" x="602.441406"/>
     <use xlink:href="#DejaVuSans-6c" x="663.623047"/>
     <use xlink:href="#DejaVuSans-73" x="691.40625"/>
     <use xlink:href="#DejaVuSans-74" x="743.505859"/>
     <use xlink:href="#DejaVuSans-69" x="782.714844"/>
     <use xlink:href="#DejaVuSans-63" x="810.498047"/>
     <use xlink:href="#DejaVuSans-65" x="865.478516"/>
    </g>
   </g>
  </g>
 </g>
 <defs>
  <clipPath id="p1daa503af9">
   <rect x="92.16" y="17.28" width="276.48" height="276.48"/>
  </clipPath>
  <clipPath id="pe86789a70c">
   <rect x="57.6" y="311.04" width="115.2" height="17.28"/>
  </clipPath>
  <clipPath id="p87306858b6">
   <path d="M 57.6 324 
L 172.8 324 
L 172.8 315.36 
L 57.6 315.36 
z
"/>
  </clipPath>
  <clipPath id="p43da468c3e">
   <rect x="288" y="311.04" width="115.2" height="17.28"/>
  </clipPath>
  <clipPath id="p16ad9661ad">
   <path d="M 288 324 
L 403.2 324 
L 403.2 315.36 
L 288 315.36 
z
"/>
  </clipPath>
 </defs>
</svg>
