<?xml version="1.0" encoding="utf-8" standalone="no"?>
<!DOCTYPE svg PUBLIC "-//W3C//DTD SVG 1.1//EN"
  "http://www.w3.org/Graphics/SVG/1.1/DTD/svg11.dtd">
<svg xmlns:xlink="http://www.w3.org/1999/xlink" width="460.8pt" height="345.6pt" viewBox="0 0 460.8 345.6" xmlns="http://www.w3.org/2000/svg" version="1.1">
 <metadata>
  <rdf:RDF xmlns:dc="http://purl.org/dc/elements/1.1/" xmlns:cc="http://creativecommons.org/ns#" xmlns:rdf="http://www.w3.org/1999/02/22-rdf-syntax-ns#">
   <cc:Work>
    <dc:type rdf:resource="http://purl.org/dc/dcmitype/StillImage"/>
    <dc:date>2024-12-18T09:53:39.038580</dc:date>
    <dc:format>image/svg+xml</dc:format>
    <dc:creator>
     <cc:Agent>
      <dc:title>Matplotlib v3.6.3, https://matplotlib.org/</dc:title>
     </cc:Agent>
    </dc:creator>
   </cc:Work>
  </rdf:RDF>
 </metadata>
 <defs>
  <style type="text/css">*{stroke-linejoin: round; stroke-linecap: butt}</style>
 </defs>
 <g id="figure_1">
  <g id="patch_1">
   <path d="M 0 345.6 
L 460.8 345.6 
L 460.8 0 
L 0 0 
z
" style="fill: #ffffff"/>
  </g>
  <g id="axes_1">
   <g id="patch_2">
    <path d="M 57.6 307.584 
L 414.72 307.584 
L 414.72 41.472 
L 57.6 41.472 
z
" style="fill: #ffffff"/>
   </g>
   <g id="matplotlib.axis_1">
    <g id="xtick_1">
     <g id="line2d_1">
      <defs>
       <path id="mc25419669f" d="M 0 0 
L 0 3.5 
" style="stroke: #000000; stroke-width: 0.8"/>
      </defs>
      <g>
       <use xlink:href="#mc25419669f" x="106.298182" y="307.584" style="stroke: #000000; stroke-width: 0.8"/>
      </g>
     </g>
     <g id="text_1">
      <!-- −0.4 -->
      <g transform="translate(94.156776 322.182437) scale(0.1 -0.1)">
       <defs>
        <path id="DejaVuSans-2212" d="M 678 2272 
L 4684 2272 
L 4684 1741 
L 678 1741 
L 678 2272 
z
" transform="scale(0.015625)"/>
        <path id="DejaVuSans-30" d="M 2034 4250 
Q 1547 4250 1301 3770 
Q 1056 3291 1056 2328 
Q 1056 1369 1301 889 
Q 1547 409 2034 409 
Q 2525 409 2770 889 
Q 3016 1369 3016 2328 
Q 3016 3291 2770 3770 
Q 2525 4250 2034 4250 
z
M 2034 4750 
Q 2819 4750 3233 4129 
Q 3647 3509 3647 2328 
Q 3647 1150 3233 529 
Q 2819 -91 2034 -91 
Q 1250 -91 836 529 
Q 422 1150 422 2328 
Q 422 3509 836 4129 
Q 1250 4750 2034 4750 
z
" transform="scale(0.015625)"/>
        <path id="DejaVuSans-2e" d="M 684 794 
L 1344 794 
L 1344 0 
L 684 0 
L 684 794 
z
" transform="scale(0.015625)"/>
        <path id="DejaVuSans-34" d="M 2419 4116 
L 825 1625 
L 2419 1625 
L 2419 4116 
z
M 2253 4666 
L 3047 4666 
L 3047 1625 
L 3713 1625 
L 3713 1100 
L 3047 1100 
L 3047 0 
L 2419 0 
L 2419 1100 
L 313 1100 
L 313 1709 
L 2253 4666 
z
" transform="scale(0.015625)"/>
       </defs>
       <use xlink:href="#DejaVuSans-2212"/>
       <use xlink:href="#DejaVuSans-30" x="83.789062"/>
       <use xlink:href="#DejaVuSans-2e" x="147.412109"/>
       <use xlink:href="#DejaVuSans-34" x="179.199219"/>
      </g>
     </g>
    </g>
    <g id="xtick_2">
     <g id="line2d_2">
      <g>
       <use xlink:href="#mc25419669f" x="171.229091" y="307.584" style="stroke: #000000; stroke-width: 0.8"/>
      </g>
     </g>
     <g id="text_2">
      <!-- −0.2 -->
      <g transform="translate(159.087685 322.182437) scale(0.1 -0.1)">
       <defs>
        <path id="DejaVuSans-32" d="M 1228 531 
L 3431 531 
L 3431 0 
L 469 0 
L 469 531 
Q 828 903 1448 1529 
Q 2069 2156 2228 2338 
Q 2531 2678 2651 2914 
Q 2772 3150 2772 3378 
Q 2772 3750 2511 3984 
Q 2250 4219 1831 4219 
Q 1534 4219 1204 4116 
Q 875 4013 500 3803 
L 500 4441 
Q 881 4594 1212 4672 
Q 1544 4750 1819 4750 
Q 2544 4750 2975 4387 
Q 3406 4025 3406 3419 
Q 3406 3131 3298 2873 
Q 3191 2616 2906 2266 
Q 2828 2175 2409 1742 
Q 1991 1309 1228 531 
z
" transform="scale(0.015625)"/>
       </defs>
       <use xlink:href="#DejaVuSans-2212"/>
       <use xlink:href="#DejaVuSans-30" x="83.789062"/>
       <use xlink:href="#DejaVuSans-2e" x="147.412109"/>
       <use xlink:href="#DejaVuSans-32" x="179.199219"/>
      </g>
     </g>
    </g>
    <g id="xtick_3">
     <g id="line2d_3">
      <g>
       <use xlink:href="#mc25419669f" x="236.16" y="307.584" style="stroke: #000000; stroke-width: 0.8"/>
      </g>
     </g>
     <g id="text_3">
      <!-- 0.0 -->
      <g transform="translate(228.208438 322.182437) scale(0.1 -0.1)">
       <use xlink:href="#DejaVuSans-30"/>
       <use xlink:href="#DejaVuSans-2e" x="63.623047"/>
       <use xlink:href="#DejaVuSans-30" x="95.410156"/>
      </g>
     </g>
    </g>
    <g id="xtick_4">
     <g id="line2d_4">
      <g>
       <use xlink:href="#mc25419669f" x="301.090909" y="307.584" style="stroke: #000000; stroke-width: 0.8"/>
      </g>
     </g>
     <g id="text_4">
      <!-- 0.2 -->
      <g transform="translate(293.139347 322.182437) scale(0.1 -0.1)">
       <use xlink:href="#DejaVuSans-30"/>
       <use xlink:href="#DejaVuSans-2e" x="63.623047"/>
       <use xlink:href="#DejaVuSans-32" x="95.410156"/>
      </g>
     </g>
    </g>
    <g id="xtick_5">
     <g id="line2d_5">
      <g>
       <use xlink:href="#mc25419669f" x="366.021818" y="307.584" style="stroke: #000000; stroke-width: 0.8"/>
      </g>
     </g>
     <g id="text_5">
      <!-- 0.4 -->
      <g transform="translate(358.070256 322.182437) scale(0.1 -0.1)">
       <use xlink:href="#DejaVuSans-30"/>
       <use xlink:href="#DejaVuSans-2e" x="63.623047"/>
       <use xlink:href="#DejaVuSans-34" x="95.410156"/>
      </g>
     </g>
    </g>
    <g id="text_6">
     <!-- fraction of tropical year from June solstice -->
     <g transform="translate(131.361562 335.860562) scale(0.1 -0.1)">
      <defs>
       <path id="DejaVuSans-66" d="M 2375 4863 
L 2375 4384 
L 1825 4384 
Q 1516 4384 1395 4259 
Q 1275 4134 1275 3809 
L 1275 3500 
L 2222 3500 
L 2222 3053 
L 1275 3053 
L 1275 0 
L 697 0 
L 697 3053 
L 147 3053 
L 147 3500 
L 697 3500 
L 697 3744 
Q 697 4328 969 4595 
Q 1241 4863 1831 4863 
L 2375 4863 
z
" transform="scale(0.015625)"/>
       <path id="DejaVuSans-72" d="M 2631 2963 
Q 2534 3019 2420 3045 
Q 2306 3072 2169 3072 
Q 1681 3072 1420 2755 
Q 1159 2438 1159 1844 
L 1159 0 
L 581 0 
L 581 3500 
L 1159 3500 
L 1159 2956 
Q 1341 3275 1631 3429 
Q 1922 3584 2338 3584 
Q 2397 3584 2469 3576 
Q 2541 3569 2628 3553 
L 2631 2963 
z
" transform="scale(0.015625)"/>
       <path id="DejaVuSans-61" d="M 2194 1759 
Q 1497 1759 1228 1600 
Q 959 1441 959 1056 
Q 959 750 1161 570 
Q 1363 391 1709 391 
Q 2188 391 2477 730 
Q 2766 1069 2766 1631 
L 2766 1759 
L 2194 1759 
z
M 3341 1997 
L 3341 0 
L 2766 0 
L 2766 531 
Q 2569 213 2275 61 
Q 1981 -91 1556 -91 
Q 1019 -91 701 211 
Q 384 513 384 1019 
Q 384 1609 779 1909 
Q 1175 2209 1959 2209 
L 2766 2209 
L 2766 2266 
Q 2766 2663 2505 2880 
Q 2244 3097 1772 3097 
Q 1472 3097 1187 3025 
Q 903 2953 641 2809 
L 641 3341 
Q 956 3463 1253 3523 
Q 1550 3584 1831 3584 
Q 2591 3584 2966 3190 
Q 3341 2797 3341 1997 
z
" transform="scale(0.015625)"/>
       <path id="DejaVuSans-63" d="M 3122 3366 
L 3122 2828 
Q 2878 2963 2633 3030 
Q 2388 3097 2138 3097 
Q 1578 3097 1268 2742 
Q 959 2388 959 1747 
Q 959 1106 1268 751 
Q 1578 397 2138 397 
Q 2388 397 2633 464 
Q 2878 531 3122 666 
L 3122 134 
Q 2881 22 2623 -34 
Q 2366 -91 2075 -91 
Q 1284 -91 818 406 
Q 353 903 353 1747 
Q 353 2603 823 3093 
Q 1294 3584 2113 3584 
Q 2378 3584 2631 3529 
Q 2884 3475 3122 3366 
z
" transform="scale(0.015625)"/>
       <path id="DejaVuSans-74" d="M 1172 4494 
L 1172 3500 
L 2356 3500 
L 2356 3053 
L 1172 3053 
L 1172 1153 
Q 1172 725 1289 603 
Q 1406 481 1766 481 
L 2356 481 
L 2356 0 
L 1766 0 
Q 1100 0 847 248 
Q 594 497 594 1153 
L 594 3053 
L 172 3053 
L 172 3500 
L 594 3500 
L 594 4494 
L 1172 4494 
z
" transform="scale(0.015625)"/>
       <path id="DejaVuSans-69" d="M 603 3500 
L 1178 3500 
L 1178 0 
L 603 0 
L 603 3500 
z
M 603 4863 
L 1178 4863 
L 1178 4134 
L 603 4134 
L 603 4863 
z
" transform="scale(0.015625)"/>
       <path id="DejaVuSans-6f" d="M 1959 3097 
Q 1497 3097 1228 2736 
Q 959 2375 959 1747 
Q 959 1119 1226 758 
Q 1494 397 1959 397 
Q 2419 397 2687 759 
Q 2956 1122 2956 1747 
Q 2956 2369 2687 2733 
Q 2419 3097 1959 3097 
z
M 1959 3584 
Q 2709 3584 3137 3096 
Q 3566 2609 3566 1747 
Q 3566 888 3137 398 
Q 2709 -91 1959 -91 
Q 1206 -91 779 398 
Q 353 888 353 1747 
Q 353 2609 779 3096 
Q 1206 3584 1959 3584 
z
" transform="scale(0.015625)"/>
       <path id="DejaVuSans-6e" d="M 3513 2113 
L 3513 0 
L 2938 0 
L 2938 2094 
Q 2938 2591 2744 2837 
Q 2550 3084 2163 3084 
Q 1697 3084 1428 2787 
Q 1159 2491 1159 1978 
L 1159 0 
L 581 0 
L 581 3500 
L 1159 3500 
L 1159 2956 
Q 1366 3272 1645 3428 
Q 1925 3584 2291 3584 
Q 2894 3584 3203 3211 
Q 3513 2838 3513 2113 
z
" transform="scale(0.015625)"/>
       <path id="DejaVuSans-20" transform="scale(0.015625)"/>
       <path id="DejaVuSans-70" d="M 1159 525 
L 1159 -1331 
L 581 -1331 
L 581 3500 
L 1159 3500 
L 1159 2969 
Q 1341 3281 1617 3432 
Q 1894 3584 2278 3584 
Q 2916 3584 3314 3078 
Q 3713 2572 3713 1747 
Q 3713 922 3314 415 
Q 2916 -91 2278 -91 
Q 1894 -91 1617 61 
Q 1341 213 1159 525 
z
M 3116 1747 
Q 3116 2381 2855 2742 
Q 2594 3103 2138 3103 
Q 1681 3103 1420 2742 
Q 1159 2381 1159 1747 
Q 1159 1113 1420 752 
Q 1681 391 2138 391 
Q 2594 391 2855 752 
Q 3116 1113 3116 1747 
z
" transform="scale(0.015625)"/>
       <path id="DejaVuSans-6c" d="M 603 4863 
L 1178 4863 
L 1178 0 
L 603 0 
L 603 4863 
z
" transform="scale(0.015625)"/>
       <path id="DejaVuSans-79" d="M 2059 -325 
Q 1816 -950 1584 -1140 
Q 1353 -1331 966 -1331 
L 506 -1331 
L 506 -850 
L 844 -850 
Q 1081 -850 1212 -737 
Q 1344 -625 1503 -206 
L 1606 56 
L 191 3500 
L 800 3500 
L 1894 763 
L 2988 3500 
L 3597 3500 
L 2059 -325 
z
" transform="scale(0.015625)"/>
       <path id="DejaVuSans-65" d="M 3597 1894 
L 3597 1613 
L 953 1613 
Q 991 1019 1311 708 
Q 1631 397 2203 397 
Q 2534 397 2845 478 
Q 3156 559 3463 722 
L 3463 178 
Q 3153 47 2828 -22 
Q 2503 -91 2169 -91 
Q 1331 -91 842 396 
Q 353 884 353 1716 
Q 353 2575 817 3079 
Q 1281 3584 2069 3584 
Q 2775 3584 3186 3129 
Q 3597 2675 3597 1894 
z
M 3022 2063 
Q 3016 2534 2758 2815 
Q 2500 3097 2075 3097 
Q 1594 3097 1305 2825 
Q 1016 2553 972 2059 
L 3022 2063 
z
" transform="scale(0.015625)"/>
       <path id="DejaVuSans-6d" d="M 3328 2828 
Q 3544 3216 3844 3400 
Q 4144 3584 4550 3584 
Q 5097 3584 5394 3201 
Q 5691 2819 5691 2113 
L 5691 0 
L 5113 0 
L 5113 2094 
Q 5113 2597 4934 2840 
Q 4756 3084 4391 3084 
Q 3944 3084 3684 2787 
Q 3425 2491 3425 1978 
L 3425 0 
L 2847 0 
L 2847 2094 
Q 2847 2600 2669 2842 
Q 2491 3084 2119 3084 
Q 1678 3084 1418 2786 
Q 1159 2488 1159 1978 
L 1159 0 
L 581 0 
L 581 3500 
L 1159 3500 
L 1159 2956 
Q 1356 3278 1631 3431 
Q 1906 3584 2284 3584 
Q 2666 3584 2933 3390 
Q 3200 3197 3328 2828 
z
" transform="scale(0.015625)"/>
       <path id="DejaVuSans-4a" d="M 628 4666 
L 1259 4666 
L 1259 325 
Q 1259 -519 939 -900 
Q 619 -1281 -91 -1281 
L -331 -1281 
L -331 -750 
L -134 -750 
Q 284 -750 456 -515 
Q 628 -281 628 325 
L 628 4666 
z
" transform="scale(0.015625)"/>
       <path id="DejaVuSans-75" d="M 544 1381 
L 544 3500 
L 1119 3500 
L 1119 1403 
Q 1119 906 1312 657 
Q 1506 409 1894 409 
Q 2359 409 2629 706 
Q 2900 1003 2900 1516 
L 2900 3500 
L 3475 3500 
L 3475 0 
L 2900 0 
L 2900 538 
Q 2691 219 2414 64 
Q 2138 -91 1772 -91 
Q 1169 -91 856 284 
Q 544 659 544 1381 
z
M 1991 3584 
L 1991 3584 
z
" transform="scale(0.015625)"/>
       <path id="DejaVuSans-73" d="M 2834 3397 
L 2834 2853 
Q 2591 2978 2328 3040 
Q 2066 3103 1784 3103 
Q 1356 3103 1142 2972 
Q 928 2841 928 2578 
Q 928 2378 1081 2264 
Q 1234 2150 1697 2047 
L 1894 2003 
Q 2506 1872 2764 1633 
Q 3022 1394 3022 966 
Q 3022 478 2636 193 
Q 2250 -91 1575 -91 
Q 1294 -91 989 -36 
Q 684 19 347 128 
L 347 722 
Q 666 556 975 473 
Q 1284 391 1588 391 
Q 1994 391 2212 530 
Q 2431 669 2431 922 
Q 2431 1156 2273 1281 
Q 2116 1406 1581 1522 
L 1381 1569 
Q 847 1681 609 1914 
Q 372 2147 372 2553 
Q 372 3047 722 3315 
Q 1072 3584 1716 3584 
Q 2034 3584 2315 3537 
Q 2597 3491 2834 3397 
z
" transform="scale(0.015625)"/>
      </defs>
      <use xlink:href="#DejaVuSans-66"/>
      <use xlink:href="#DejaVuSans-72" x="35.205078"/>
      <use xlink:href="#DejaVuSans-61" x="76.318359"/>
      <use xlink:href="#DejaVuSans-63" x="137.597656"/>
      <use xlink:href="#DejaVuSans-74" x="192.578125"/>
      <use xlink:href="#DejaVuSans-69" x="231.787109"/>
      <use xlink:href="#DejaVuSans-6f" x="259.570312"/>
      <use xlink:href="#DejaVuSans-6e" x="320.751953"/>
      <use xlink:href="#DejaVuSans-20" x="384.130859"/>
      <use xlink:href="#DejaVuSans-6f" x="415.917969"/>
      <use xlink:href="#DejaVuSans-66" x="477.099609"/>
      <use xlink:href="#DejaVuSans-20" x="512.304688"/>
      <use xlink:href="#DejaVuSans-74" x="544.091797"/>
      <use xlink:href="#DejaVuSans-72" x="583.300781"/>
      <use xlink:href="#DejaVuSans-6f" x="622.164062"/>
      <use xlink:href="#DejaVuSans-70" x="683.345703"/>
      <use xlink:href="#DejaVuSans-69" x="746.822266"/>
      <use xlink:href="#DejaVuSans-63" x="774.605469"/>
      <use xlink:href="#DejaVuSans-61" x="829.585938"/>
      <use xlink:href="#DejaVuSans-6c" x="890.865234"/>
      <use xlink:href="#DejaVuSans-20" x="918.648438"/>
      <use xlink:href="#DejaVuSans-79" x="950.435547"/>
      <use xlink:href="#DejaVuSans-65" x="1009.615234"/>
      <use xlink:href="#DejaVuSans-61" x="1071.138672"/>
      <use xlink:href="#DejaVuSans-72" x="1132.417969"/>
      <use xlink:href="#DejaVuSans-20" x="1173.53125"/>
      <use xlink:href="#DejaVuSans-66" x="1205.318359"/>
      <use xlink:href="#DejaVuSans-72" x="1240.523438"/>
      <use xlink:href="#DejaVuSans-6f" x="1279.386719"/>
      <use xlink:href="#DejaVuSans-6d" x="1340.568359"/>
      <use xlink:href="#DejaVuSans-20" x="1437.980469"/>
      <use xlink:href="#DejaVuSans-4a" x="1469.767578"/>
      <use xlink:href="#DejaVuSans-75" x="1499.259766"/>
      <use xlink:href="#DejaVuSans-6e" x="1562.638672"/>
      <use xlink:href="#DejaVuSans-65" x="1626.017578"/>
      <use xlink:href="#DejaVuSans-20" x="1687.541016"/>
      <use xlink:href="#DejaVuSans-73" x="1719.328125"/>
      <use xlink:href="#DejaVuSans-6f" x="1771.427734"/>
      <use xlink:href="#DejaVuSans-6c" x="1832.609375"/>
      <use xlink:href="#DejaVuSans-73" x="1860.392578"/>
      <use xlink:href="#DejaVuSans-74" x="1912.492188"/>
      <use xlink:href="#DejaVuSans-69" x="1951.701172"/>
      <use xlink:href="#DejaVuSans-63" x="1979.484375"/>
      <use xlink:href="#DejaVuSans-65" x="2034.464844"/>
     </g>
    </g>
   </g>
   <g id="matplotlib.axis_2">
    <g id="ytick_1">
     <g id="line2d_6">
      <defs>
       <path id="m67cbe11998" d="M 0 0 
L -3.5 0 
" style="stroke: #000000; stroke-width: 0.8"/>
      </defs>
      <g>
       <use xlink:href="#m67cbe11998" x="57.6" y="295.488" style="stroke: #000000; stroke-width: 0.8"/>
      </g>
     </g>
     <g id="text_7">
      <!-- 0.0 -->
      <g transform="translate(34.696875 299.287219) scale(0.1 -0.1)">
       <use xlink:href="#DejaVuSans-30"/>
       <use xlink:href="#DejaVuSans-2e" x="63.623047"/>
       <use xlink:href="#DejaVuSans-30" x="95.410156"/>
      </g>
     </g>
    </g>
    <g id="ytick_2">
     <g id="line2d_7">
      <g>
       <use xlink:href="#m67cbe11998" x="57.6" y="247.104" style="stroke: #000000; stroke-width: 0.8"/>
      </g>
     </g>
     <g id="text_8">
      <!-- 0.2 -->
      <g transform="translate(34.696875 250.903219) scale(0.1 -0.1)">
       <use xlink:href="#DejaVuSans-30"/>
       <use xlink:href="#DejaVuSans-2e" x="63.623047"/>
       <use xlink:href="#DejaVuSans-32" x="95.410156"/>
      </g>
     </g>
    </g>
    <g id="ytick_3">
     <g id="line2d_8">
      <g>
       <use xlink:href="#m67cbe11998" x="57.6" y="198.72" style="stroke: #000000; stroke-width: 0.8"/>
      </g>
     </g>
     <g id="text_9">
      <!-- 0.4 -->
      <g transform="translate(34.696875 202.519219) scale(0.1 -0.1)">
       <use xlink:href="#DejaVuSans-30"/>
       <use xlink:href="#DejaVuSans-2e" x="63.623047"/>
       <use xlink:href="#DejaVuSans-34" x="95.410156"/>
      </g>
     </g>
    </g>
    <g id="ytick_4">
     <g id="line2d_9">
      <g>
       <use xlink:href="#m67cbe11998" x="57.6" y="150.336" style="stroke: #000000; stroke-width: 0.8"/>
      </g>
     </g>
     <g id="text_10">
      <!-- 0.6 -->
      <g transform="translate(34.696875 154.135219) scale(0.1 -0.1)">
       <defs>
        <path id="DejaVuSans-36" d="M 2113 2584 
Q 1688 2584 1439 2293 
Q 1191 2003 1191 1497 
Q 1191 994 1439 701 
Q 1688 409 2113 409 
Q 2538 409 2786 701 
Q 3034 994 3034 1497 
Q 3034 2003 2786 2293 
Q 2538 2584 2113 2584 
z
M 3366 4563 
L 3366 3988 
Q 3128 4100 2886 4159 
Q 2644 4219 2406 4219 
Q 1781 4219 1451 3797 
Q 1122 3375 1075 2522 
Q 1259 2794 1537 2939 
Q 1816 3084 2150 3084 
Q 2853 3084 3261 2657 
Q 3669 2231 3669 1497 
Q 3669 778 3244 343 
Q 2819 -91 2113 -91 
Q 1303 -91 875 529 
Q 447 1150 447 2328 
Q 447 3434 972 4092 
Q 1497 4750 2381 4750 
Q 2619 4750 2861 4703 
Q 3103 4656 3366 4563 
z
" transform="scale(0.015625)"/>
       </defs>
       <use xlink:href="#DejaVuSans-30"/>
       <use xlink:href="#DejaVuSans-2e" x="63.623047"/>
       <use xlink:href="#DejaVuSans-36" x="95.410156"/>
      </g>
     </g>
    </g>
    <g id="ytick_5">
     <g id="line2d_10">
      <g>
       <use xlink:href="#m67cbe11998" x="57.6" y="101.952" style="stroke: #000000; stroke-width: 0.8"/>
      </g>
     </g>
     <g id="text_11">
      <!-- 0.8 -->
      <g transform="translate(34.696875 105.751219) scale(0.1 -0.1)">
       <defs>
        <path id="DejaVuSans-38" d="M 2034 2216 
Q 1584 2216 1326 1975 
Q 1069 1734 1069 1313 
Q 1069 891 1326 650 
Q 1584 409 2034 409 
Q 2484 409 2743 651 
Q 3003 894 3003 1313 
Q 3003 1734 2745 1975 
Q 2488 2216 2034 2216 
z
M 1403 2484 
Q 997 2584 770 2862 
Q 544 3141 544 3541 
Q 544 4100 942 4425 
Q 1341 4750 2034 4750 
Q 2731 4750 3128 4425 
Q 3525 4100 3525 3541 
Q 3525 3141 3298 2862 
Q 3072 2584 2669 2484 
Q 3125 2378 3379 2068 
Q 3634 1759 3634 1313 
Q 3634 634 3220 271 
Q 2806 -91 2034 -91 
Q 1263 -91 848 271 
Q 434 634 434 1313 
Q 434 1759 690 2068 
Q 947 2378 1403 2484 
z
M 1172 3481 
Q 1172 3119 1398 2916 
Q 1625 2713 2034 2713 
Q 2441 2713 2670 2916 
Q 2900 3119 2900 3481 
Q 2900 3844 2670 4047 
Q 2441 4250 2034 4250 
Q 1625 4250 1398 4047 
Q 1172 3844 1172 3481 
z
" transform="scale(0.015625)"/>
       </defs>
       <use xlink:href="#DejaVuSans-30"/>
       <use xlink:href="#DejaVuSans-2e" x="63.623047"/>
       <use xlink:href="#DejaVuSans-38" x="95.410156"/>
      </g>
     </g>
    </g>
    <g id="ytick_6">
     <g id="line2d_11">
      <g>
       <use xlink:href="#m67cbe11998" x="57.6" y="53.568" style="stroke: #000000; stroke-width: 0.8"/>
      </g>
     </g>
     <g id="text_12">
      <!-- 1.0 -->
      <g transform="translate(34.696875 57.367219) scale(0.1 -0.1)">
       <defs>
        <path id="DejaVuSans-31" d="M 794 531 
L 1825 531 
L 1825 4091 
L 703 3866 
L 703 4441 
L 1819 4666 
L 2450 4666 
L 2450 531 
L 3481 531 
L 3481 0 
L 794 0 
L 794 531 
z
" transform="scale(0.015625)"/>
       </defs>
       <use xlink:href="#DejaVuSans-31"/>
       <use xlink:href="#DejaVuSans-2e" x="63.623047"/>
       <use xlink:href="#DejaVuSans-30" x="95.410156"/>
      </g>
     </g>
    </g>
    <g id="text_13">
     <!-- sunlit fraction of solar day -->
     <g transform="translate(28.617187 239.960812) rotate(-90) scale(0.1 -0.1)">
      <defs>
       <path id="DejaVuSans-64" d="M 2906 2969 
L 2906 4863 
L 3481 4863 
L 3481 0 
L 2906 0 
L 2906 525 
Q 2725 213 2448 61 
Q 2172 -91 1784 -91 
Q 1150 -91 751 415 
Q 353 922 353 1747 
Q 353 2572 751 3078 
Q 1150 3584 1784 3584 
Q 2172 3584 2448 3432 
Q 2725 3281 2906 2969 
z
M 947 1747 
Q 947 1113 1208 752 
Q 1469 391 1925 391 
Q 2381 391 2643 752 
Q 2906 1113 2906 1747 
Q 2906 2381 2643 2742 
Q 2381 3103 1925 3103 
Q 1469 3103 1208 2742 
Q 947 2381 947 1747 
z
" transform="scale(0.015625)"/>
      </defs>
      <use xlink:href="#DejaVuSans-73"/>
      <use xlink:href="#DejaVuSans-75" x="52.099609"/>
      <use xlink:href="#DejaVuSans-6e" x="115.478516"/>
      <use xlink:href="#DejaVuSans-6c" x="178.857422"/>
      <use xlink:href="#DejaVuSans-69" x="206.640625"/>
      <use xlink:href="#DejaVuSans-74" x="234.423828"/>
      <use xlink:href="#DejaVuSans-20" x="273.632812"/>
      <use xlink:href="#DejaVuSans-66" x="305.419922"/>
      <use xlink:href="#DejaVuSans-72" x="340.625"/>
      <use xlink:href="#DejaVuSans-61" x="381.738281"/>
      <use xlink:href="#DejaVuSans-63" x="443.017578"/>
      <use xlink:href="#DejaVuSans-74" x="497.998047"/>
      <use xlink:href="#DejaVuSans-69" x="537.207031"/>
      <use xlink:href="#DejaVuSans-6f" x="564.990234"/>
      <use xlink:href="#DejaVuSans-6e" x="626.171875"/>
      <use xlink:href="#DejaVuSans-20" x="689.550781"/>
      <use xlink:href="#DejaVuSans-6f" x="721.337891"/>
      <use xlink:href="#DejaVuSans-66" x="782.519531"/>
      <use xlink:href="#DejaVuSans-20" x="817.724609"/>
      <use xlink:href="#DejaVuSans-73" x="849.511719"/>
      <use xlink:href="#DejaVuSans-6f" x="901.611328"/>
      <use xlink:href="#DejaVuSans-6c" x="962.792969"/>
      <use xlink:href="#DejaVuSans-61" x="990.576172"/>
      <use xlink:href="#DejaVuSans-72" x="1051.855469"/>
      <use xlink:href="#DejaVuSans-20" x="1092.96875"/>
      <use xlink:href="#DejaVuSans-64" x="1124.755859"/>
      <use xlink:href="#DejaVuSans-61" x="1188.232422"/>
      <use xlink:href="#DejaVuSans-79" x="1249.511719"/>
     </g>
    </g>
   </g>
   <g id="line2d_12">
    <path d="M 73.832727 174.528 
L 398.487273 174.528 
L 398.487273 174.528 
" clip-path="url(#p8191abc8ba)" style="fill: none; stroke: #1f77b4; stroke-width: 1.5; stroke-linecap: square"/>
   </g>
   <g id="line2d_13">
    <path d="M 73.832727 183.493987 
L 81.047273 183.39015 
L 89.163636 183.032221 
L 97.28 182.440902 
L 106.298182 181.55085 
L 116.218182 180.349173 
L 128.843636 178.585101 
L 146.88 175.814498 
L 183.854545 170.076207 
L 196.48 168.359756 
L 206.4 167.215284 
L 215.418182 166.393954 
L 223.534545 165.877154 
L 230.749091 165.620534 
L 237.963636 165.56853 
L 245.178182 165.723856 
L 253.294545 166.136055 
L 261.410909 166.774987 
L 270.429091 167.708201 
L 281.250909 169.066309 
L 294.778182 171.008033 
L 315.52 174.241532 
L 344.378182 178.717502 
L 357.905455 180.582013 
L 367.825455 181.746127 
L 376.843636 182.59089 
L 384.96 183.132928 
L 393.076364 183.435466 
L 398.487273 183.493987 
L 398.487273 183.493987 
" clip-path="url(#p8191abc8ba)" style="fill: none; stroke: #ff7f0e; stroke-width: 1.5; stroke-linecap: square"/>
   </g>
   <g id="line2d_14">
    <path d="M 73.832727 194.01058 
L 79.243636 193.881242 
L 84.654545 193.497316 
L 90.065455 192.870614 
L 95.476364 192.019411 
L 101.789091 190.773354 
L 108.101818 189.29374 
L 115.316364 187.370038 
L 123.432727 184.97844 
L 134.254545 181.532674 
L 149.585455 176.378346 
L 177.541818 166.933864 
L 188.363636 163.528917 
L 196.48 161.184819 
L 203.694545 159.318125 
L 210.007273 157.900969 
L 216.32 156.729252 
L 221.730909 155.950523 
L 227.141818 155.403002 
L 232.552727 155.102989 
L 237.963636 155.059825 
L 243.374545 155.274879 
L 248.785455 155.741394 
L 254.196364 156.445231 
L 259.607273 157.366345 
L 265.92 158.683393 
L 272.232727 160.222051 
L 279.447273 162.199097 
L 288.465455 164.916122 
L 299.287273 168.416251 
L 316.421818 174.219349 
L 338.967273 181.828031 
L 349.789091 185.253861 
L 358.807273 187.871181 
L 366.021818 189.737875 
L 372.334545 191.155031 
L 378.647273 192.326748 
L 384.058182 193.105477 
L 389.469091 193.652998 
L 394.88 193.953011 
L 398.487273 194.01058 
L 398.487273 194.01058 
" clip-path="url(#p8191abc8ba)" style="fill: none; stroke: #2ca02c; stroke-width: 1.5; stroke-linecap: square"/>
   </g>
   <g id="line2d_15">
    <path d="M 73.832727 209.059722 
L 77.44 208.952617 
L 81.047273 208.633123 
L 84.654545 208.106586 
L 88.261818 207.381558 
L 92.770909 206.213518 
L 97.28 204.779547 
L 101.789091 203.109241 
L 107.2 200.836282 
L 112.610909 198.319541 
L 118.923636 195.139452 
L 126.138182 191.264518 
L 136.058182 185.657142 
L 150.487273 177.199812 
L 175.738182 162.36172 
L 185.658182 156.803108 
L 192.872727 152.98491 
L 199.185455 149.873548 
L 204.596364 147.432456 
L 210.007273 145.252242 
L 214.516364 143.6728 
L 219.025455 142.341781 
L 222.632727 141.475152 
L 226.24 140.798786 
L 229.847273 140.323326 
L 233.454545 140.056562 
L 237.061818 140.002981 
L 240.669091 140.163495 
L 244.276364 140.535383 
L 247.883636 141.11246 
L 251.490909 141.885444 
L 256 143.108916 
L 260.509091 144.592587 
L 265.018182 146.30647 
L 270.429091 148.623612 
L 275.84 151.176145 
L 282.152727 154.388526 
L 290.269091 158.790966 
L 300.189091 164.442008 
L 316.421818 173.993398 
L 337.163636 186.17651 
L 347.083636 191.760164 
L 355.2 196.07109 
L 361.512727 199.182452 
L 366.923636 201.623544 
L 372.334545 203.803758 
L 376.843636 205.3832 
L 381.352727 206.714219 
L 384.96 207.580848 
L 388.567273 208.257214 
L 392.174545 208.732674 
L 395.781818 208.999438 
L 398.487273 209.059722 
L 398.487273 209.059722 
" clip-path="url(#p8191abc8ba)" style="fill: none; stroke: #d62728; stroke-width: 1.5; stroke-linecap: square"/>
   </g>
   <g id="line2d_16">
    <path d="M 73.832727 239.942476 
L 76.538182 239.800117 
L 79.243636 239.375857 
L 81.949091 238.677914 
L 84.654545 237.719269 
L 87.36 236.516727 
L 90.065455 235.089812 
L 93.672727 232.874858 
L 97.28 230.349977 
L 100.887273 227.565037 
L 105.396364 223.787948 
L 110.807273 218.923808 
L 117.12 212.928792 
L 125.236364 204.908504 
L 138.763636 191.177435 
L 189.265455 139.659112 
L 197.381818 131.815648 
L 202.792727 126.854471 
L 207.301818 122.966355 
L 211.810909 119.379756 
L 215.418182 116.785301 
L 219.025455 114.48806 
L 221.730909 112.991002 
L 224.436364 111.711398 
L 227.141818 110.669429 
L 229.847273 109.882932 
L 232.552727 109.366279 
L 235.258182 109.129365 
L 237.963636 109.176853 
L 240.669091 109.507802 
L 243.374545 110.115742 
L 246.08 110.989186 
L 248.785455 112.112488 
L 251.490909 113.466902 
L 254.196364 115.031716 
L 257.803636 117.408025 
L 261.410909 120.068976 
L 265.92 123.722405 
L 270.429091 127.661566 
L 275.84 132.666975 
L 283.054545 139.659112 
L 292.974545 149.60637 
L 312.814545 169.898426 
L 346.181818 204.003307 
L 355.2 212.928792 
L 362.414545 219.755083 
L 367.825455 224.566159 
L 372.334545 228.283051 
L 375.941818 231.007475 
L 379.549091 233.459655 
L 383.156364 235.589098 
L 385.861818 236.943512 
L 388.567273 238.066814 
L 391.272727 238.940258 
L 393.978182 239.548198 
L 396.683636 239.879147 
L 398.487273 239.942476 
L 398.487273 239.942476 
" clip-path="url(#p8191abc8ba)" style="fill: none; stroke: #9467bd; stroke-width: 1.5; stroke-linecap: square"/>
   </g>
   <g id="line2d_17">
    <path d="M 73.832727 295.488 
L 118.021818 295.488 
L 118.923636 283.078392 
L 119.825455 275.044059 
L 120.727273 269.286367 
L 122.530909 260.309712 
L 124.334545 252.979331 
L 126.138182 246.548993 
L 128.843636 237.936445 
L 131.549091 230.127098 
L 135.156364 220.52146 
L 138.763636 211.531408 
L 143.272727 200.857211 
L 149.585455 186.536285 
L 167.621818 146.10219 
L 172.130909 135.32213 
L 175.738182 126.201093 
L 179.345455 116.3955 
L 182.050909 108.356276 
L 183.854545 102.507007 
L 185.658182 96.076669 
L 187.461818 88.746288 
L 188.363636 84.547196 
L 189.265455 79.769633 
L 190.167273 74.011941 
L 191.069091 65.977608 
L 191.970909 53.568 
L 280.349091 53.568 
L 281.250909 65.977608 
L 282.152727 74.011941 
L 283.054545 79.769633 
L 284.858182 88.746288 
L 286.661818 96.076669 
L 288.465455 102.507007 
L 291.170909 111.119555 
L 293.876364 118.928902 
L 297.483636 128.53454 
L 301.090909 137.524592 
L 305.6 148.198789 
L 311.912727 162.519715 
L 329.949091 202.95381 
L 334.458182 213.73387 
L 338.065455 222.854907 
L 341.672727 232.6605 
L 344.378182 240.699724 
L 346.181818 246.548993 
L 347.985455 252.979331 
L 349.789091 260.309712 
L 350.690909 264.508804 
L 351.592727 269.286367 
L 352.494545 275.044059 
L 353.396364 283.078392 
L 354.298182 295.488 
L 398.487273 295.488 
L 398.487273 295.488 
" clip-path="url(#p8191abc8ba)" style="fill: none; stroke: #8c564b; stroke-width: 1.5; stroke-linecap: square"/>
   </g>
   <g id="patch_3">
    <path d="M 57.6 307.584 
L 57.6 41.472 
" style="fill: none; stroke: #000000; stroke-width: 0.8; stroke-linejoin: miter; stroke-linecap: square"/>
   </g>
   <g id="patch_4">
    <path d="M 414.72 307.584 
L 414.72 41.472 
" style="fill: none; stroke: #000000; stroke-width: 0.8; stroke-linejoin: miter; stroke-linecap: square"/>
   </g>
   <g id="patch_5">
    <path d="M 57.6 307.584 
L 414.72 307.584 
" style="fill: none; stroke: #000000; stroke-width: 0.8; stroke-linejoin: miter; stroke-linecap: square"/>
   </g>
   <g id="patch_6">
    <path d="M 57.6 41.472 
L 414.72 41.472 
" style="fill: none; stroke: #000000; stroke-width: 0.8; stroke-linejoin: miter; stroke-linecap: square"/>
   </g>
   <g id="text_14">
    <!-- annual variation of insolation for different latitudes -->
    <g transform="translate(82.90875 35.472) scale(0.12 -0.12)">
     <defs>
      <path id="DejaVuSans-76" d="M 191 3500 
L 800 3500 
L 1894 563 
L 2988 3500 
L 3597 3500 
L 2284 0 
L 1503 0 
L 191 3500 
z
" transform="scale(0.015625)"/>
     </defs>
     <use xlink:href="#DejaVuSans-61"/>
     <use xlink:href="#DejaVuSans-6e" x="61.279297"/>
     <use xlink:href="#DejaVuSans-6e" x="124.658203"/>
     <use xlink:href="#DejaVuSans-75" x="188.037109"/>
     <use xlink:href="#DejaVuSans-61" x="251.416016"/>
     <use xlink:href="#DejaVuSans-6c" x="312.695312"/>
     <use xlink:href="#DejaVuSans-20" x="340.478516"/>
     <use xlink:href="#DejaVuSans-76" x="372.265625"/>
     <use xlink:href="#DejaVuSans-61" x="431.445312"/>
     <use xlink:href="#DejaVuSans-72" x="492.724609"/>
     <use xlink:href="#DejaVuSans-69" x="533.837891"/>
     <use xlink:href="#DejaVuSans-61" x="561.621094"/>
     <use xlink:href="#DejaVuSans-74" x="622.900391"/>
     <use xlink:href="#DejaVuSans-69" x="662.109375"/>
     <use xlink:href="#DejaVuSans-6f" x="689.892578"/>
     <use xlink:href="#DejaVuSans-6e" x="751.074219"/>
     <use xlink:href="#DejaVuSans-20" x="814.453125"/>
     <use xlink:href="#DejaVuSans-6f" x="846.240234"/>
     <use xlink:href="#DejaVuSans-66" x="907.421875"/>
     <use xlink:href="#DejaVuSans-20" x="942.626953"/>
     <use xlink:href="#DejaVuSans-69" x="974.414062"/>
     <use xlink:href="#DejaVuSans-6e" x="1002.197266"/>
     <use xlink:href="#DejaVuSans-73" x="1065.576172"/>
     <use xlink:href="#DejaVuSans-6f" x="1117.675781"/>
     <use xlink:href="#DejaVuSans-6c" x="1178.857422"/>
     <use xlink:href="#DejaVuSans-61" x="1206.640625"/>
     <use xlink:href="#DejaVuSans-74" x="1267.919922"/>
     <use xlink:href="#DejaVuSans-69" x="1307.128906"/>
     <use xlink:href="#DejaVuSans-6f" x="1334.912109"/>
     <use xlink:href="#DejaVuSans-6e" x="1396.09375"/>
     <use xlink:href="#DejaVuSans-20" x="1459.472656"/>
     <use xlink:href="#DejaVuSans-66" x="1491.259766"/>
     <use xlink:href="#DejaVuSans-6f" x="1526.464844"/>
     <use xlink:href="#DejaVuSans-72" x="1587.646484"/>
     <use xlink:href="#DejaVuSans-20" x="1628.759766"/>
     <use xlink:href="#DejaVuSans-64" x="1660.546875"/>
     <use xlink:href="#DejaVuSans-69" x="1724.023438"/>
     <use xlink:href="#DejaVuSans-66" x="1751.806641"/>
     <use xlink:href="#DejaVuSans-66" x="1787.011719"/>
     <use xlink:href="#DejaVuSans-65" x="1822.216797"/>
     <use xlink:href="#DejaVuSans-72" x="1883.740234"/>
     <use xlink:href="#DejaVuSans-65" x="1922.603516"/>
     <use xlink:href="#DejaVuSans-6e" x="1984.126953"/>
     <use xlink:href="#DejaVuSans-74" x="2047.505859"/>
     <use xlink:href="#DejaVuSans-20" x="2086.714844"/>
     <use xlink:href="#DejaVuSans-6c" x="2118.501953"/>
     <use xlink:href="#DejaVuSans-61" x="2146.285156"/>
     <use xlink:href="#DejaVuSans-74" x="2207.564453"/>
     <use xlink:href="#DejaVuSans-69" x="2246.773438"/>
     <use xlink:href="#DejaVuSans-74" x="2274.556641"/>
     <use xlink:href="#DejaVuSans-75" x="2313.765625"/>
     <use xlink:href="#DejaVuSans-64" x="2377.144531"/>
     <use xlink:href="#DejaVuSans-65" x="2440.621094"/>
     <use xlink:href="#DejaVuSans-73" x="2502.144531"/>
    </g>
   </g>
  </g>
 </g>
 <defs>
  <clipPath id="p8191abc8ba">
   <rect x="57.6" y="41.472" width="357.12" height="266.112"/>
  </clipPath>
 </defs>
</svg>
